<?xml version="1.0" encoding="utf-8"?>
<!DOCTYPE svg PUBLIC "-//W3C//DTD SVG 1.1//EN" "http://www.w3.org/Graphics/SVG/1.1/DTD/svg11.dtd">
<svg version="1.1" id="图形" xmlns="http://www.w3.org/2000/svg" xmlns:xlink="http://www.w3.org/1999/xlink" x="0px" y="0px" width="1024px" height="1024px" viewBox="0 0 1024 1024" enable-background="new 0 0 1024 1024" xml:space="preserve">
  <path fill="#a9b7b7" d="M78.769 253.456 0 253.456l0-78.769L0-133.23l0-78.772 78.769 0 307.917 0 78.769 0L465.455-133.23 465.455 174.687l0 78.769-78.769 0L78.769 253.456zM386.686-133.23 78.769-133.23 78.769 174.687l307.917 0L386.686-133.23zM637.314 253.456l-78.769 0 0-78.769L558.545-133.23l0-78.772 78.769 0 307.917 0L1024-212.002 1024-133.23 1024 174.687l0 78.769-78.769 0L637.314 253.456zM945.231-133.23 637.314-133.23 637.314 174.687l307.917 0L945.231-133.23zM78.769 812.002 0 812.002l0-78.769 0-307.917 0-78.772 78.769 0 307.917 0 78.769 0 0 78.772L465.455 733.233 465.455 812.002l-78.769 0L78.769 812.002zM386.686 425.316 78.769 425.316 78.769 733.233l307.917 0L386.686 425.316zM945.231 812.002 637.314 812.002l-78.769 0 0-78.769 0-307.917 0-78.772 78.769 0 307.917 0L1024 346.544l0 78.772L1024 733.233 1024 812.002 945.231 812.002zM945.231 425.316 637.314 425.316 637.314 733.233l307.917 0L945.231 425.316z" transform="translate(0, 812) scale(1, -1)"/>
</svg>
