<?xml version="1.0" encoding="utf-8"?>
<!DOCTYPE svg PUBLIC "-//W3C//DTD SVG 1.1//EN" "http://www.w3.org/Graphics/SVG/1.1/DTD/svg11.dtd">
<svg version="1.1" id="图形" xmlns="http://www.w3.org/2000/svg" xmlns:xlink="http://www.w3.org/1999/xlink" x="0px" y="0px" width="1024px" height="1024px" viewBox="0 0 1024 1024" enable-background="new 0 0 1024 1024" xml:space="preserve">
  <path fill="#a9b7b7" d="M512 700c52.4 0 103.2-10.3 151-30.5 46.2-19.5 87.7-47.5 123.3-83.2C822 550.7 850 509.2 869.5 463c20.2-47.8 30.5-98.6 30.5-151s-10.3-103.2-30.5-151c-19.5-46.2-47.5-87.7-83.2-123.3C750.7 2 709.2-26 663-45.5c-47.8-20.2-98.6-30.5-151-30.5s-103.2 10.3-151 30.5c-46.2 19.5-87.7 47.5-123.3 83.2C202 73.3 174 114.8 154.5 161c-20.2 47.8-30.5 98.6-30.5 151s10.3 103.2 30.5 151c19.5 46.2 47.5 87.7 83.2 123.3C273.3 622 314.8 650 361 669.5 408.8 689.7 459.6 700 512 700M512 760C264.6 760 64 559.4 64 312s200.6-448 448-448 448 200.6 448 448S759.4 760 512 760L512 760zM727 342 542 342 542 527c0 16.6-13.4 30-30 30s-30-13.4-30-30l0-185L297 342c-16.6 0-30-13.4-30-30s13.4-30 30-30l185 0 0-185c0-16.6 13.4-30 30-30s30 13.4 30 30L542 282l185 0c16.6 0 30 13.4 30 30S743.6 342 727 342z" transform="translate(0, 812) scale(1, -1)"/>
</svg>
