<?xml version="1.0" standalone="no"?><!DOCTYPE svg PUBLIC "-//W3C//DTD SVG 1.1//EN" "http://www.w3.org/Graphics/SVG/1.1/DTD/svg11.dtd"><svg width="200" height="200" viewBox="0 0 200 200" version="1.1" xmlns="http://www.w3.org/2000/svg" xmlns:xlink="http://www.w3.org/1999/xlink"><defs><style type="text/css"><![CDATA[
@font-face { font-family: ifont; src: url(http://at.alicdn.com/t/font_1442373896_4754455.eot?#iefix) format(embedded-opentype), url(http://at.alicdn.com/t/font_1442373896_4754455.woff) format(woff), url(http://at.alicdn.com/t/font_1442373896_4754455.ttf) format(truetype), url(http://at.alicdn.com/t/font_1442373896_4754455.svg#ifont) format(svg); }

]]></style></defs><g class="transform-group"><g transform="scale(0.1953125, 0.1953125)"><path d="M192.234721 949.525821l24.753777-216.919425C119.10005 660.981103 63.232648 558.12655 63.232648 448.713628c0-207.646224 201.237257-376.576681 448.564225-376.576681 247.324922 0 448.563202 168.930457 448.563202 376.576681 0 207.65441-201.237257 376.583844-448.563202 376.583844-31.075763 0-62.400189-2.7793-93.227288-8.259104L192.234721 949.525821zM511.796874 111.254873c-225.762837 0-409.446299 151.386896-409.446299 337.458755 0 99.911524 53.383838 194.160071 146.497539 258.56594l9.644661 6.665817-18.508539 162.320922 171.480536-100.379175 7.220449 1.393743c30.713512 5.901407 62.056358 8.899694 93.112678 8.899694 225.76079 0 409.446299-151.385872 409.446299-337.466941C921.243173 262.641769 737.557664 111.254873 511.796874 111.254873M339.666538 416.386362c-21.487384 0-38.925544 17.544585-38.925544 39.174208 0 21.63167 17.439184 39.174208 38.925544 39.174208 21.488407 0 38.907125-17.543561 38.907125-39.174208C378.573663 433.929924 361.154945 416.386362 339.666538 416.386362M514.832 416.386362c-21.487384 0-38.906102 17.544585-38.906102 39.174208 0 21.63167 17.418718 39.174208 38.906102 39.174208 21.526269 0 38.926568-17.543561 38.926568-39.174208C553.758568 433.929924 536.359292 416.386362 514.832 416.386362M690.017928 416.386362c-21.506826 0-38.925544 17.544585-38.925544 39.174208 0 21.63167 17.418718 39.174208 38.925544 39.174208 21.50785 0 38.926568-17.543561 38.926568-39.174208C728.944496 433.929924 711.524754 416.386362 690.017928 416.386362" fill="#a9b7b7"></path></g></g></svg>