<?xml version="1.0" standalone="no"?><!DOCTYPE svg PUBLIC "-//W3C//DTD SVG 1.1//EN" "http://www.w3.org/Graphics/SVG/1.1/DTD/svg11.dtd"><svg width="200" height="200" viewBox="0 0 200 200" version="1.1" xmlns="http://www.w3.org/2000/svg" xmlns:xlink="http://www.w3.org/1999/xlink"><defs><style type="text/css"><![CDATA[
@font-face { font-family: ifont; src: url(http://at.alicdn.com/t/font_1442373896_4754455.eot?#iefix) format(embedded-opentype), url(http://at.alicdn.com/t/font_1442373896_4754455.woff) format(woff), url(http://at.alicdn.com/t/font_1442373896_4754455.ttf) format(truetype), url(http://at.alicdn.com/t/font_1442373896_4754455.svg#ifont) format(svg); }

]]></style></defs><g class="transform-group"><g transform="scale(0.1953125, 0.1953125)"><path d="M958.464 789.888l-70.272-769.92L147.968 19.968l-70.4 772.992 0 211.072 881.024 0L958.464 789.888zM826.944 87.04l60.288 660.352L148.992 747.392 209.28 87.04 826.944 87.04zM144.704 936.96l-0.128-124.224 746.816 0 0 124.224L144.704 936.96zM414.016 538.56c1.216 0 2.432-0.128 3.712-0.192C420.16 538.688 422.784 538.88 425.472 538.88L613.12 538.88c38.272 0 69.248-29.824 69.248-66.688L682.368 469.312c-0.064-31.424-22.656-57.664-52.992-64.768 4.48-10.304 6.976-21.696 6.976-33.6 0-48.192-40.576-87.232-90.56-87.232C512 283.712 482.56 301.568 467.008 328c-7.424-4.544-16.192-7.168-25.6-7.168-26.624 0-48.192 20.8-48.192 46.4 0 0.832 0.064 1.6 0.128 2.432-39.104 8.96-68.288 42.752-68.288 83.264C325.056 500.224 364.864 538.56 414.016 538.56zM769.984 842.688l64 0 0 64-64 0 0-64ZM663.36 842.688l64 0 0 64-64 0 0-64Z" fill="#a9b7b7"></path></g></g></svg>