<?xml version="1.0" standalone="no"?><!DOCTYPE svg PUBLIC "-//W3C//DTD SVG 1.1//EN" "http://www.w3.org/Graphics/SVG/1.1/DTD/svg11.dtd"><svg width="200" height="200" viewBox="0 0 200 200" version="1.1" xmlns="http://www.w3.org/2000/svg" xmlns:xlink="http://www.w3.org/1999/xlink"><defs><style type="text/css"><![CDATA[
@font-face { font-family: ifont; src: url(http://at.alicdn.com/t/font_1442373896_4754455.eot?#iefix) format(embedded-opentype), url(http://at.alicdn.com/t/font_1442373896_4754455.woff) format(woff), url(http://at.alicdn.com/t/font_1442373896_4754455.ttf) format(truetype), url(http://at.alicdn.com/t/font_1442373896_4754455.svg#ifont) format(svg); }

]]></style></defs><g class="transform-group"><g transform="scale(0.1953125, 0.1953125)"><path d="M618.396993 328.617389c0.037864 0.034792 0.072658 0.070608 0.109498 0.105401 0.148385 0.135076 0.300864 0.261966 0.451297 0.391926 0.132012 0.112564 0.260954 0.232291 0.396036 0.342808 0.061401 0.051165 0.125872 0.098237 0.188296 0.148379 3.989011 3.224438 9.063794 5.160533 14.592944 5.160533l288.279214 0c12.835856 0 23.244329-10.42135 23.244329-23.2444 0-6.739495-2.878678-12.812817-7.472488-17.061584L651.178927 7.461949c-4.245871-4.581342-10.312279-7.449669-17.040793-7.449669-12.081648 0-22.023475 9.234315-23.137901 21.036106-0.001023 0.00921-0.001023 0.017396-0.002047 0.024559-0.066518 0.718361-0.106428 1.445932-0.106428 2.181689l0 288.268426C610.890735 318.285067 613.784763 324.369645 618.396993 328.617389zM657.379393 79.405491l208.880703 208.873168L657.379393 288.278659 657.379393 79.405491zM921.692818 374.183168c-12.746824 0-23.102084 10.332323-23.102084 23.101137l-0.633452 0 0 540.255531c0 21.361517-17.323237 38.680974-38.685629 38.680974L162.942606 976.22081c-21.363416 0-38.685629-17.319457-38.685629-38.680974L124.256976 86.507236c0-21.372773 17.32119-38.685068 38.685629-38.685068l383.235687 0c0.191366 0.005117 0.380686 0.01535 0.573075 0.01535 13.182771 0 23.894155-10.698666 23.894155-23.89727 0-13.196557-10.711385-23.8942-23.894155-23.8942-0.001023 0-0.001023 0-0.002047 0l-389.639799 0c-43.499459 0-78.768129 35.258015-78.768129 78.765925l0 866.421079c0 43.496653 35.26867 78.754668 78.768129 78.754668l708.918275 0c43.500482 0 78.768129-35.258015 78.768129-78.754668L944.795925 397.284305C944.794902 384.51549 934.438619 374.183168 921.692818 374.183168zM339.016814 799.176558c9.078121 9.077749 23.084687 9.790994 31.302173 1.572822L511.182857 659.892305l140.862846 140.856052c8.202135 8.202822 22.239402 7.521301 31.318546-1.556449s9.758648-23.11444 1.556513-31.317263L544.058938 627.01757l140.709344-140.702556c8.202135-8.203846 7.521609-22.23849-1.556513-31.317263-9.078121-9.078773-23.118458-9.759271-31.318546-1.556449l-140.710367 140.703579L370.473512 453.440279c-8.218509-8.218172-22.224051-7.505951-31.302173 1.572822-9.078121 9.077749-9.792418 23.083741-1.573909 31.301913l140.709344 140.702556L337.443928 767.874645C329.225419 776.092817 329.939716 790.098809 339.016814 799.176558z" fill="#a9b7b7"></path></g></g></svg>