<?xml version="1.0" standalone="no"?><!DOCTYPE svg PUBLIC "-//W3C//DTD SVG 1.1//EN" "http://www.w3.org/Graphics/SVG/1.1/DTD/svg11.dtd"><svg width="200" height="200" viewBox="0 0 200 200" version="1.1" xmlns="http://www.w3.org/2000/svg" xmlns:xlink="http://www.w3.org/1999/xlink"><defs><style type="text/css"><![CDATA[
@font-face { font-family: ifont; src: url(http://at.alicdn.com/t/font_1442373896_4754455.eot?#iefix) format(embedded-opentype), url(http://at.alicdn.com/t/font_1442373896_4754455.woff) format(woff), url(http://at.alicdn.com/t/font_1442373896_4754455.ttf) format(truetype), url(http://at.alicdn.com/t/font_1442373896_4754455.svg#ifont) format(svg); }

]]></style></defs><g class="transform-group"><g transform="scale(0.1953125, 0.1953125)"><path d="M0.411431 111.773438l0 801.867168 575.140688 110.359394 0-1022.585955L0.411431 111.773438zM441.769116 427.496852c-15.171021 170.42833-199.987455 156.46364-199.987455 156.46364l0 153.499739L153.511722 737.460231l0-448.26014c0 0 138.216872-7.70135 183.434345 0C449.21482 308.317654 441.769116 427.496852 441.769116 427.496852zM234.839261 359.039516l0 153.667507c0 0 109.872068 0 106.197149-76.829759C338.104465 374.530095 309.320268 366.029849 234.839261 359.039516zM622.103747 132.728461l0 192.086381c26.890815-26.826903 63.759832-43.419958 104.487513-43.419958l0 150.871373 148.954025 0c0 83.324777-66.691778 150.871373-148.954025 150.871373-40.727681 0-77.596698-16.593055-104.487513-43.419958l0 108.01863 290.558212 0 0 42.844754-290.558212 0 0 69.847414 290.558212 0 0 42.844754-290.558212 0 0 89.404371 400.893639 0L1022.997386 132.728461 622.103747 132.728461zM748.073555 408.219509 748.073555 257.348136c82.270236 0 148.954025 67.546596 148.954025 150.871373L748.073555 408.219509z" fill="#a9b7b7"></path></g></g></svg>