<?xml version="1.0" standalone="no"?><!DOCTYPE svg PUBLIC "-//W3C//DTD SVG 1.1//EN" "http://www.w3.org/Graphics/SVG/1.1/DTD/svg11.dtd"><svg width="200.9765625" height="200" viewBox="0 0 200.9765625 200" version="1.1" xmlns="http://www.w3.org/2000/svg" xmlns:xlink="http://www.w3.org/1999/xlink"><defs><style type="text/css"><![CDATA[
@font-face { font-family: ifont; src: url(http://at.alicdn.com/t/font_1442373896_4754455.eot?#iefix) format(embedded-opentype), url(http://at.alicdn.com/t/font_1442373896_4754455.woff) format(woff), url(http://at.alicdn.com/t/font_1442373896_4754455.ttf) format(truetype), url(http://at.alicdn.com/t/font_1442373896_4754455.svg#ifont) format(svg); }

]]></style></defs><g class="transform-group"><g transform="scale(0.1953125, 0.1953125)"><path d="M1018.111853 128.210745c3.110121 7.038695 5.72917 15.223224 7.529767 24.553587 1.964287 9.330363 2.94643 19.151798 2.94643 29.300614s-1.964287 20.297632-5.892861 30.446448c-3.928574 10.148816-10.148816 19.970251-18.660726 29.300614-9.330363 9.330363-17.678583 17.514892-25.208349 24.553587-7.366076 7.038695-13.913699 13.258937-19.315489 18.660726-6.220242 6.220242-12.113103 11.622031-17.514892 16.369058L723.305118 82.541073c9.330363-8.51191 20.461323-18.988107 33.392878-30.93752 12.931556-12.113103 23.571444-21.607157 32.247044-28.645852 10.967269-8.51191 22.261919-14.568462 33.88395-18.169654 11.622031-3.437502 23.244062-5.074408 34.538713-4.747027 11.29465 0.327381 22.261919 2.127978 32.738116 5.238099 10.476197 3.110121 19.64287 6.547623 27.500018 10.476197 16.369058 8.51191 34.538713 23.571444 54.345273 45.01491C991.75767 82.377383 1007.308275 104.802992 1018.111853 128.210745L1018.111853 128.210745 1018.111853 128.210745zM106.682701 699.163491c4.747027-4.747027 15.550605-15.877986 32.738116-33.392878 17.187511-17.514892 38.630977-39.122049 64.330398-64.985161l85.446483-85.446483L383.974544 420.725813l251.592422-251.592422L854.421273 389.133531 602.82885 640.725953l-93.631012 94.776846C477.932937 765.785557 449.941848 793.776646 424.897189 819.148686c-24.880968 25.37204-45.669672 46.160744-62.03873 62.529802-16.369058 16.369058-26.190493 25.699421-29.300614 28.15478-7.857148 7.038695-16.696439 14.404771-26.845255 22.261919-10.148816 7.857148-20.625013 14.07739-31.592282 18.660726-10.967269 5.401789-26.845255 12.113103-47.96134 19.970251-21.116085 7.857148-43.050623 15.386915-66.130995 22.752991-23.080372 7.366076-44.851219 13.913699-65.476232 19.315489-20.625013 5.401789-36.011928 9.002982-46.160744 10.476197-21.116085 2.291668-35.029784-0.818453-42.068479-9.330363-7.038695-8.51191-9.002982-23.080372-5.892861-43.214313 1.636906-10.967269 5.238099-26.681565 11.130959-47.306578 5.892861-20.625013 12.113103-42.068479 18.660726-64.330398 6.711314-22.261919 13.095246-42.723242 19.315489-61.383968 6.220242-18.660726 11.29465-31.592282 15.223224-38.630977 4.747027-10.967269 9.985125-20.788704 15.877986-29.791686C87.367212 720.115885 95.715432 710.13076 106.682701 699.163491L106.682701 699.163491 106.682701 699.163491zM496.921045 919.818393l104.598281 0 0 104.107209L496.921045 1023.925603 496.921045 919.818393 496.921045 919.818393zM709.391418 919.818393l104.598281 0 0 104.107209-104.598281 0L709.391418 919.818393 709.391418 919.818393zM922.843935 919.818393l104.598281 0 0 104.107209-104.598281 0L922.843935 919.818393 922.843935 919.818393zM922.843935 919.818393" fill="#a9b7b7"></path></g></g></svg>