<?xml version="1.0" standalone="no"?><!DOCTYPE svg PUBLIC "-//W3C//DTD SVG 1.1//EN" "http://www.w3.org/Graphics/SVG/1.1/DTD/svg11.dtd"><svg width="200" height="200" viewBox="0 0 200 200" version="1.1" xmlns="http://www.w3.org/2000/svg" xmlns:xlink="http://www.w3.org/1999/xlink"><defs><style type="text/css"><![CDATA[
@font-face { font-family: ifont; src: url(http://at.alicdn.com/t/font_1442373896_4754455.eot?#iefix) format(embedded-opentype), url(http://at.alicdn.com/t/font_1442373896_4754455.woff) format(woff), url(http://at.alicdn.com/t/font_1442373896_4754455.ttf) format(truetype), url(http://at.alicdn.com/t/font_1442373896_4754455.svg#ifont) format(svg); }

]]></style></defs><g class="transform-group"><g transform="scale(0.1953125, 0.1953125)"><path d="M849.5 962h-675c-66.284 0-112.5-46.216-112.5-112.5v-675c0-66.284 46.216-112.5 112.5-112.5h675c66.284 0 112.5 46.216 112.5 112.5v675c0 66.284-46.216 112.5-112.5 112.5zM99.5 212v75h150l-72.858-182.135c-46.619 13.532-77.142 53.522-77.142 107.135zM249.5 99.5l75.001 187.5h112.481l-74.982-187.5h-112.5zM436.982 99.5l75.018 187.5h112.5l-75-187.5h-112.519zM624.5 99.5l75 187.5h112.5l-75-187.5h-112.5zM924.5 212c0-66.284-46.216-112.5-112.5-112.5l75.001 187.5h37.499v-75zM924.5 324.5h-824.999v487.5c0 66.284 46.216 112.5 112.5 112.5h600c66.284 0 112.5-46.216 112.5-112.5v-487.5zM362 437l337.5 187.5-337.5 187.5v-374.999z" fill="#a9b7b7"></path></g></g></svg>