<?xml version="1.0" standalone="no"?><!DOCTYPE svg PUBLIC "-//W3C//DTD SVG 1.1//EN" "http://www.w3.org/Graphics/SVG/1.1/DTD/svg11.dtd"><svg width="200" height="200" viewBox="0 0 200 200" version="1.1" xmlns="http://www.w3.org/2000/svg" xmlns:xlink="http://www.w3.org/1999/xlink"><defs><style type="text/css"><![CDATA[
@font-face { font-family: ifont; src: url(http://at.alicdn.com/t/font_1442373896_4754455.eot?#iefix) format(embedded-opentype), url(http://at.alicdn.com/t/font_1442373896_4754455.woff) format(woff), url(http://at.alicdn.com/t/font_1442373896_4754455.ttf) format(truetype), url(http://at.alicdn.com/t/font_1442373896_4754455.svg#ifont) format(svg); }

]]></style></defs><g class="transform-group"><g transform="scale(0.1953125, 0.1953125)"><path d="M899.534755 47.288003 652.149459 47.288003 401.624658 47.288003 154.239362 47.288003c-41.22696 0-74.661444 33.423227-74.661444 74.673723L79.577918 867.231537c0 41.252543 33.434483 74.674747 74.661444 74.674747l745.29437 0c41.225937 0 74.661444-33.422204 74.661444-74.674747L974.195176 121.961726C974.196199 80.71123 940.760692 47.288003 899.534755 47.288003zM636.329145 478.622822l0 177.211051c0 11.864212-9.656941 21.522176-21.51092 21.522176l-21.795399 0L593.022827 577.216327c0-19.326161-19.300578-34.980699-43.11496-34.980699l-46.044686 0c-23.813359 0-43.115983 15.654538-43.115983 34.980699l0 100.138698-21.793352 0c-11.852956 0-21.51092-9.657964-21.51092-21.522176L417.442926 478.622822c0-5.090948 1.787716-9.768481 4.754281-13.458523L631.574864 465.164299C634.542452 468.854341 636.329145 473.531873 636.329145 478.622822zM495.717663 695.796026c0.144286-0.858554 0.236384-1.733481 0.236384-2.632967 0-0.898463-0.092098-1.77339-0.236384-2.63092L495.717663 579.399039c1.356904-0.955768 4.192485-2.184759 8.145517-2.184759l46.044686 0 0 0.001023c3.955078 0 6.789637 1.228991 8.146541 2.184759l0 195.545628c-1.356904 0.956791-4.191462 2.172479-8.146541 2.172479l-46.044686 0c-3.953032 0-6.788613-1.215688-8.145517-2.172479L495.717663 695.796026zM446.06173 326.337463l80.824817 0L526.886547 278.144858l-80.824817 0 0-48.193629 80.824817 0 0-48.190559 80.823793 0 0 48.191582-80.823793 0 0 48.192605 80.823793 0 0 48.192605-80.823793 0 0 48.192605 80.823793 0 0 46.208415-80.823793 0 0-46.208415-80.824817 0L446.06173 326.337463zM607.711364 133.567042l-80.823793 0 0 48.193629-80.824817 0 0-48.194652 80.824817 0L526.88757 91.713818l80.823793 0L607.711364 133.567042zM931.529447 867.231537c0 17.651009-14.355963 32.006971-31.995715 32.006971l-745.29437 0c-17.638729 0-31.995715-14.355963-31.995715-32.006971L122.243647 121.961726c0-17.651009 14.355963-32.006971 31.995715-32.006971l247.385297 0 0 350.881462c-9.759271 9.642614-15.821337 23.020296-15.821337 37.786605l0 177.210028c0 29.313629 23.849174 53.150524 53.150524 53.150524l21.793352 0 0 68.134797c0 19.326161 19.303648 34.991955 43.115983 34.991955l46.044686 0c23.813359 0 43.11496-15.667841 43.11496-34.991955l0-68.133773 21.795399 0c29.302373 0 53.150524-23.836895 53.150524-53.151547L667.968749 478.622822c0-14.766308-6.061043-28.142967-15.820314-37.786605L652.148435 89.954755l247.385297 0c17.637706 0 31.995715 14.355963 31.995715 32.006971L931.529447 867.231537z" fill="#a9b7b7"></path></g></g></svg>