<?xml version="1.0" encoding="utf-8"?>
<!DOCTYPE svg PUBLIC "-//W3C//DTD SVG 1.1//EN" "http://www.w3.org/Graphics/SVG/1.1/DTD/svg11.dtd">
<svg version="1.1" id="图形" xmlns="http://www.w3.org/2000/svg" xmlns:xlink="http://www.w3.org/1999/xlink" x="0px" y="0px" width="1024px" height="1024px" viewBox="0 0 1024 1024" enable-background="new 0 0 1024 1024" xml:space="preserve">
  <path fill="#a9b7b7" d="M446.004791 489.325973m-192.437545 0a188.047 188.047 0 1 0 384.875091 0 188.047 188.047 0 1 0 -384.875091 0ZM435.291359 48.997316c0 71.92103 33.515675 136.007627 85.771923 177.519066-24.072218 5.808286-49.206671 8.888438-75.058492 8.888438-176.211337 0-319.09939-142.934386-319.507706-319.407634l351.933514 0C451.302664-46.650091 435.291359-0.700573 435.291359 48.997316zM590.97638 234.679295c-9.572398 0-17.405105-7.831362-17.405105-17.404392l0-28.977985c0-9.572006 7.831683-17.404392 17.405105-17.404392l286.559989 0c9.572398 0 17.405105 7.831362 17.405105 17.404392L894.941474 217.274904c0 9.572006-7.831683 17.404392-17.405105 17.404392L590.97638 234.679295zM727.913663 60.383644c0-9.572006 7.831683-17.404392 17.405105-17.404392l132.162341 0c9.572398 0 17.405105 7.831362 17.405105 17.404392L894.886213 89.361629c0 9.572006-7.831683 17.404392-17.405105 17.404392L745.318768 106.766021c-9.572398 0-17.405105-7.831362-17.405105-17.404392L727.913663 60.383644zM642.159137 89.361629c0 9.572006-7.831683 17.404392-17.405105 17.404392l-33.777652 0c-9.572398 0-17.405105-7.831362-17.405105-17.404392l0-28.977985c0-9.572006 7.831683-17.404392 17.405105-17.404392L624.754032 42.979252c9.572398 0 17.405105 7.831362 17.405105 17.404392L642.159137 89.361629zM573.572298-67.529631c0-9.572006 7.831683-17.404392 17.405105-17.404392l287.583337 0c9.572398 0 17.405105 7.831362 17.405105 17.404392L895.965846-38.551646c0 9.572006-7.831683 17.404392-17.405105 17.404392L590.97638-21.147254c-9.572398 0-17.405105-7.831362-17.405105-17.404392L573.571275-67.529631z" transform="translate(0, 812) scale(1, -1)"/>
</svg>
