<?xml version="1.0" encoding="utf-8"?>
<!DOCTYPE svg PUBLIC "-//W3C//DTD SVG 1.1//EN" "http://www.w3.org/Graphics/SVG/1.1/DTD/svg11.dtd">
<svg version="1.1" id="图形" xmlns="http://www.w3.org/2000/svg" xmlns:xlink="http://www.w3.org/1999/xlink" x="0px" y="0px" width="1024px" height="1024px" viewBox="0 0 1024 1024" enable-background="new 0 0 1024 1024" xml:space="preserve">
  <path fill="#a9b7b7" d="M832 620 512 620c0 52.928-43.072 96-96 96l-64 0C299.072 716 256 672.928 256 620L160 620C107.072 620 64 576.928 64 524l0-512c0-52.928 43.072-96 96-96l417.888 0c9.088 0 17.792 3.872 23.84 10.656s8.96 15.84 7.968 24.864c-0.928 8.416-1.568 16.864-1.568 25.536 0 141.664 132.192 254.688 279.904 216.672 9.568-2.4 19.744-0.352 27.584 5.728C923.424 205.504 928 214.848 928 224.704L928 524C928 576.928 884.928 620 832 620zM480 76c-105.888 0-192 86.112-192 192s86.112 192 192 192 192-86.112 192-192S585.888 76 480 76zM784 396c-26.496 0-48 21.504-48 48s21.504 48 48 48 48-21.504 48-48S810.496 396 784 396zM832 138.016c-88.384 0-160-71.616-160-160s71.616-160 160-160 160 71.616 160 160S920.384 138.016 832 138.016zM896-52l-32 0 0-32c0-17.696-14.304-32-32-32s-32 14.304-32 32l0 32-32 0c-17.696 0-32 14.304-32 32s14.304 32 32 32l32 0 0 32c0 17.696 14.304 32 32 32s32-14.304 32-32l0-32 32 0c17.696 0 32-14.304 32-32S913.696-52 896-52z" transform="translate(0, 812) scale(1, -1)"/>
</svg>
