<?xml version="1.0" standalone="no"?><!DOCTYPE svg PUBLIC "-//W3C//DTD SVG 1.1//EN" "http://www.w3.org/Graphics/SVG/1.1/DTD/svg11.dtd"><svg width="228.7109375" height="200" viewBox="0 0 228.7109375 200" version="1.1" xmlns="http://www.w3.org/2000/svg" xmlns:xlink="http://www.w3.org/1999/xlink"><defs><style type="text/css"><![CDATA[
@font-face { font-family: ifont; src: url("//at.alicdn.com/t/font_1442373896_4754455.eot?#iefix") format("embedded-opentype"), url("//at.alicdn.com/t/font_1442373896_4754455.woff") format("woff"), url("//at.alicdn.com/t/font_1442373896_4754455.ttf") format("truetype"), url("//at.alicdn.com/t/font_1442373896_4754455.svg#ifont") format("svg"); }

]]></style></defs><g class="transform-group"><g transform="scale(0.1953125, 0.1953125)"><path d="M1.810366 768.136648C-1.231134 725.984748 1.191095 683.456165 0.415787 641.148227 2.460114 606.857904-4.805354 571.08523 6.693833 538.189486 68.639255 421.254473 133.862671 306.012703 197.125874 189.756694 213.68285 151.711733 247.880527 118.47222 291.515996 117.670093L619.080075 117.670093C658.940183 113.838657 701.738174 127.157867 724.45373 162.151576 777.012559 256.592897 828.644919 351.566939 880.847789 446.214278 898.865172 482.774451 924.694152 516.326037 934.75975 556.088623 936.38229 617.782923 935.016967 679.60888 935.466792 741.355599 941.32427 779.005592 912.347734 816.461758 873.676188 818.224487 611.797541 818.985166 349.88598 818.336638 87.993924 818.552408 52.235878 822.700795 9.845046 807.037374 1.810366 768.136648ZM868.724455 753.972644 868.724455 564.280559 66.970392 564.280559 66.970392 753.972644 868.724455 753.972644ZM717.552756 661.052682C717.552756 632.037136 741.116763 608.486539 770.149375 608.486539 799.181987 608.486539 822.745994 632.037136 822.745994 661.052682 822.745994 690.068227 799.181987 713.618825 770.149375 713.618825 741.116763 713.618825 717.552756 690.068227 717.552756 661.052682ZM336.659416 498.172121 597.509195 339.109588 468.16925 308.58975 600.578733 182.458313 399.570317 181.253903 267.610659 341.519627 399.817782 372.180874 336.659416 498.172121Z" fill="#a9b7b7"></path></g></g></svg>