<?xml version="1.0" standalone="no"?><!DOCTYPE svg PUBLIC "-//W3C//DTD SVG 1.1//EN" "http://www.w3.org/Graphics/SVG/1.1/DTD/svg11.dtd"><svg width="200" height="200" viewBox="0 0 200 200" version="1.1" xmlns="http://www.w3.org/2000/svg" xmlns:xlink="http://www.w3.org/1999/xlink"><defs><style type="text/css"><![CDATA[
@font-face { font-family: ifont; src: url(http://at.alicdn.com/t/font_1442373896_4754455.eot?#iefix) format(embedded-opentype), url(http://at.alicdn.com/t/font_1442373896_4754455.woff) format(woff), url(http://at.alicdn.com/t/font_1442373896_4754455.ttf) format(truetype), url(http://at.alicdn.com/t/font_1442373896_4754455.svg#ifont) format(svg); }

]]></style></defs><g class="transform-group"><g transform="scale(0.1953125, 0.1953125)"><path d="M313.031924 649.012514l397.074527 0L710.106452 580.248384 313.031924 580.248384 313.031924 649.012514zM313.031924 786.410813l397.074527 0 0-68.699662L313.031924 717.711152 313.031924 786.410813zM610.838587 64.839751 180.674431 64.839751c-18.290575 0-33.089629 15.380292-33.089629 34.316573l0 824.719304c0 19.000749 14.799054 34.383088 33.089629 34.383088l661.792585 0c18.289552 0 33.089629-15.381315 33.089629-34.383088L875.556645 305.384245 610.838587 64.839751zM643.928217 186.210006l131.130549 119.17424L643.928217 305.384245 643.928217 186.210006zM809.376363 889.493563 213.76406 889.493563 213.76406 133.539412l363.984898 0 0 206.163453c0 19.000749 14.800078 34.383088 33.089629 34.383088l198.538799 0L809.377386 889.493563zM313.031924 511.548722l397.074527 0 0-68.76413L313.031924 442.784592 313.031924 511.548722z" fill="#a9b7b7"></path></g></g></svg>