<?xml version="1.0" standalone="no"?><!DOCTYPE svg PUBLIC "-//W3C//DTD SVG 1.1//EN" "http://www.w3.org/Graphics/SVG/1.1/DTD/svg11.dtd"><svg width="200" height="200" viewBox="0 0 200 200" version="1.1" xmlns="http://www.w3.org/2000/svg" xmlns:xlink="http://www.w3.org/1999/xlink"><defs><style type="text/css"><![CDATA[
@font-face { font-family: ifont; src: url(http://at.alicdn.com/t/font_1442373896_4754455.eot?#iefix) format(embedded-opentype), url(http://at.alicdn.com/t/font_1442373896_4754455.woff) format(woff), url(http://at.alicdn.com/t/font_1442373896_4754455.ttf) format(truetype), url(http://at.alicdn.com/t/font_1442373896_4754455.svg#ifont) format(svg); }

]]></style></defs><g class="transform-group"><g transform="scale(0.1953125, 0.1953125)"><path d="M815.885614 959.574688 208.11541 959.574688c-36.700877 0-66.552765-29.849842-66.552765-66.536392L141.562645 130.99138c0-36.707017 29.851888-66.566068 66.552765-66.566068l473.937103 0 200.38382 209.469756 0 619.143229C882.436332 929.724847 852.584444 959.574688 815.885614 959.574688zM208.11541 108.34459c-12.481266 0-22.632463 10.159384-22.632463 22.646789l0 762.046916c0 12.467963 10.151197 22.61916 22.632463 22.61916L815.885614 915.657456c12.479219 0 22.630417-10.151197 22.630417-22.61916L838.51603 291.521516 663.294286 108.34459 208.11541 108.34459zM860.477204 304.668954 717.266525 304.668954c-36.700877 0-66.552765-29.850865-66.552765-66.537416L650.71376 86.385463c0-8.971325 5.462408-17.041118 13.782911-20.380166 8.306176-3.316535 17.828041-1.293459 24.047696 5.196349l187.80227 196.324364c6.076392 6.354731 7.777127 15.72617 4.317329 23.810289C877.217471 299.422464 869.269451 304.668954 860.477204 304.668954zM694.633039 141.105738l0 97.024777c0 12.474103 10.151197 22.618137 22.632463 22.618137l91.814102 0L694.633039 141.105738zM803.989679 593.293491c-0.64366-4.818749-4.474918-10.766205-8.620331-14.839986l-0.058328 0.027629c-11.694343-11.537777-37.642319-17.672498-77.17366-18.185174-26.735921-0.285502-58.94653 2.072195-92.787266 6.80294-15.167444-8.762571-30.795377-18.241456-43.046399-29.721929-32.967856-30.795377-60.517305-73.556273-77.703733-120.607892 1.12973-4.38896 2.058892-8.262174 2.973728-12.193717 0 0 18.570961-105.554034 13.666254-141.253094-0.685615-4.876054-1.099031-6.318916-2.413979-10.135848l-1.616824-4.14746c-5.060249-11.651364-14.9679-24.003693-30.507828-23.332405l-9.351995-0.285502c-17.326621 0-31.466666 8.863878-35.170011 22.103414-11.279904 41.547255 0.358157 103.694687 21.445428 184.214559l-5.40408 13.109576c-15.112186 36.786835-33.997302 73.816193-50.681286 106.526175l-2.172479 4.233418c-17.542538 34.341133-33.469276 63.476707-47.895847 88.196715l-14.909571 7.878434c-1.101077 0.583285-26.622334 14.093996-32.611745 17.683754-50.825572 30.379914-84.523045 64.822354-90.084715 92.171236-1.786693 8.735965-0.471744 19.886933 8.591679 25.062815l14.412244 7.261381c6.261611 3.101641 12.839423 4.718465 19.587104 4.718465 36.227086 0 78.247108-45.121664 136.133493-146.156778 66.836221-21.759583 142.967132-39.8588 209.662137-49.823755 50.825572 28.622898 113.345488 48.495504 152.804175 48.495504 7.018857 0 13.038968-0.64366 17.955954-1.958608 7.578606-2.016937 13.926174-6.305613 17.844413-12.193717C804.533055 625.417119 806.061874 609.547687 803.989679 593.293491zM254.577604 771.130805c6.605442-18.071587 32.739659-53.769624 71.38584-85.410252 2.400676-1.972934 8.392134-7.576559 13.896498-12.809747C299.441395 737.38933 272.378016 763.037477 254.577604 771.130805zM483.441059 244.121973c11.638061 0 18.257829 29.336142 18.801205 56.814983 0.543376 27.477818-5.875824 46.792723-13.868869 61.077054-6.603395-21.131273-9.79304-54.472636-9.79304-76.259848C478.580355 285.754163 478.079958 244.121973 483.441059 244.121973zM415.188582 619.669208l-0.027629 0c8.106632-14.525831 16.555048-29.807886 25.177426-46.02115 21.001313-39.730886 34.282804-70.826092 44.176129-96.388281 19.644409 35.783994 44.119847 66.179258 72.912613 90.512457 3.589758 3.057639 7.377014 6.089695 11.365862 9.149381C510.290567 588.502371 459.722868 602.570785 415.188582 619.669208zM784.044418 616.408955l0-0.027629c-3.53143 2.230808-13.766538 3.501754-20.314675 3.501754-21.175275 0-47.393403-9.677407-84.166935-25.433252 14.154371-1.043772 27.065426-1.587148 38.673811-1.587148 21.259186 0 27.563776-0.044002 48.336892 5.232165C787.376303 603.399663 787.648502 614.150518 784.044418 616.408955z" fill="#a9b7b7"></path></g></g></svg>