<?xml version="1.0" standalone="no"?><!DOCTYPE svg PUBLIC "-//W3C//DTD SVG 1.1//EN" "http://www.w3.org/Graphics/SVG/1.1/DTD/svg11.dtd"><svg width="200" height="200" viewBox="0 0 200 200" version="1.1" xmlns="http://www.w3.org/2000/svg" xmlns:xlink="http://www.w3.org/1999/xlink"><defs><style type="text/css"><![CDATA[
@font-face { font-family: ifont; src: url(http://at.alicdn.com/t/font_1442373896_4754455.eot?#iefix) format(embedded-opentype), url(http://at.alicdn.com/t/font_1442373896_4754455.woff) format(woff), url(http://at.alicdn.com/t/font_1442373896_4754455.ttf) format(truetype), url(http://at.alicdn.com/t/font_1442373896_4754455.svg#ifont) format(svg); }

]]></style></defs><g class="transform-group"><g transform="scale(0.1953125, 0.1953125)"><path d="M470.769458 173.021635 202.875059 173.021635c-12.603039 0-22.820752 14.011108-22.820752 31.29475l0 280.290731c0 17.284665 10.216689 31.295773 22.820752 31.295773l267.893376 0c12.602016 0 22.820752-14.011108 22.820752-31.295773L493.589187 204.317409C493.59021 187.032744 483.371474 173.021635 470.769458 173.021635zM833.400522 173.021635 565.506123 173.021635c-12.603039 0-22.820752 14.011108-22.820752 31.29475l0 280.290731c0 17.284665 10.216689 31.295773 22.820752 31.295773l267.8944 0c12.602016 0 22.820752-14.011108 22.820752-31.295773L856.221274 204.317409C856.221274 187.032744 846.002538 173.021635 833.400522 173.021635zM470.769458 572.111053 202.875059 572.111053c-12.603039 0-22.820752 14.011108-22.820752 31.293727l0 280.291754c0 17.284665 10.216689 31.29475 22.820752 31.29475l267.893376 0c12.602016 0 22.820752-14.010085 22.820752-31.29475L493.589187 603.406826C493.59021 586.123184 483.371474 572.111053 470.769458 572.111053zM833.400522 572.111053 565.506123 572.111053c-12.603039 0-22.820752 14.011108-22.820752 31.293727l0 280.291754c0 17.284665 10.216689 31.29475 22.820752 31.29475l267.8944 0c12.602016 0 22.820752-14.010085 22.820752-31.29475L856.221274 603.406826C856.221274 586.123184 846.002538 572.111053 833.400522 572.111053z" fill="#a9b7b7"></path></g></g></svg>