<?xml version="1.0" standalone="no"?><!DOCTYPE svg PUBLIC "-//W3C//DTD SVG 1.1//EN" "http://www.w3.org/Graphics/SVG/1.1/DTD/svg11.dtd"><svg width="200" height="200" viewBox="0 0 200 200" version="1.1" xmlns="http://www.w3.org/2000/svg" xmlns:xlink="http://www.w3.org/1999/xlink"><defs><style type="text/css"><![CDATA[
@font-face { font-family: ifont; src: url("//at.alicdn.com/t/font_1442373896_4754455.eot?#iefix") format("embedded-opentype"), url("//at.alicdn.com/t/font_1442373896_4754455.woff") format("woff"), url("//at.alicdn.com/t/font_1442373896_4754455.ttf") format("truetype"), url("//at.alicdn.com/t/font_1442373896_4754455.svg#ifont") format("svg"); }

]]></style></defs><g class="transform-group"><g transform="scale(0.1953125, 0.1953125)"><path d="M747.63264 387.26656l-466.7392 0c-30.08512 0-54.4256 22.76352-54.4256 52.86912l0 364.19584c0 30.19776 24.34048 55.82848 54.4256 55.82848l192.8192 0 0 60.29312-71.59808 0c-27.392 0-50.97472 22.23104-50.97472 49.5616l0 32.11264 326.71744 0 0-32.11264c0-27.32032-21.02272-49.5616-48.34304-49.5616l-74.16832 0L555.34592 860.16l192.27648 0c30.09536 0 54.96832-25.62048 54.96832-55.82848L802.59072 440.13568C802.60096 410.03008 777.728 387.26656 747.63264 387.26656zM720.8448 778.496 307.33312 778.496 307.33312 468.95104l413.51168 0L720.8448 778.496zM819.24096 169.97376c-7.17824-0.59392-13.7728-4.27008-18.04288-10.05568-41.4208-56.12544-107.97056-90.74688-178.7904-90.74688-4.51584 0-9.05216 0.14336-13.55776 0.41984-5.94944 0.36864-11.81696-1.41312-16.56832-5.00736-43.08992-32.57344-95.32416-50.2272-150.02624-50.2272-97.95584 0-184.89344 56.82176-225.40288 142.848-3.60448 7.63904-10.82368 12.94336-19.18976 14.10048C89.6512 186.28608 6.21568 279.23456 6.21568 391.28064c0 106.83392 75.83744 196.23936 176.4864 217.33376l0-90.88c-51.80416-18.7392-88.9856-68.27008-88.9856-126.464 0-74.20928 60.37504-134.58432 134.58432-134.58432 3.74784 0 7.44448 0.29696 11.1104 0.59392 21.38112 1.65888 40.74496-12.21632 45.95712-32.96256 18.08384-72.11008 82.60608-122.49088 156.8768-122.49088 42.43456 0 82.5856 16.39424 113.09056 46.15168 10.42432 10.15808 25.20064 14.4896 39.46496 11.52 9.08288-1.8944 18.37056-2.85696 27.5968-2.85696 51.968 0 98.3552 29.21472 121.09824 76.22656 7.9872 16.5376 25.4464 26.368 43.73504 24.49408 4.54656-0.45056 9.10336-0.68608 13.49632-0.68608 74.20928 0 134.59456 60.37504 134.59456 134.58432 0 58.18368-37.18144 107.71456-88.9856 126.464l0 90.86976c100.6592-21.0944 176.4864-110.51008 176.4864-217.33376C1022.83264 275.06688 933.07904 179.4048 819.24096 169.97376z" fill="#a9b7b7"></path></g></g></svg>