<?xml version="1.0" standalone="no"?><!DOCTYPE svg PUBLIC "-//W3C//DTD SVG 1.1//EN" "http://www.w3.org/Graphics/SVG/1.1/DTD/svg11.dtd"><svg width="200" height="200" viewBox="0 0 200 200" version="1.1" xmlns="http://www.w3.org/2000/svg" xmlns:xlink="http://www.w3.org/1999/xlink"><defs><style type="text/css"><![CDATA[
@font-face { font-family: ifont; src: url(http://at.alicdn.com/t/font_1442373896_4754455.eot?#iefix) format(embedded-opentype), url(http://at.alicdn.com/t/font_1442373896_4754455.woff) format(woff), url(http://at.alicdn.com/t/font_1442373896_4754455.ttf) format(truetype), url(http://at.alicdn.com/t/font_1442373896_4754455.svg#ifont) format(svg); }

]]></style></defs><g class="transform-group"><g transform="scale(0.1953125, 0.1953125)"><path d="M938.656 937.6C938.656 945.92 931.744 952.96 923.296 952.96 914.816 952.96 907.904 945.92 907.904 937.6L907.904 430.72 585.472 430.72C580.832 430.72 576.672 428.48 573.856 425.28L517.664 369.28 47.936 369.28 47.936 983.68 969.376 983.68 969.376 476.8C969.376 468.16 976.256 461.44 984.736 461.44 993.216 461.44 1000.096 468.16 1000.096 476.8L1000.096 999.04C1000.096 1007.36 993.216 1014.4 984.736 1014.4L508.672 1014.4 32.992 1014.4 32.576 1014.4C24.096 1014.4 17.216 1007.36 17.216 999.04L17.216 626.24 17.216 354.24 17.216 353.92C17.216 345.28 24.096 338.56 32.576 338.56L523.968 338.56C527.872 338.56 531.808 339.84 534.784 343.04L591.744 400 923.296 400C931.744 400 938.656 406.72 938.656 415.36L938.656 937.6 938.656 937.6ZM78.656 292.48C78.656 300.8 71.744 307.84 63.296 307.84 54.816 307.84 47.904 300.8 47.904 292.48L47.904 46.72C47.904 38.08 54.816 31.36 63.296 31.36L646.848 31.36C655.328 31.36 662.208 38.08 662.208 46.72L662.208 353.92C662.208 362.24 655.328 369.28 646.848 369.28 638.368 369.28 631.488 362.24 631.488 353.92L631.488 62.08 78.656 62.08 78.656 292.48 78.656 292.48ZM186.176 154.24C177.696 154.24 170.816 147.2 170.816 138.88 170.816 130.24 177.696 123.52 186.176 123.52L524 123.52C532.448 123.52 539.36 130.24 539.36 138.88 539.36 147.2 532.448 154.24 524 154.24L186.176 154.24 186.176 154.24ZM831.168 154.24C822.688 154.24 815.808 147.2 815.808 138.88 815.808 130.24 822.688 123.52 831.168 123.52L892.608 123.52C901.088 123.52 907.968 130.24 907.968 138.88L907.968 353.92C907.968 362.24 901.088 369.28 892.608 369.28 884.128 369.28 877.248 362.24 877.248 353.92L877.248 154.24 831.168 154.24 831.168 154.24ZM186.176 277.12C177.696 277.12 170.816 270.08 170.816 261.76 170.816 253.44 177.696 246.4 186.176 246.4L524 246.4C532.448 246.4 539.36 253.44 539.36 261.76 539.36 270.08 532.448 277.12 524 277.12L186.176 277.12 186.176 277.12ZM708.224 123.52C699.744 123.52 692.864 116.48 692.864 108.16 692.864 99.84 699.744 92.8 708.224 92.8L769.696 92.8C778.176 92.8 785.056 99.84 785.056 108.16L785.056 353.92C785.056 362.24 778.176 369.28 769.696 369.28 761.248 369.28 754.336 362.24 754.336 353.92L754.336 123.52 708.224 123.52 708.224 123.52Z" fill="#a9b7b7"></path></g></g></svg>