<?xml version="1.0" standalone="no"?><!DOCTYPE svg PUBLIC "-//W3C//DTD SVG 1.1//EN" "http://www.w3.org/Graphics/SVG/1.1/DTD/svg11.dtd"><svg width="200" height="200" viewBox="0 0 200 200" version="1.1" xmlns="http://www.w3.org/2000/svg" xmlns:xlink="http://www.w3.org/1999/xlink"><defs><style type="text/css"><![CDATA[
@font-face { font-family: ifont; src: url(http://at.alicdn.com/t/font_1442373896_4754455.eot?#iefix) format(embedded-opentype), url(http://at.alicdn.com/t/font_1442373896_4754455.woff) format(woff), url(http://at.alicdn.com/t/font_1442373896_4754455.ttf) format(truetype), url(http://at.alicdn.com/t/font_1442373896_4754455.svg#ifont) format(svg); }

]]></style></defs><g class="transform-group"><g transform="scale(0.1953125, 0.1953125)"><path d="M765.683014 496.125842c19.84544-95.255064 27.781244-158.758439 31.749993-190.511822-3.970444-35.720437-23.815884-55.565877-59.536321-59.534627-39.689186 0-63.506765 15.88008-67.468736 51.598823l-3.970444 27.781244c-47.630074-63.506765-107.166395-95.255064-178.607269-95.255064-162.727188 7.940888-277.829387 138.916388-277.829387 349.27365 3.972138 150.819246 71.440874 230.195924 198.447626 238.136812 63.506765 3.970444 115.100504-19.84544 162.727188-67.47043l3.970444 0c3.970444 43.656241 31.748299 67.47043 83.352205 67.47043 222.261815-15.874997 369.117396-166.697632 357.207759-361.178203-7.935804-83.347122-35.720437-162.727188-79.381762-230.202703 0 0 0-3.96536-3.963665-3.96536C841.089248 87.314176 686.296169 0 511.666122 0 233.831651 0 7.599392 230.202703 7.599392 512.000839c0 281.796442 230.202703 511.999144 512.000839 511.999144 142.886832 0 273.862333-59.529543 365.150342-154.791385-7.940888-19.84544-23.815884-27.781244-43.661325-31.749993-11.904553 0-31.749993 7.940888-55.565877 23.815884-75.411318 43.661325-158.756745 67.468736-257.982252 67.468736C265.586728 908.899479 118.731147 773.95184 118.731147 519.940032c3.970444-250.048143 150.822636-388.962837 396.89864-412.780415 198.445931-11.904553 373.089534 103.195951 377.0532 345.303207-7.934109 134.947639-47.62499 206.388513-123.034613 222.268593-23.815884 0-31.749993-7.940888-27.781244-27.784633 0-19.84544 7.935804-67.468736 23.8108-150.819246L765.683014 496.127537zM475.94399 658.85642c-71.439179 0-107.166395-35.720437-107.166395-111.131755 7.940888-91.291398 55.567572-142.886832 138.916388-150.820941 71.440874 3.96536 107.166395 39.690881 111.131755 111.131755C614.856989 603.292237 563.259861 654.885976 475.94399 658.85642L475.94399 658.85642zM475.94399 658.85642" fill="#a9b7b7"></path></g></g></svg>