<?xml version="1.0" standalone="no"?><!DOCTYPE svg PUBLIC "-//W3C//DTD SVG 1.1//EN" "http://www.w3.org/Graphics/SVG/1.1/DTD/svg11.dtd"><svg width="200" height="200" viewBox="0 0 200 200" version="1.1" xmlns="http://www.w3.org/2000/svg" xmlns:xlink="http://www.w3.org/1999/xlink"><defs><style type="text/css"><![CDATA[
@font-face { font-family: ifont; src: url(http://at.alicdn.com/t/font_1442373896_4754455.eot?#iefix) format(embedded-opentype), url(http://at.alicdn.com/t/font_1442373896_4754455.woff) format(woff), url(http://at.alicdn.com/t/font_1442373896_4754455.ttf) format(truetype), url(http://at.alicdn.com/t/font_1442373896_4754455.svg#ifont) format(svg); }

]]></style></defs><g class="transform-group"><g transform="scale(0.1953125, 0.1953125)"><path d="M135.04 261.12l0 627.84 878.72 0L1013.76 261.12 135.04 261.12 135.04 261.12zM951.68 784l-125.44-209.28-142.08 118.4L574.72 512l-376.96 314.24L197.76 323.84l753.28 0L951.04 784 951.68 784zM261.12 480.64c0-51.84 42.24-94.08 94.08-94.08S449.28 428.8 449.28 480.64s-42.24 94.08-94.08 94.08S261.12 532.48 261.12 480.64L261.12 480.64zM888.96 135.04 9.6 135.04l0 627.84 62.72 0L72.32 197.76l816 0L888.32 135.04zM888.96 135.04" fill="#a9b7b7"></path></g></g></svg>