<?xml version="1.0" standalone="no"?><!DOCTYPE svg PUBLIC "-//W3C//DTD SVG 1.1//EN" "http://www.w3.org/Graphics/SVG/1.1/DTD/svg11.dtd"><svg width="200" height="200" viewBox="0 0 200 200" version="1.1" xmlns="http://www.w3.org/2000/svg" xmlns:xlink="http://www.w3.org/1999/xlink"><defs><style type="text/css"><![CDATA[
@font-face { font-family: ifont; src: url(http://at.alicdn.com/t/font_1442373896_4754455.eot?#iefix) format(embedded-opentype), url(http://at.alicdn.com/t/font_1442373896_4754455.woff) format(woff), url(http://at.alicdn.com/t/font_1442373896_4754455.ttf) format(truetype), url(http://at.alicdn.com/t/font_1442373896_4754455.svg#ifont) format(svg); }

]]></style></defs><g class="transform-group"><g transform="scale(0.1953125, 0.1953125)"><path d="M849.250462 6.695385 411.687385 140.563692C358.675692 155.687385 315.707077 210.983385 315.707077 263.995077L315.707077 719.163077c0 0 0 6.222769 0 6.380308 0 0-31.704615-21.385846-102.321231-11.382154-103.699692 14.729846-187.785846 94.326154-187.785846 177.821538s84.086154 134.656 187.785846 119.926154c103.778462-14.651077 179.830154-91.805538 179.830154-175.340308 0 0 0-357.060923 0-394.082462s44.504615-52.893538 44.504615-52.893538l386.875077-121.265231c0 0 42.811077-14.375385 42.811077 25.245538s0 316.297846 0 316.297846 0 0.078769 0 0.236308c0 0-39.424-22.685538-110.040615-14.099692-103.699692 12.563692-187.785846 90.505846-187.785846 173.961846 0 83.534769 84.086154 136.388923 187.785846 123.785846 103.778462-12.563692 187.864615-90.466462 187.864615-174.001231L945.230769 75.303385C945.230769 22.291692 902.222769-8.428308 849.250462 6.695385z" fill="#a9b7b7"></path></g></g></svg>