<?xml version="1.0" standalone="no"?><!DOCTYPE svg PUBLIC "-//W3C//DTD SVG 1.1//EN" "http://www.w3.org/Graphics/SVG/1.1/DTD/svg11.dtd"><svg width="200" height="200" viewBox="0 0 200 200" version="1.1" xmlns="http://www.w3.org/2000/svg" xmlns:xlink="http://www.w3.org/1999/xlink"><defs><style type="text/css"><![CDATA[
@font-face { font-family: ifont; src: url(http://at.alicdn.com/t/font_1442373896_4754455.eot?#iefix) format(embedded-opentype), url(http://at.alicdn.com/t/font_1442373896_4754455.woff) format(woff), url(http://at.alicdn.com/t/font_1442373896_4754455.ttf) format(truetype), url(http://at.alicdn.com/t/font_1442373896_4754455.svg#ifont) format(svg); }

]]></style></defs><g class="transform-group"><g transform="scale(0.1953125, 0.1953125)"><path d="M831.618032 393.581714l-19.902984 0L811.715048 297.528889c0-0.601397-0.097524-1.202794-0.170667-1.812317-0.032508-3.811556-1.251556-7.558095-3.860317-10.524444L647.858794 102.627556c-0.048762-0.048762-0.097524-0.065016-0.130032-0.113778-0.950857-1.064635-2.064254-1.950476-3.23454-2.714413-0.34946-0.235683-0.698921-0.43073-1.064635-0.633905-1.015873-0.552635-2.096762-1.015873-3.210159-1.349079-0.300698-0.08127-0.568889-0.203175-0.869587-0.284444-1.202794-0.284444-2.462476-0.463238-3.730286-0.463238L242.826159 97.068698c-17.936254 0-32.507937 14.587937-32.507937 32.507937l0 263.996952L190.415238 393.573587c-25.656889 0-46.461968 20.796952-46.461968 46.461968l0 241.615238c0 25.648762 20.805079 46.461968 46.461968 46.461968l19.902984 0 0 165.400381c0 17.92 14.571683 32.507937 32.507937 32.507937l536.380952 0c17.92 0 32.507937-14.587937 32.507937-32.507937L811.715048 728.120889l19.902984 0c25.656889 0 46.461968-20.813206 46.461968-46.461968l0-241.615238C878.08 414.37054 857.274921 393.581714 831.618032 393.581714zM779.207111 884.703492l-536.380952 0L242.826159 728.120889l536.380952 0L779.207111 884.703492zM418.645333 605.687873c6.883556 24.827937 13.734603 53.589333 17.976889 62.098286l-50.972444 0c-3.600254-6.22527-8.834032-24.194032-15.368127-51.313778-5.883937-27.461079-15.36-34.986667-35.620571-35.303619l-15.051175 0 0 86.617397-49.338921 0L270.270984 450.438095c16.010159-2.616889 39.862857-4.583619 66.340571-4.583619 32.68673 0 55.572317 4.908698 71.24927 17.318603 13.092571 10.475683 20.284952 25.827556 20.284952 46.096254 0 28.111238-19.951746 47.396571-38.912 54.255746l0 0.983365C404.593778 570.709333 413.094603 585.419175 418.645333 605.687873zM447.447365 489.325714l0-41.837714 169.325714 0 0 41.837714L556.617143 489.325714l0 178.460444-49.997206 0L506.619937 489.325714 447.447365 489.325714zM772.372317 538.672762l0 40.521143-79.099937 0 0 88.584127-50.005333 0L643.267048 447.488l134.656 0 0 40.854349L693.272381 488.342349l0 50.330413L772.372317 538.672762zM779.207111 393.581714l-536.380952 0L242.826159 129.576635l376.539429 0 0 166.31873c0 8.980317 7.281778 16.253968 16.253968 16.253968l143.587556 0L779.207111 393.581714zM342.162286 482.783492c-12.068571 0-18.952127 0.983365-22.544254 1.633524l0 60.789841 19.61854 0c24.836063 0 39.545905-12.409905 39.545905-31.695238C378.774349 493.242921 365.039746 483.116698 342.162286 482.783492z" fill="#a9b7b7"></path></g></g></svg>