<?xml version="1.0" standalone="no"?><!DOCTYPE svg PUBLIC "-//W3C//DTD SVG 1.1//EN" "http://www.w3.org/Graphics/SVG/1.1/DTD/svg11.dtd"><svg width="200" height="200" viewBox="0 0 200 200" version="1.1" xmlns="http://www.w3.org/2000/svg" xmlns:xlink="http://www.w3.org/1999/xlink"><defs><style type="text/css"><![CDATA[
@font-face { font-family: ifont; src: url(http://at.alicdn.com/t/font_1442373896_4754455.eot?#iefix) format(embedded-opentype), url(http://at.alicdn.com/t/font_1442373896_4754455.woff) format(woff), url(http://at.alicdn.com/t/font_1442373896_4754455.ttf) format(truetype), url(http://at.alicdn.com/t/font_1442373896_4754455.svg#ifont) format(svg); }

]]></style></defs><g class="transform-group"><g transform="scale(0.1953125, 0.1953125)"><path d="M229.191424 829.500191c-85.254709 0-154.61338-69.357648-154.61338-154.61338L74.578044 313.356824c0-85.253686 69.359694-154.612357 154.61338-154.612357l95.944166 0 0 74.564229-95.944166 0c-44.141336 0-80.052221 35.908838-80.052221 80.048127l0 361.53101c0 44.143383 35.911908 80.053244 80.052221 80.053244l586.658374 0c44.138266 0 80.048127-35.911908 80.048127-80.053244L895.897925 313.356824c0-44.138266-35.909861-80.048127-80.048127-80.048127l-95.949282 0 0-74.564229 95.943143 0c85.254709 0 154.611334 69.358671 154.611334 154.612357l0 361.53101c0 85.254709-69.355601 154.61338-154.611334 154.61338L229.191424 829.501214zM389.291772 393.409045l95.945189 0 0-234.664577 74.564229 0 0 234.664577 95.946212 0L522.517029 571.041698 389.291772 393.409045z" fill="#a9b7b7"></path></g></g></svg>