<?xml version="1.0" standalone="no"?><!DOCTYPE svg PUBLIC "-//W3C//DTD SVG 1.1//EN" "http://www.w3.org/Graphics/SVG/1.1/DTD/svg11.dtd"><svg width="200" height="200" viewBox="0 0 200 200" version="1.1" xmlns="http://www.w3.org/2000/svg" xmlns:xlink="http://www.w3.org/1999/xlink"><defs><style type="text/css"><![CDATA[
@font-face { font-family: ifont; src: url(http://at.alicdn.com/t/font_1442373896_4754455.eot?#iefix) format(embedded-opentype), url(http://at.alicdn.com/t/font_1442373896_4754455.woff) format(woff), url(http://at.alicdn.com/t/font_1442373896_4754455.ttf) format(truetype), url(http://at.alicdn.com/t/font_1442373896_4754455.svg#ifont) format(svg); }

]]></style></defs><g class="transform-group"><g transform="scale(0.1953125, 0.1953125)"><path d="M784.587282 183.347818 239.412718 183.347818c-25.634844 0-46.491871 20.856004-46.491871 46.491871l0 545.17354c0 25.634844 20.856004 46.491871 46.491871 46.491871l545.17354 0c25.634844 0 46.490847-20.856004 46.490847-46.491871L831.077106 229.839689C831.077106 204.203822 810.222125 183.347818 784.587282 183.347818zM239.412718 221.812875l545.17354 0c4.424776 0 8.025791 3.599991 8.025791 8.026814l0 316.593542-72.421426-66.73389c-11.883655-10.9504-29.752628-11.680017-42.488697-1.738597L493.130234 622.027929l-82.060971-99.636255c-10.933003-13.274328-29.854958-15.925714-44.01547-6.164397l-135.666866 93.516884L231.386928 229.839689C231.386928 225.413889 234.986919 221.812875 239.412718 221.812875zM231.386928 775.013229 231.386928 656.461159l153.261593-105.644085 191.257975 232.221946-336.493777 0C234.986919 783.03902 231.386928 779.439028 231.386928 775.013229zM784.587282 783.03902 624.929002 783.03902c-0.671289-1.434675-1.508353-2.816139-2.561335-4.094248L517.592368 651.729391l180.029236-140.522454 94.991468 87.530542 0 176.274726C792.612049 779.439028 789.012058 783.03902 784.587282 783.03902zM357.222891 440.440198c43.376926 0 78.665641-36.585243 78.665641-81.554434 0-44.969191-35.288714-81.554434-78.665641-81.554434-43.375903 0-78.664617 36.585243-78.664617 81.554434C278.55725 403.854954 313.846988 440.440198 357.222891 440.440198zM357.222891 315.796386c22.166859 0 40.200584 19.329231 40.200584 43.089377 0 23.759123-18.033725 43.089377-40.200584 43.089377-22.165836 0-40.199561-19.329231-40.199561-43.089377C317.022307 335.125617 335.056032 315.796386 357.222891 315.796386z" fill="#56abe4"></path></g></g></svg>