<?xml version="1.0" encoding="utf-8"?>
<!DOCTYPE svg PUBLIC "-//W3C//DTD SVG 1.1//EN" "http://www.w3.org/Graphics/SVG/1.1/DTD/svg11.dtd">
<svg version="1.1" id="图形" xmlns="http://www.w3.org/2000/svg" xmlns:xlink="http://www.w3.org/1999/xlink" x="0px" y="0px" width="1024px" height="1024px" viewBox="0 0 1024 1024" enable-background="new 0 0 1024 1024" xml:space="preserve">
  <path fill="#a9b7b7" d="M799.61753 580.478088l-308.015936-312.095618 308.015936-312.095618q14.278884-14.278884 21.418327-32.63745t7.139442-37.227092-7.139442-36.717131-21.418327-32.12749q-28.557769-29.577689-68.334661-29.577689t-68.334661 29.577689l-372.270916 375.330677q-14.278884 14.278884-22.438247 34.167331t-9.179283 40.286853 5.099602 39.266932 20.398406 31.10757l378.390438 381.450199q28.557769 28.557769 68.334661 28.557769t68.334661-28.557769q14.278884-14.278884 21.418327-32.63745t7.139442-37.227092-7.139442-36.717131-21.418327-32.12749z" transform="translate(0, 812) scale(1, -1)"/>
</svg>
