<?xml version="1.0" standalone="no"?><!DOCTYPE svg PUBLIC "-//W3C//DTD SVG 1.1//EN" "http://www.w3.org/Graphics/SVG/1.1/DTD/svg11.dtd"><svg width="200" height="200" viewBox="0 0 200 200" version="1.1" xmlns="http://www.w3.org/2000/svg" xmlns:xlink="http://www.w3.org/1999/xlink"><defs><style type="text/css"><![CDATA[
@font-face { font-family: ifont; src: url("//at.alicdn.com/t/font_1442373896_4754455.eot?#iefix") format("embedded-opentype"), url("//at.alicdn.com/t/font_1442373896_4754455.woff") format("woff"), url("//at.alicdn.com/t/font_1442373896_4754455.ttf") format("truetype"), url("//at.alicdn.com/t/font_1442373896_4754455.svg#ifont") format("svg"); }

]]></style></defs><g class="transform-group"><g transform="scale(0.1953125, 0.1953125)"><path d="M751.2 428c-83.9 0-427.9 0-480.6 0-8.2 0-10.7 1.8-10.7 10.2 0 12 0 256.1 0 353.9 0 34.9 28 56 56 56l56 0 0 84c0 15.5 12.5 28 28 28s28-12.5 28-28l0-84 168 0 0 84c0 15.5 12.5 28 28 28 15.5 0 28-12.5 28-28l0-84 56 0c30.7 0 56-23.1 56-56 0-115.5-0.5-237 0-352.5C764 429.1 760.4 428 751.2 428zM316 792 316 484l147.7 0 244.2 0c-0.1 60.1 0 121.4 0 182.3L708 792 316 792zM176 456c-15.5 0-28 12.5-28 28l0 280c0 15.5 12.5 28 28 28s28-12.5 28-28L204 484C204 468.5 191.4 456 176 456zM848 456c-15.5 0-28 12.5-28 28l0 280c0 15.5 12.5 28 28 28 15.5 0 28-12.5 28-28L876 484C876 468.5 863.5 456 848 456zM649.7 178.8l50.1-70.6c9-12.6 6-30.1-6.6-39-12.5-8.9-30.1-6-39 6.6l-53 74.7c-0.5 0.8-0.6 1.7-1.1 2.5-25.5-9.5-54.3-15.6-88-15.6-33.8 0-62.7 6.1-88.2 15.7-0.5-0.8-0.6-1.7-1.1-2.5l-53-74.7c-8.9-12.6-26.5-15.5-39-6.6-12.6 9-15.6 26.4-6.6 39l50.2 70.7c-95.6 67.3-114.3 193-114.3 193l504 0.1C764 372 745.3 246.1 649.7 178.8zM335.2 315.9c23.9-54.1 74.4-122.6 176.9-122.6 102.5 0 152.9 68.6 176.8 122.6L335.2 315.9zM417.2 248.5 417.2 248.5c-12.8 0-23 10.7-23.1 24.3-0.1 13.5 9.8 24.6 22.4 25.1l0.7 0c12.5 0 23.8-11.4 24-24.4C441.4 260.1 430.3 248.5 417.2 248.5zM607.4 248.5l-0.7 0c-12.7 0-23.8 11.2-24 24.4-0.1 13.3 11.2 25 24 25l0.1 0c12.6-0.1 22.9-11 23-24.5C630 259.8 620.2 248.9 607.4 248.5z" fill="#a9b7b7"></path></g></g></svg>