<?xml version="1.0" standalone="no"?><!DOCTYPE svg PUBLIC "-//W3C//DTD SVG 1.1//EN" "http://www.w3.org/Graphics/SVG/1.1/DTD/svg11.dtd"><svg width="200" height="200" viewBox="0 0 200 200" version="1.1" xmlns="http://www.w3.org/2000/svg" xmlns:xlink="http://www.w3.org/1999/xlink"><defs><style type="text/css"><![CDATA[
@font-face { font-family: ifont; src: url("//at.alicdn.com/t/font_1442373896_4754455.eot?#iefix") format("embedded-opentype"), url("//at.alicdn.com/t/font_1442373896_4754455.woff") format("woff"), url("//at.alicdn.com/t/font_1442373896_4754455.ttf") format("truetype"), url("//at.alicdn.com/t/font_1442373896_4754455.svg#ifont") format("svg"); }

]]></style></defs><g class="transform-group"><g transform="scale(0.1953125, 0.1953125)"><path d="M758.097503 656.124242c23.877949 34.201557 51.241446 56.359246 82.119145 66.401431-13.393674 41.879792-34.637506 85.564782-63.795969 131.006874-44.847522 68.480889-89.127082 102.730544-132.812072 102.730544-16.322517 0-40.474725-5.647898-72.521096-16.849545-29.717214-11.20267-55.63471-16.794284-77.756581-16.794284-22.167922 0-46.6036 5.874059-73.410391 17.681533-27.957043 11.238488-50.995841 16.831124-69.045781 16.831124-52.431608 0-104.004621-45.157599-154.679128-135.47689-50.684741-89.127082-76.007667-176.771322-76.007667-262.934767 0-79.681513 19.241126-144.884595 57.683467-195.65325 39.604873-50.760469 88.524326-76.1581 146.811573-76.1581 12.797058 0 27.081051 1.642485 42.796718 4.882428 15.727947 3.239943 32.039207 9.275692 48.919453 18.154323 18.087805 10.042185 32.925433 16.966207 44.563029 20.80993 11.684671 3.833489 20.686104 5.75228 27.117892 5.75228 7.567712 0 19.212472-1.757101 34.931209-5.319401 15.754555-3.560253 31.481479-10.040139 47.197146-19.485708 16.880245-9.435336 31.444638-16.510814 43.68499-21.233599 12.241376-4.723808 24.766221-7.083665 37.60319-7.083665 40.758194 0 77.443435 11.20267 110.077211 33.644852 17.483002 11.79724 35.242309 29.20656 53.328067 52.233077-26.804745 23.613923-46.328317 44.243742-58.56253 61.963139-22.725651 33.050282-34.087965 69.045781-34.087965 108.007987C722.252437 582.315765 734.208297 621.278994 758.097503 656.124242L758.097503 656.124242 758.097503 656.124242zM582.448801 242.665169c-20.402634 19.477521-39.037934 32.16201-55.925343 38.037093-5.839265 1.804175-13.282128 3.40061-22.274351 4.882428-9.047484 1.482842-19.40998 2.80604-31.046553 4.004389 0.602756-51.959841 14.007687-96.807363 40.199442-134.570197 26.201989-37.800698 69.331297-63.762198 129.327548-77.920318 1.162532 5.880199 2.041594 10.041162 2.637187 12.397949l0 9.719829c0 21.236669-4.95918 45.167832-14.878563 71.718785C620.013104 196.902767 604.013967 220.82779 582.448801 242.665169L582.448801 242.665169 582.448801 242.665169zM582.448801 242.665169" fill="#a9b7b7"></path></g></g></svg>