<?xml version="1.0" standalone="no"?><!DOCTYPE svg PUBLIC "-//W3C//DTD SVG 1.1//EN" "http://www.w3.org/Graphics/SVG/1.1/DTD/svg11.dtd"><svg width="200" height="200" viewBox="0 0 200 200" version="1.1" xmlns="http://www.w3.org/2000/svg" xmlns:xlink="http://www.w3.org/1999/xlink"><defs><style type="text/css"><![CDATA[
@font-face { font-family: ifont; src: url("//at.alicdn.com/t/font_1442373896_4754455.eot?#iefix") format("embedded-opentype"), url("//at.alicdn.com/t/font_1442373896_4754455.woff") format("woff"), url("//at.alicdn.com/t/font_1442373896_4754455.ttf") format("truetype"), url("//at.alicdn.com/t/font_1442373896_4754455.svg#ifont") format("svg"); }

]]></style></defs><g class="transform-group"><g transform="scale(0.1953125, 0.1953125)"><path d="M400.149504 903.56224l223.702016 0 0-111.850496-223.702016 0L400.149504 903.56224 400.149504 903.56224zM903.56224 120.43776l-783.123456 0c-30.700544 0-55.926784 25.22624-55.926784 55.924736l0 503.414784c0 30.783488 25.22624 55.922688 55.926784 55.922688l783.123456 0c30.69952 0 55.926784-25.1392 55.926784-55.922688l0-503.414784C959.489024 145.664 934.26176 120.43776 903.56224 120.43776L903.56224 120.43776zM567.926784 679.77728l-111.85152 0 0-55.926784 111.85152 0L567.926784 679.77728 567.926784 679.77728zM903.56224 567.92576l-783.123456 0 0-391.563264 783.123456 0L903.56224 567.92576 903.56224 567.92576z" fill="#a9b7b7"></path></g></g></svg>