<?xml version="1.0" standalone="no"?><!DOCTYPE svg PUBLIC "-//W3C//DTD SVG 1.1//EN" "http://www.w3.org/Graphics/SVG/1.1/DTD/svg11.dtd"><svg width="200" height="200" viewBox="0 0 200 200" version="1.1" xmlns="http://www.w3.org/2000/svg" xmlns:xlink="http://www.w3.org/1999/xlink"><defs><style type="text/css"><![CDATA[
@font-face { font-family: ifont; src: url("//at.alicdn.com/t/font_1442373896_4754455.eot?#iefix") format("embedded-opentype"), url("//at.alicdn.com/t/font_1442373896_4754455.woff") format("woff"), url("//at.alicdn.com/t/font_1442373896_4754455.ttf") format("truetype"), url("//at.alicdn.com/t/font_1442373896_4754455.svg#ifont") format("svg"); }

]]></style></defs><g class="transform-group"><g transform="scale(0.1953125, 0.1953125)"><path d="M97.917631 163.000653c-40.798263 7.299689-73.896854 46.698012-73.896854 88.196245l0 157.393298c0 41.498233 33.598569 74.596824 75.096803 73.996849l224.190454-3.399855c41.498233-0.599974 75.096803-34.698523 75.096803-76.196756L398.404837 184.699729c0-41.498233-33.098591-69.197054-73.896854-61.99736L97.917631 163.000653zM549.698395 548.384244c-41.498233-0.69997-75.096803 32.298625-75.096803 73.796858l0 232.29011c0 41.498233 32.898599 81.896513 73.496871 90.19616l378.383889 77.796688c40.598271 8.399642 73.496871-18.499212 73.496871-59.997445l0-331.085903c0-41.498233-33.598569-75.696777-75.096803-76.396747L549.698395 548.384244zM99.017584 541.384542c-41.498233-0.599974-75.096803 32.498616-75.096803 73.896854l0 157.293303c0 41.498233 33.098591 80.996551 73.896854 88.196245l226.490356 40.198288c40.798263 7.299689 73.896854-20.499127 73.896854-61.897365l0-218.19071c0-41.498233-33.598569-75.596781-75.096803-76.196756L99.017584 541.384542zM548.098463 79.304217c-40.598271 8.299647-73.496871 48.697927-73.496871 90.19616l0 232.29011c0 41.498233 33.598569 74.496828 75.096803 73.796858L924.982416 468.987625c41.498233-0.69997 75.096803-34.898514 75.096803-76.396747L1000.079219 61.504975c0-41.498233-32.898599-68.297092-73.496871-59.997445L548.098463 79.304217z" fill="#a9b7b7"></path></g></g></svg>