<?xml version="1.0" standalone="no"?><!DOCTYPE svg PUBLIC "-//W3C//DTD SVG 1.1//EN" "http://www.w3.org/Graphics/SVG/1.1/DTD/svg11.dtd"><svg width="200" height="200" viewBox="0 0 200 200" version="1.1" xmlns="http://www.w3.org/2000/svg" xmlns:xlink="http://www.w3.org/1999/xlink"><defs><style type="text/css"><![CDATA[
@font-face { font-family: ifont; src: url("//at.alicdn.com/t/font_1442373896_4754455.eot?#iefix") format("embedded-opentype"), url("//at.alicdn.com/t/font_1442373896_4754455.woff") format("woff"), url("//at.alicdn.com/t/font_1442373896_4754455.ttf") format("truetype"), url("//at.alicdn.com/t/font_1442373896_4754455.svg#ifont") format("svg"); }

]]></style></defs><g class="transform-group"><g transform="scale(0.1953125, 0.1953125)"><path d="M764.314 184.32q45.875-3.277 90.112 8.192t78.643 28.399 55.706 36.045 21.299 32.222-16.384 15.838-40.96 4.915-54.067 8.192-55.706 26.761q-17.476 13.107-33.314 28.945t-31.676 30.583-32.768 27.307-36.591 19.115q-9.83 3.277-24.030 6.554t-30.037 1.638-32.768-10.377-32.222-29.491q-9.83 13.107-16.93 31.13t-12.561 38.775-9.284 43.145-6.007 42.052q-2.185 16.384-3.277 40.96t-0.546 48.606 2.731 44.237 6.554 28.945q5.461 9.83 5.461 16.384 0 5.461-5.461 10.377t-20.753 4.915q-17.476 0-23.484-4.915t-6.007-10.377q-1.092-6.554 4.369-15.292 5.461-10.923 7.1-25.668t1.092-31.676-1.638-34.406-1.092-33.86q-17.476-34.953-33.86-58.982t-36.045-45.875q-12.015 26.214-27.853 39.322t-32.222 18.022-31.13 4.369-25.668-2.731q-19.661-3.277-37.137-12.561t-34.953-20.753-35.499-24.576-36.591-22.938q-28.399-16.384-58.436-17.476t-54.613 1.638-40.414 2.185-15.838-14.746 18.022-36.045 48.060-43.145 70.451-38.229 85.197-21.299q68.813-6.554 114.142 7.1t70.997 38.775 32.222 57.89-2.185 65.536q34.953 31.676 68.813 80.828 5.461-53.521 27.307-108.134 8.738-18.569 16.384-31.676t18.569-28.399q-17.476-31.676-18.022-67.721t20.753-67.721 66.082-54.067 117.965-26.761zM438.818 484.693q-61.167-52.429-128.887-67.721t-139.81 3.277q-2.185 0-1.092 0.546t3.277 0.546q31.676-3.277 64.444-2.731t66.082 9.83 66.082 27.307 64.444 48.606zM839.68 277.163q2.185 0 3.277-0.546t-2.185-0.546q-79.735-7.646-144.179 24.576t-113.596 94.481l10.923 18.569q29.491-40.414 60.621-66.628t63.351-41.506 62.805-21.299 58.982-7.1zM269.517 835.311q-8.738-7.646 5.461-18.022t41.506-21.299 61.713-22.391 66.082-20.207q14.199-4.369 22.391 0.546t15.292 12.561 17.476 14.746 30.037 7.1 30.037-7.1 18.022-14.199 15.292-12.015 21.845-1.638q31.676 8.738 66.628 20.753t62.805 23.484 42.052 21.845 3.277 15.838q-26.214 14.199-70.451 23.484t-96.119 13.653-107.042 4.369-104.311-4.915-87.381-14.199-54.613-22.391z" fill="#a9b7b7"></path></g></g></svg>