<?xml version="1.0" standalone="no"?><!DOCTYPE svg PUBLIC "-//W3C//DTD SVG 1.1//EN" "http://www.w3.org/Graphics/SVG/1.1/DTD/svg11.dtd"><svg width="200" height="200" viewBox="0 0 200 200" version="1.1" xmlns="http://www.w3.org/2000/svg" xmlns:xlink="http://www.w3.org/1999/xlink"><defs><style type="text/css"><![CDATA[
@font-face { font-family: ifont; src: url("//at.alicdn.com/t/font_1442373896_4754455.eot?#iefix") format("embedded-opentype"), url("//at.alicdn.com/t/font_1442373896_4754455.woff") format("woff"), url("//at.alicdn.com/t/font_1442373896_4754455.ttf") format("truetype"), url("//at.alicdn.com/t/font_1442373896_4754455.svg#ifont") format("svg"); }

]]></style></defs><g class="transform-group"><g transform="scale(0.1953125, 0.1953125)"><path d="M674.575726 732.638119l138.944516 0 0 111.151519-138.944516 0 0-111.151519ZM638.678144 273.112238c10.847046 9.762341 10.847046 25.603121 0 35.355229l-138.944516 125.048017c-5.474688 4.891404-12.535501 7.326872-19.667945 7.326872-7.122211 0-14.193257-2.435469-19.657712-7.326872l-83.378989-75.02881c-10.847046-9.772574-10.847046-25.613354 0-35.365462 10.857279-9.772574 28.447912-9.772574 39.325657 0l63.711044 57.346079 119.286804-107.355053C610.230232 263.339664 627.820865 263.339664 638.678144 273.112238zM202.166419 732.638119l416.833547 0 0 111.151519-416.833547 0 0-111.151519ZM118.797663 415.832753c0 55.166437 49.875944 100.038414 111.171985 100.038414l583.560826 0c45.956681 0 83.378989-33.666774 83.378989-75.02881 0-41.351803-37.422308-75.018577-83.378989-75.018577-15.318894 0-27.782763-11.205203-27.782763-25.019837 0-124.116809-112.215758-225.076198-250.106268-225.076198-123.45166 0-228.852198 75.56093-250.556523 179.672102-2.455935 11.819187-13.957897 20.394493-27.342742 20.394493l-27.77253 0C168.673607 315.794339 118.797663 360.666316 118.797663 415.832753zM840.300164 318.117245c63.844074 11.266601 112.174825 62.022589 112.174825 122.725112 0 68.960605-62.309114 125.048017-138.944516 125.048017l-583.560826 0c-91.933829 0-166.737512-67.313082-166.737512-150.057621s74.803683-150.067854 166.737512-150.067854l5.669116 0c35.426861-117.096928 157.957545-200.066595 300.002678-200.066595C695.696766 65.698305 827.437206 176.982854 840.300164 318.117245zM118.797663 843.789639c0 30.637788 22.604834 55.57576 50.367131 55.57576l677.357072 0c29.092595 0 55.57576-26.483164 55.57576-55.57576l0-111.151519c0-24.52865-54.920844-55.57576-88.577385-55.57576l-611.353822 0c-32.91976 0-83.368756 29.798676-83.368756 55.57576L118.797663 843.789639zM957.683619 732.638119l0 111.151519c0 60.252269-50.919716 111.161752-111.161752 111.161752l-677.357072 0c-58.420551 0-105.942891-49.855478-105.942891-111.161752l0-111.151519c0-64.478524 82.990133-111.161752 138.944516-111.161752l611.353822 0C864.34786 621.476367 957.683619 663.677515 957.683619 732.638119z" fill="#a9b7b7"></path></g></g></svg>