<?xml version="1.0" standalone="no"?><!DOCTYPE svg PUBLIC "-//W3C//DTD SVG 1.1//EN" "http://www.w3.org/Graphics/SVG/1.1/DTD/svg11.dtd"><svg width="200" height="200" viewBox="0 0 200 200" version="1.1" xmlns="http://www.w3.org/2000/svg" xmlns:xlink="http://www.w3.org/1999/xlink"><defs><style type="text/css"><![CDATA[
@font-face { font-family: ifont; src: url("//at.alicdn.com/t/font_1442373896_4754455.eot?#iefix") format("embedded-opentype"), url("//at.alicdn.com/t/font_1442373896_4754455.woff") format("woff"), url("//at.alicdn.com/t/font_1442373896_4754455.ttf") format("truetype"), url("//at.alicdn.com/t/font_1442373896_4754455.svg#ifont") format("svg"); }

]]></style></defs><g class="transform-group"><g transform="scale(0.1953125, 0.1953125)"><path d="M1023.999487 512c0-282.770038-229.229962-512-512-512-81.195904 0-157.974117 18.906365-226.181868 52.547912l31.098741 0 21.536113 0 159.159601 0c14.520383 0 26.289299 11.768916 26.289299 26.289299l0 120.056033 36.828748 0 18.623036 116.651987L447.910754 315.545231l19.717486-116.651987 28.892453 0L496.520693 105.125487c0-14.518337-11.77403-26.288276-26.294413-26.288276L302.091168 78.837211l-31.582549 0-31.589709 0C95.353684 169.536417 0.000509 329.628857 0.000509 512c0 282.770038 229.229962 512 512 512 84.553921 0 164.316812-20.503035 234.599926-56.797855l-22.902641 0-59.991194 0L528.283264 967.202145c-14.518337 0-26.288276-11.768916-26.288276-26.289299L501.994988 784.899533l-30.022702 0-18.617921-116.646873 131.438311 0-19.717486 116.646873-35.693385 0 0 129.724014c0 14.51936 11.768916 26.289299 26.288276 26.289299l187.0067 0 27.533085 0 21.488039 0C931.568595 849.51401 1023.999487 691.554213 1023.999487 512zM433.12443 320.476393l161.016074 0 0 54.21925-36.693732 0 0 69.56405-14.786324 0 0-69.56405-62.473652 0 0 70.103092L465.400472 444.798734l0-70.103092-32.276042 0L433.12443 320.476393zM599.578999 663.317407 438.56804 663.317407l0-54.21925 161.01096 0L599.578999 663.317407zM640.653599 454.952569 671.888379 396.183682l30.513671 16.225475-31.23478 58.762751L640.653599 454.952569zM731.842751 592.178168l-58.772979-31.23478 16.223429-30.518785 58.767865 31.239894L731.842751 592.178168zM690.119663 515.837734l-10.105761-33.044202 63.692889-19.480184 10.110875 33.043179L690.119663 515.837734zM690.119663 515.837734" fill="#a9b7b7"></path></g></g></svg>