<?xml version="1.0" standalone="no"?><!DOCTYPE svg PUBLIC "-//W3C//DTD SVG 1.1//EN" "http://www.w3.org/Graphics/SVG/1.1/DTD/svg11.dtd"><svg width="200" height="200" viewBox="0 0 200 200" version="1.1" xmlns="http://www.w3.org/2000/svg" xmlns:xlink="http://www.w3.org/1999/xlink"><defs><style type="text/css"><![CDATA[
@font-face { font-family: ifont; src: url("//at.alicdn.com/t/font_1442373896_4754455.eot?#iefix") format("embedded-opentype"), url("//at.alicdn.com/t/font_1442373896_4754455.woff") format("woff"), url("//at.alicdn.com/t/font_1442373896_4754455.ttf") format("truetype"), url("//at.alicdn.com/t/font_1442373896_4754455.svg#ifont") format("svg"); }

]]></style></defs><g class="transform-group"><g transform="scale(0.1953125, 0.1953125)"><path d="M744.106667 238.933333l-17.066667 0 0-102.4 17.066667 0L744.106667 238.933333zM249.173333 238.933333l-17.066667 0 0-102.4 17.066667 0L249.173333 238.933333zM232.106667 307.2l17.066667 0 0 187.733333-17.066667 0L232.106667 307.2zM727.04 307.2l17.066667 0 0 187.733333-17.066667 0L727.04 307.2zM658.773333 529.066667c-29.013333 0-51.2 22.186667-51.2 51.2s22.186667 51.2 51.2 51.2 51.2-22.186667 51.2-51.2S687.786667 529.066667 658.773333 529.066667L658.773333 529.066667zM496.64 392.533333c-13.653333 0-25.6 11.946667-25.6 25.6s11.946667 25.6 25.6 25.6 25.6-11.946667 25.6-25.6S510.293333 392.533333 496.64 392.533333L496.64 392.533333zM300.373333 529.066667c-18.773333 0-34.133333 15.36-34.133333 34.133333s15.36 34.133333 34.133333 34.133333 34.133333-15.36 34.133333-34.133333S319.146667 529.066667 300.373333 529.066667L300.373333 529.066667zM658.773333 665.6c-47.786667 0-85.333333-37.546667-85.333333-85.333333 0-11.946667 1.706667-22.186667 6.826667-32.426667l-52.906667-78.506667c-8.533333 5.12-18.773333 8.533333-30.72 8.533333-17.066667 0-32.426667-6.826667-42.666667-18.773333l-90.453333 76.8c3.413333 8.533333 5.12 17.066667 5.12 27.306667 0 37.546667-30.72 68.266667-68.266667 68.266667s-68.266667-30.72-68.266667-68.266667 30.72-68.266667 68.266667-68.266667c15.36 0 29.013333 5.12 39.253333 11.946667l97.28-83.626667c0-1.706667 0-3.413333 0-5.12 0-32.426667 27.306667-59.733333 59.733333-59.733333s59.733333 27.306667 59.733333 59.733333c0 8.533333-1.706667 17.066667-5.12 25.6l49.493333 75.093333c15.36-13.653333 35.84-23.893333 58.026667-23.893333 47.786667 0 85.333333 37.546667 85.333333 85.333333S706.56 665.6 658.773333 665.6L658.773333 665.6zM829.44 290.133333l-682.666667 0 0 580.266667L153.6 870.4l78.506667-187.733333 0-34.133333 17.066667 0 0 34.133333 477.866667 0 0-34.133333 17.066667 0 0 34.133333 85.333333 170.666667L829.44 290.133333zM745.813333 119.466667 230.4 119.466667l-75.093333 136.533333 663.893333 0L745.813333 119.466667zM820.906667 870.4l-93.866667-170.666667-477.866667 0L170.666667 870.4 820.906667 870.4zM112.64 904.533333 112.64 256l102.4-170.666667 34.133333 0 477.866667 0 34.133333 0 102.4 170.666667 0 34.133333 0 614.4L112.64 904.533333z" fill="#a9b7b7"></path></g></g></svg>