<?xml version="1.0" standalone="no"?><!DOCTYPE svg PUBLIC "-//W3C//DTD SVG 1.1//EN" "http://www.w3.org/Graphics/SVG/1.1/DTD/svg11.dtd"><svg width="404.1015625" height="200" viewBox="0 0 404.1015625 200" version="1.1" xmlns="http://www.w3.org/2000/svg" xmlns:xlink="http://www.w3.org/1999/xlink"><defs><style type="text/css"><![CDATA[
@font-face { font-family: ifont; src: url("//at.alicdn.com/t/font_1442373896_4754455.eot?#iefix") format("embedded-opentype"), url("//at.alicdn.com/t/font_1442373896_4754455.woff") format("woff"), url("//at.alicdn.com/t/font_1442373896_4754455.ttf") format("truetype"), url("//at.alicdn.com/t/font_1442373896_4754455.svg#ifont") format("svg"); }

]]></style></defs><g class="transform-group"><g transform="scale(0.1953125, 0.1953125)"><path d="M1202.719861 311.888879c-42.435872-87.554925-131.272789-109.539745-131.272789-109.539745-115.976462-16.191531-161.906795 13.145888-161.906795 13.145888-136.471301 56.043958-120.333288 181.834834-120.333288 181.834834 4.850648 26.048515-10.937068 63.531568-10.937068 63.531568-42.940641 54.498027-37.197221 78.869249-37.197221 78.869249-4.812942 25.80282 32.818501 24.098768 32.818501 24.098768 11.952687-0.786953 19.69329 8.764736 19.69329 8.764736l-15.315787 19.715184c-11.837138 15.790148 15.315787 26.285695 15.315787 26.285695 9.094357-2.877792 17.50393 8.764736 17.50393 8.764736C789.413762 641.111404 793.585708 651.456128 793.585708 651.456128c18.069515 1.881633 17.50393 48.201185 17.50393 48.201185 1.899878 29.842188 37.191139 21.910625 37.191139 21.910625 11.034373 0.04622 45.943712-2.194225 45.943712-2.194225l13.131293 0c28.569927-6.639841 13.123995 67.913937 13.123995 67.913937l255.988445-2.190576c-14.472884-173.925164 19.69329-214.695906 19.69329-214.695906C1269.468572 429.476953 1202.719861 311.888879 1202.719861 311.888879zM1178.658799 362.273342c0 0-60.130763-3.893411-83.144582 6.577809 0 0-44.738348 27.869332-8.751357 81.057392 0 0 26.729649 24.957484 85.326644 0 0 0-4.603737 8.454577-35.002996 17.528257 0 0-13.421991 13.134942 26.25772 32.857423 0 0-32.494963-11.278851-39.389013-10.949231 0 0-14.851156-0.002433-15.313354 33.391384 0.054734 2.407079 0.003649 3.849624 0.003649 3.849624-0.021894-1.333077-0.021894-2.610203-0.003649-3.849624-0.339351-14.841426-4.882272-67.73149-52.510575-64.06188 0 0-71.616387 0.153255-65.637002 85.438544 0 0-1.149414 82.345466 72.203865 83.249185 0 0 25.852689 12.47935 24.063495-24.097552 0 0 6.991355-51.313725 10.940717 8.759871 0 0 18.756731-5.770179 19.689641-32.862288 0 0 4.819024 4.643875 2.18936 24.101201l21.875352 0c0 0 8.120092 3.378912-19.685992 4.378719 0 0-22.974897 19.73951 8.751357 15.336464 0 0-31.956137 14.460721 6.561997 19.717616 0 0-27.302531-0.330837-41.572291-2.194225 0 0-53.389968-0.307727-70.014505-6.569295 0 6.183725-75.727518-49.814014-39.37685-142.399601 0 0-3.189167-45.518004-56.888078-35.050432 0 0-43.080516 3.097944-45.946145 59.147984 0 0-0.322322-7.890209 0-30.66928 0 0-2.849816-12.783428-37.196004 6.571728 0 0 11.680234-10.127005 26.256504-17.525824 0 0 23.521021-19.80884-24.06836-21.906976 0 0-5.016066-4.282631 43.756785-2.193009 0 0 38.347851 2.566416 32.818501-28.482353 0 0 5.852888-44.105867-76.575287-8.761088l21.880217-15.334032c0 0 17.510012-13.852565-41.572291-13.148321l37.194788-6.568079c0 0 16.845906-8.255102-10.938284-30.676578 0 0 28.900764 19.01094 39.379282 28.482353 0 0 25.011001 8.246588 32.820934 6.574161 0 0 25.268859-35.060162-13.127644-52.581121 0 0-16.954158-15.456879-43.758002-10.954096 0 0 0.918315-2.846168 26.254071-2.18936 0 0 16.645215-3.147813 10.940717-15.334032 0 0-20.614037-21.336526-19.690857-32.861072 0 0 23.154911 45.319745 30.630358-8.767169 0 0 1.336726 44.523061 10.940717 52.581121 0 0 18.391837 31.439205 54.697502 26.289344 0 0 21.815753-3.568656 17.50393-35.052864 0 0-5.992764-15.994489-21.881433-37.244657 0 0 41.939617 52.013104 30.631574-15.336464 0 0 4.429804-2.947121 4.378719 0-0.379489 20.980147 4.167081 40.396118 27.975151 13.993657 1.623775-1.947314 2.656423-3.037128 2.656423-3.037128-0.91345 1.078868-1.796491 2.079892-2.656423 3.037128-9.601558 11.513599-39.992303 53.233064-1.722296 80.215705 0 0 33.088522 27.467949 83.1385-2.193009 0 0 16.176935-8.724598 24.073226-50.388112l-4.379936 41.625809c0 0 4.601304 13.912164 48.134288 6.570512C1191.782793 340.367582 1124.007516 351.274242 1178.658799 362.273342zM88.096184 763.890694c0 0 0.06933-1.920555-0.004865-5.129183C88.066992 760.415693 88.06456 762.118529 88.096184 763.890694zM0 414.68418c1.148198-1.273478 2.323154-2.608987 3.540681-4.047883C3.540681 410.636297 2.16625 412.088572 0 414.68418zM1008.046866 364.168355c-23.38601 4.03572-21.879001 21.90576-21.879001 21.90576-4.580627 21.205165 19.690857 26.290561 19.690857 26.290561 25.592398-0.958453 24.072009-24.096336 24.072009-24.096336C1027.164841 360.784578 1008.046866 364.168355 1008.046866 364.168355zM717.269496 347.70437l0 98.569837c0 0-8.390113 52.645586-68.612099 46.300091 0 0-38.385556-10.755837-43.255665-49.286135l0-65.714846c0 0-15.612567-6.3236-14.911972-17.921125 0 0-2.83887-21.332877 17.898015-23.896861 0 0 22.830156-5.478264 25.35765 22.402015 0 0-1.575123 16.220722-14.916837 17.922341l0 67.208476c0 0 7.419497 30.083018 35.798463 37.338313 0 0 35.425056 6.385632 49.220454-35.843466l0-98.57227c0 0-36.589065-0.919531-61.152464-64.222433 0 0-24.418658-60.012781 52.204065-80.649928 0 0 0.881825-9.167335 7.457202-2.986043l0 14.936298c0 0-5.017283 4.424939-8.948399-1.496062 0 0-40.978731 2.366941-43.255665 49.287351 0 0 4.927276 66.754792 56.677656 77.663885 0 0 21.043395 4.378719 41.763252-20.912034 0 0 29.390937-35.821573 22.374039-70.193303 0 0-9.711026-31.941541-43.253233-35.845899 0 0-8.212531 7.109337-7.457202-7.468149 0 0 2.382753-15.584592 8.945967-2.986043 0 0 33.874259 9.072463 47.730473 34.349837 0 0 18.042756 32.260215-14.914404 79.157515C762.018791 314.846947 740.082624 345.015106 717.269496 347.70437L717.269496 347.70437z" fill="#a9b7b7"></path></g></g></svg>