<?xml version="1.0" standalone="no"?><!DOCTYPE svg PUBLIC "-//W3C//DTD SVG 1.1//EN" "http://www.w3.org/Graphics/SVG/1.1/DTD/svg11.dtd"><svg width="200" height="200" viewBox="0 0 200 200" version="1.1" xmlns="http://www.w3.org/2000/svg" xmlns:xlink="http://www.w3.org/1999/xlink"><defs><style type="text/css"><![CDATA[
@font-face { font-family: ifont; src: url("//at.alicdn.com/t/font_1442373896_4754455.eot?#iefix") format("embedded-opentype"), url("//at.alicdn.com/t/font_1442373896_4754455.woff") format("woff"), url("//at.alicdn.com/t/font_1442373896_4754455.ttf") format("truetype"), url("//at.alicdn.com/t/font_1442373896_4754455.svg#ifont") format("svg"); }

]]></style></defs><g class="transform-group"><g transform="scale(0.1953125, 0.1953125)"><path d="M212.331431 449.965132l597.817528 0c3.943822 0 7.158027 3.221368 7.158027 7.15598l0 112.793926c0 3.933589-3.215228 7.15598-7.158027 7.15598L212.331431 577.071018c-3.933589 0-7.157004-3.222391-7.157004-7.15598L205.174428 457.121112C205.174428 453.1865 208.397842 449.965132 212.331431 449.965132L212.331431 449.965132zM291.20378 663.101393 291.20378 663.101393c-3.047406 3.045359-6.752798 5.065366-10.676154 6.0416 4.297886 1.477654 8.319479 3.923356 11.731182 7.335059l0 0c12.015661 12.015661 12.015661 31.682583 0 43.698245l-56.939827 56.94085c-12.016685 12.015661-31.683607 12.015661-43.699268 0l0 0c-12.016685-12.017708-12.016685-31.68463 0-43.700291l56.939827-56.938803c4.729721-4.740978 10.654664-7.611352 16.835434-8.617261-2.523473-1.113357-4.888334-2.701528-6.959505-4.759397l-42.684148-42.695405c-9.010211-9.011234-9.010211-23.757077 0-32.767288l0 0c9.010211-9.009188 23.757077-9.009188 32.767288 0l31.691793 31.69384c-7.995091-9.069563-7.658424-23.028483 1.00591-31.69384l0 0c9.011234-9.009188 23.7581-9.009188 32.767288 0l30.006408 30.017664c-6.574742-9.05012-5.785773-21.875217 2.356674-30.017664l0 0c9.010211-9.009188 23.7581-9.009188 32.767288 0l31.682583 31.69384c-7.983835-9.069563-7.648191-23.028483 1.016143-31.69384l0 0c9.010211-9.009188 23.747867-9.009188 32.758078 0l31.969109 31.959899c-8.242731-9.060353-7.985882-23.216771 0.759293-31.959899l0 0c9.011234-9.009188 23.757077-9.009188 32.767288 0l31.692816 31.69384c-7.985882-9.069563-7.650237-23.028483 1.004887-31.69384l0 0c9.010211-9.009188 23.757077-9.009188 32.767288 0l32.205493 32.205493c-8.466835-9.049097-8.290827-23.382547 0.543376-32.205493l0 0c9.010211-9.009188 23.757077-9.009188 32.767288 0l42.684148 42.694381c9.011234 9.010211 9.011234 23.747867 0 32.768311l0 0c-9.009188 8.999978-23.7581 8.999978-32.766264 0l-32.196283-32.207539c8.456602 9.05012 8.27957 23.37436-0.552585 32.207539l0 0c-9.011234 8.999978-23.747867 8.999978-32.759101 0l-31.692816-31.695886c7.985882 9.070586 7.650237 23.028483-1.004887 31.695886l0 0c-9.011234 8.999978-23.757077 8.999978-32.767288 0l-31.957853-31.958876c8.231475 9.058306 7.974625 23.204491-0.769526 31.958876l0 0c-9.010211 8.999978-23.7581 8.999978-32.767288 0l-31.683607-31.695886c7.985882 9.070586 7.650237 23.028483-1.014096 31.695886l0 0c-9.011234 8.999978-23.7581 8.999978-32.767288 0l-30.007431-30.018687c6.564509 9.039887 5.785773 21.866007-2.356674 30.018687l0 0c-9.010211 8.999978-23.757077 8.999978-32.767288 0l-31.682583-31.695886C300.203758 640.477117 299.868113 654.435013 291.20378 663.101393L291.20378 663.101393zM814.713928 663.101393c9.010211-9.020444 8.999978-23.759123 0-32.768311l-42.695405-42.694381c-9.010211-9.009188-23.756053-9.009188-32.767288 0l0 0c-8.389064 8.388041-8.970302 21.74628-1.734504 30.825053l-30.815843-30.825053c-9.020444-9.009188-23.757077-9.009188-32.767288 0l0 0c-9.009188 9.011234-9.018398 23.757077 0 32.767288l42.685171 42.695405c9.011234 8.999978 23.757077 8.999978 32.767288 0l0 0c8.389064-8.400321 8.960069-21.756513 1.734504-30.827099l30.825053 30.827099C790.956851 672.101371 805.703717 672.101371 814.713928 663.101393L814.713928 663.101393 814.713928 663.101393zM291.20378 365.561813 291.20378 365.561813c-9.011234-9.010211-23.757077-9.010211-32.758078 0l-42.694381 42.685171c-9.010211 9.010211-9.010211 23.757077 0 32.767288l0 0c9.010211 9.010211 23.757077 9.010211 32.767288 0l31.691793-31.69384c-7.995091 9.078773-7.658424 23.037692 1.00591 31.69384l0 0c9.011234 9.010211 23.7581 9.010211 32.767288 0l30.016641-30.017664c-6.584975 9.05012-5.796006 21.87317 2.346441 30.017664l0 0c9.010211 9.010211 23.7581 9.010211 32.767288 0l31.682583-31.683607c-7.983835 9.06854-7.648191 23.027459 1.016143 31.683607l0 0c9.010211 9.010211 23.747867 9.010211 32.758078 0l31.969109-31.959899c-8.242731 9.060353-7.985882 23.216771 0.759293 31.959899l0 0c9.011234 9.010211 23.757077 9.010211 32.767288 0l31.692816-31.683607c-7.985882 9.06854-7.650237 23.027459 1.004887 31.683607l0 0c9.010211 9.010211 23.757077 9.010211 32.767288 0l32.205493-32.206516c-8.466835 9.05012-8.290827 23.382547 0.543376 32.206516l0 0c9.010211 9.010211 23.757077 9.010211 32.767288 0l42.684148-42.683125c9.011234-9.012258 9.011234-23.760147 0-32.769334l0 0c-9.009188-9.010211-23.7581-9.010211-32.766264 0l-32.196283 32.206516c8.456602-9.060353 8.27957-23.382547-0.552585-32.206516l0 0c-9.011234-9.010211-23.747867-9.010211-32.759101 0l-31.692816 31.682583c7.985882-9.067516 7.650237-23.027459-1.004887-31.682583l0 0c-9.011234-9.010211-23.757077-9.010211-32.767288 0l-31.957853 31.958876c8.231475-9.06854 7.974625-23.214724-0.769526-31.958876l0 0c-9.010211-9.010211-23.7581-9.010211-32.767288 0l-31.683607 31.682583c7.985882-9.067516 7.650237-23.027459-1.014096-31.682583l0 0c-9.011234-9.010211-23.7581-9.010211-32.767288 0l-30.017664 30.017664c6.574742-9.05012 5.796006-21.874193-2.346441-30.017664l0 0c-9.010211-9.010211-23.757077-9.010211-32.767288 0l-31.682583 31.682583C300.203758 388.175857 299.868113 374.216937 291.20378 365.561813L291.20378 365.561813zM814.713928 365.561813 814.713928 365.561813c-9.011234-9.010211-23.757077-9.010211-32.767288 0l-30.825053 30.825053c7.225565-9.078773 6.65456-22.434965-1.734504-30.825053l0 0c-9.011234-9.010211-23.757077-9.010211-32.767288 0l-42.685171 42.685171c-9.018398 9.010211-9.009188 23.757077 0 32.767288l0 0c9.011234 9.010211 23.746844 9.010211 32.767288 0l30.815843-30.81482c-7.234775 9.067516-6.65456 22.426779 1.734504 30.81482l0 0c9.011234 9.010211 23.757077 9.010211 32.767288 0l42.695405-42.683125C823.713906 389.31889 823.724139 374.571001 814.713928 365.561813L814.713928 365.561813zM731.740168 347.532181 731.740168 347.532181c-12.026918-12.017708-12.026918-31.689746 0-43.704384l56.939827-56.939827c12.015661-12.021801 31.683607-12.021801 43.699268 0l0 0c12.014638 12.021801 12.014638 31.6877 0 43.705408l-56.938803 56.938803C763.422751 359.548866 743.75583 359.548866 731.740168 347.532181L731.740168 347.532181zM191.235974 246.88797 191.235974 246.88797c12.026918-12.016685 31.692816-12.016685 43.709501 0l56.938803 56.939827c12.016685 12.021801 12.016685 31.686676 0 43.704384l0 0c-12.016685 12.015661-31.682583 12.015661-43.709501 0l-56.938803-56.938803C179.219289 278.576693 179.219289 258.909771 191.235974 246.88797L191.235974 246.88797zM730.982922 676.479075 730.982922 676.479075c12.014638-12.017708 31.68156-12.017708 43.698245 0l56.939827 56.938803c12.015661 12.015661 12.025894 31.682583 0 43.700291l0 0c-12.017708 12.015661-31.68463 12.015661-43.699268 0l-56.938803-56.94085C718.965214 708.160635 718.965214 688.494737 730.982922 676.479075L730.982922 676.479075zM511.240195 213.859739 511.240195 213.859739c16.996093 0 30.903847 13.908778 30.903847 30.903847l0 80.529081c0 16.994046-13.907755 30.902824-30.903847 30.902824l0 0c-16.994046 0-30.903847-13.908778-30.903847-30.902824l0-80.529081C480.335325 227.768517 494.245126 213.859739 511.240195 213.859739L511.240195 213.859739zM511.240195 667.812695c-16.994046 0-30.903847 13.909801-30.903847 30.903847l0 80.529081c0 16.994046 13.909801 30.893614 30.903847 30.893614l0 0c16.996093 0 30.903847-13.899568 30.903847-30.893614L542.144042 698.716542C542.144042 681.722496 528.236288 667.812695 511.240195 667.812695L511.240195 667.812695 511.240195 667.812695zM184.266235 449.965132l-43.996027 0c-3.933589 0-7.15598 3.221368-7.15598 7.15598l0 10.970866-4.920056 0 0 36.337603 4.920056 0 0 18.178011-4.920056 0 0 36.337603 4.920056 0 0 10.970866c0 3.933589 3.222391 7.15598 7.15598 7.15598l43.996027 0c3.933589 0 7.145747-3.222391 7.145747-7.15598L191.411983 457.121112C191.413006 453.1865 188.199825 449.965132 184.266235 449.965132L184.266235 449.965132zM839.732741 449.965132l43.996027 0c3.932566 0 7.14677 3.221368 7.14677 7.15598l0 10.970866 4.927219 0 0 36.337603-4.927219 0 0 18.178011 4.927219 0 0 36.337603-4.927219 0 0 10.970866c0 3.933589-3.215228 7.15598-7.14677 7.15598l-43.996027 0c-3.933589 0-7.15598-3.222391-7.15598-7.15598L832.576761 457.121112C832.576761 453.1865 835.800175 449.965132 839.732741 449.965132z" fill="#a9b7b7"></path></g></g></svg>