<?xml version="1.0" standalone="no"?><!DOCTYPE svg PUBLIC "-//W3C//DTD SVG 1.1//EN" "http://www.w3.org/Graphics/SVG/1.1/DTD/svg11.dtd"><svg width="200" height="200" viewBox="0 0 200 200" version="1.1" xmlns="http://www.w3.org/2000/svg" xmlns:xlink="http://www.w3.org/1999/xlink"><defs><style type="text/css"><![CDATA[
@font-face { font-family: ifont; src: url(http://at.alicdn.com/t/font_1442373896_4754455.eot?#iefix) format(embedded-opentype), url(http://at.alicdn.com/t/font_1442373896_4754455.woff) format(woff), url(http://at.alicdn.com/t/font_1442373896_4754455.ttf) format(truetype), url(http://at.alicdn.com/t/font_1442373896_4754455.svg#ifont) format(svg); }

]]></style></defs><g class="transform-group"><g transform="scale(0.1953125, 0.1953125)"><path d="M1023.973906 115.910916l0 764.547877c0 30.185486-24.478508 54.610782-54.610782 54.610782L54.633806 935.069575c-30.185486 0-54.610782-24.425296-54.610782-54.610782L0.023024 115.910916c0-30.131251 24.425296-54.610782 54.610782-54.610782l914.729318 0C999.495398 61.301158 1023.973906 85.779665 1023.973906 115.910916zM805.638225 172.814927c0 23.785729 19.305695 43.091424 43.144636 43.091424 23.784706 0 43.090401-19.305695 43.090401-43.091424 0-23.838941-19.305695-43.144636-43.090401-43.144636C824.94392 129.671315 805.638225 148.975986 805.638225 172.814927zM683.936419 172.814927c0 23.785729 19.305695 43.091424 43.091424 43.091424 23.838941 0 43.144636-19.305695 43.144636-43.091424 0-23.838941-19.305695-43.144636-43.144636-43.144636C703.243137 129.671315 683.936419 148.975986 683.936419 172.814927zM562.183448 172.814927c0 23.785729 19.305695 43.091424 43.090401 43.091424 23.838941 0 43.144636-19.305695 43.144636-43.091424 0-23.838941-19.305695-43.144636-43.144636-43.144636C581.489142 129.671315 562.183448 148.975986 562.183448 172.814927zM914.753365 270.623557 109.244588 270.623557l0 555.2265 805.508777 0L914.753365 270.623557zM862.8963 367.644241c0 6.78145-5.498224 12.279674-12.279674 12.279674L202.897571 379.923916c-6.78145 0-12.279674-5.498224-12.279674-12.279674l0-39.905872c0-6.78145 5.498224-12.279674 12.279674-12.279674L850.616626 315.458695c6.78145 0 12.279674 5.498224 12.279674 12.279674L862.8963 367.644241zM318.013379 774.387989c0 6.78145-5.498224 12.279674-12.279674 12.279674L202.897571 786.667663c-6.78145 0-12.279674-5.498224-12.279674-12.279674L190.617897 409.087119c0-6.78145 5.498224-12.279674 12.279674-12.279674l102.836133 0c6.78145 0 12.279674 5.498224 12.279674 12.279674L318.013379 774.387989zM862.8963 774.387989c0 6.78145-5.498224 12.279674-12.279674 12.279674L342.572728 786.667663c-6.78145 0-12.279674-5.498224-12.279674-12.279674L330.293053 409.087119c0-6.78145 5.498224-12.279674 12.279674-12.279674L850.616626 396.807445c6.78145 0 12.279674 5.498224 12.279674 12.279674L862.8963 774.387989z" fill="#a9b7b7"></path></g></g></svg>