<?xml version="1.0" standalone="no"?><!DOCTYPE svg PUBLIC "-//W3C//DTD SVG 1.1//EN" "http://www.w3.org/Graphics/SVG/1.1/DTD/svg11.dtd"><svg width="200" height="200" viewBox="0 0 200 200" version="1.1" xmlns="http://www.w3.org/2000/svg" xmlns:xlink="http://www.w3.org/1999/xlink"><defs><style type="text/css"><![CDATA[
@font-face { font-family: ifont; src: url(http://at.alicdn.com/t/font_1442373896_4754455.eot?#iefix) format(embedded-opentype), url(http://at.alicdn.com/t/font_1442373896_4754455.woff) format(woff), url(http://at.alicdn.com/t/font_1442373896_4754455.ttf) format(truetype), url(http://at.alicdn.com/t/font_1442373896_4754455.svg#ifont) format(svg); }

]]></style></defs><g class="transform-group"><g transform="scale(0.1953125, 0.1953125)"><path d="M821.131636 822.248727C803.188364 845.800727 775.121455 861.090909 743.703273 861.090909L190.952727 861.090909c-53.853091 0-97.908364-44.846545-97.908364-99.630545L93.044364 262.539636c0-54.807273 44.055273-99.630545 97.908364-99.630545l552.750545 0c31.418182 0 59.485091 15.243636 77.428364 38.842182C891.601455 294.376727 1024 512 1024 512S891.601455 729.6 821.131636 822.248727zM784.128 229.981091c-9.914182-13.032727-24.622545-20.48-40.424727-20.48L190.952727 209.501091c-28.346182 0-51.386182 23.808-51.386182 53.061818l0 498.897455c0 29.253818 23.04 53.061818 51.386182 53.061818l552.750545 0c15.778909 0 30.510545-7.470545 40.424727-20.503273 54.528-71.656727 148.922182-223.045818 185.274182-282.018909C933.050182 453.003636 838.632727 301.614545 784.128 229.981091zM698.135273 604.858182c-51.572364 0-93.393455-41.541818-93.393455-92.834909 0-51.269818 41.797818-92.834909 93.393455-92.834909 51.572364 0 93.370182 41.565091 93.370182 92.834909C791.505455 563.316364 749.707636 604.858182 698.135273 604.858182zM698.158545 465.594182c-25.786182 0-46.685091 20.782545-46.685091 46.429091 0 25.646545 20.898909 46.405818 46.685091 46.405818 25.786182 0 46.685091-20.759273 46.685091-46.405818C744.843636 486.4 723.944727 465.594182 698.158545 465.594182z" fill="#a9b7b7"></path></g></g></svg>