<?xml version="1.0" standalone="no"?><!DOCTYPE svg PUBLIC "-//W3C//DTD SVG 1.1//EN" "http://www.w3.org/Graphics/SVG/1.1/DTD/svg11.dtd"><svg width="200" height="200" viewBox="0 0 200 200" version="1.1" xmlns="http://www.w3.org/2000/svg" xmlns:xlink="http://www.w3.org/1999/xlink"><defs><style type="text/css"><![CDATA[
@font-face { font-family: ifont; src: url(http://at.alicdn.com/t/font_1442373896_4754455.eot?#iefix) format(embedded-opentype), url(http://at.alicdn.com/t/font_1442373896_4754455.woff) format(woff), url(http://at.alicdn.com/t/font_1442373896_4754455.ttf) format(truetype), url(http://at.alicdn.com/t/font_1442373896_4754455.svg#ifont) format(svg); }

]]></style></defs><g class="transform-group"><g transform="scale(0.1953125, 0.1953125)"><path d="M688.740842 170.703847 577.031621 170.703847l40.85243-74.807776c4.626367-8.65717 1.312902-19.427468-7.308453-24.062022-8.676613-4.600785-19.455097-1.315972-24.080441 7.360641l-23.572882 43.113937 11.778254-51.921533c2.12029-9.558703-3.89061-19.110243-13.495362-21.187555-9.587356-2.148943-19.086707 3.924379-21.205974 13.520945l-15.126512 66.561975-13.440104-66.517973c-1.927909-9.640568-11.286044-15.868409-20.890796-13.924127-9.638521 1.919722-15.896038 11.244089-14.003945 20.838607l9.253758 45.803185-15.965623-36.148291c-3.856841-8.997931-14.300704-13.230326-23.326265-9.278317-9.061376 3.864004-13.196557 14.275121-9.28855 23.318078l34.068933 77.331249L366.336968 170.70487l0 344.985172 322.403874 0L688.740842 170.703847zM443.274244 701.45184 287.945573 428.411233c-5.608741-9.830903-18.141172-13.301957-27.990494-7.695263l-26.252921 14.898315c-9.867742 5.572926-13.301957 18.22713-7.692193 28.022217l134.947482 237.210563-13.96813 0-143.641491-205.111494L203.347826 178.650843c0-11.338233-9.200546-20.556175-20.556175-20.556175l-30.179346 0c-11.357675 0-20.558222 9.218966-20.558222 20.556175l0 329.887312c0 1.89414 0.314155 3.629667 0.787946 5.364171 0.280386 3.52222 1.122567 7.080256 3.312442 10.181897L283.739784 734.856647l0 186.709379c0 11.373025 9.200546 20.523429 20.556175 20.523429L438.630481 942.089455c11.357675 0 20.576641-9.149381 20.576641-20.523429l0-200.168925C459.206098 711.695135 452.386786 703.528128 443.274244 701.45184zM902.466528 158.093645l-30.16502 0c-11.354606 0-20.555152 9.218966-20.555152 20.556175l0 317.084729-143.642514 205.183126-13.983479 0 134.946458-237.282195c5.592368-9.795087 2.121314-22.361287-7.711636-27.960819l-26.233478-14.959713c-9.851369-5.606695-22.400173-2.136663-27.991518 7.695263L611.783099 701.45184c-9.112542 2.148943-15.929808 10.243295-15.929808 19.945261l0 200.167902c0 11.373025 9.200546 20.523429 20.559245 20.523429L750.779803 942.088432c11.358699 0 20.559245-9.149381 20.559245-20.523429L771.339048 734.855624l147.58429-210.772424c2.172479-3.101641 3.012613-6.659677 3.275603-10.181897 0.472767-1.734504 0.787946-3.470031 0.787946-5.364171L922.986887 178.650843C922.985864 167.31261 913.821133 158.093645 902.466528 158.093645z" fill="#a9b7b7"></path></g></g></svg>