<?xml version="1.0" encoding="utf-8"?>
<!DOCTYPE svg PUBLIC "-//W3C//DTD SVG 1.1//EN" "http://www.w3.org/Graphics/SVG/1.1/DTD/svg11.dtd">
<svg version="1.1" id="图形" xmlns="http://www.w3.org/2000/svg" xmlns:xlink="http://www.w3.org/1999/xlink" x="0px" y="0px" width="1024px" height="1024px" viewBox="0 0 1024 1024" enable-background="new 0 0 1024 1024" xml:space="preserve">
  <path fill="#a9b7b7" d="M62.241065-47.693864c0 0 0.554632-18.0941 21.420869-19.22076 0 0 17.460674-1.205455 23.141046 19.22076 0 0 1.702782 137.644917 22.548552 196.951651 0 0 37.811164 111.119797 123.587759 208.732975 0 0 36.681434-22.547529 66.555835-20.272719 0 0 84.648912-1.14815 93.15975 90.807169 0 0 2.772136 85.203544-94.785783 93.656053 0 0-116.798123-9.582239-88.626503-128.694057 0 0-103.219873-109.415992-119.610168-169.296801C109.633445 224.325483 60.022537 121.583494 62.241065-47.693864L62.241065-47.693864zM254.086417 239.510324c0 0-42.993187-2.831488-16.695241-35.478026 0 0 78.20413-35.036981 188.822506 8.454556 0 0 137.703245 74.989925 134.87278 215.542054 0 0 10.709923 221.777059-245.491157 243.139599 0 0-227.40115 6.253424-247.119237-246.046812 0 0 3.40454-60.875462 20.292162-90.252537 0 0 41.788755-36.739762 34.406624 25.972535 0 0-53.570079 192.993502 114.273626 250.52173 0 0 167.958316 58.102303 243.522316-74.492598 0 0 71.662133-109.415992 0-218.946594C480.912469 317.981537 434.150446 205.676751 254.086417 239.510324L254.086417 239.510324zM930.415067 115.539848c0 0 22.815635-8.071839 27.100218 0 0 0 9.256828 15.625886-13.540388 22.816658 0 0-65.675792 20.291139-112.131847 71.52808 0 0-47.009663 44.447305-66.49853 95.243201 0 0 31.711236 13.541411 27.100218 39.761586 0 0 1.26276 46.570665-49.916876 42.36283 0 0-42.782386 1.243317-44.045145-44.810578 0 0-0.381693-42.801828 39.839357-46.588061 0 0 49.973158-83.750449 68.122517-97.750301C806.387285 198.103262 866.44001 140.938308 930.415067 115.539848L930.415067 115.539848zM731.510948 231.955254c0 0 21.095457-0.87902 20.293185-16.140609 0 0 2.524496-15.185864-30.447453-11.016915 0 0-106.642832 11.016915-119.438253 133.724631 0 0 5.987365 126.991276 144.778384 137.146567 0 0 121.063263 5.107321 140.474358-135.809105 0 0 2.964518-54.584176-40.201607-94.420463 0 0-31.326473-9.276271-15.702634 20.291139 0 0 45.76737 44.867884 22.435988 101.152794 0 0-27.27418 83.635839-109.090581 80.804351 0 0-99.069343 6.369058-114.332978-111.690802C632.499933 310.159384 652.658042 235.722044 731.510948 231.955254L731.510948 231.955254zM731.510948 231.955254" transform="translate(0, 812) scale(1, -1)"/>
</svg>
