<?xml version="1.0" encoding="utf-8"?>
<!DOCTYPE svg PUBLIC "-//W3C//DTD SVG 1.1//EN" "http://www.w3.org/Graphics/SVG/1.1/DTD/svg11.dtd">
<svg style="width:308px;height:308px;" version="1.1" id="图形" xmlns="http://www.w3.org/2000/svg" xmlns:xlink="http://www.w3.org/1999/xlink" x="0px" y="0px" width="1024px" height="1024px" viewBox="0 0 1024 1024" enable-background="new 0 0 1024 1024" xml:space="preserve">
  <path class="svgpath" data-index="path_0" fill="#ea8010" d="M736.737484 248.080122c-114.745371-60.5961-225.988987-55.997362-225.988987-55.997362C261.759679 185.083345 63.768349 409.072793 63.768349 513.068332S243.510036 832.05334 511.747243 832.05334c263.005043 0 446.979124-213.989699 446.979124-319.984778C958.726368 413.072897 825.733401 295.078529 736.737484 248.080122zM511.747243 738.057549c-124.258025 0-224.989217-100.731192-224.989217-224.989217s100.731192-224.989217 224.989217-224.989217 224.989217 100.731192 224.989217 224.989217S636.006292 738.057549 511.747243 738.057549z" />
<path class="svgpath" data-index="path_1" fill="#ea8010" d="M621.24203 447.1449l-109.493763 64.423265 46.555315-118.459972c-14.615882-5.807263-30.537504-9.033747-47.222511-9.033747-70.688969 0-127.994116 57.305147-127.994116 127.994116s57.305147 127.994116 127.994116 127.994116c70.688969 0 127.994116-57.305147 127.994116-127.994116 0-24.364921-6.811126-47.137577-18.629289-66.524113C620.989273 446.576965 621.24203 447.1449 621.24203 447.1449z" />

</svg>
