<?xml version="1.0" standalone="no"?><!DOCTYPE svg PUBLIC "-//W3C//DTD SVG 1.1//EN" "http://www.w3.org/Graphics/SVG/1.1/DTD/svg11.dtd"><svg width="200" height="200" viewBox="0 0 200 200" version="1.1" xmlns="http://www.w3.org/2000/svg" xmlns:xlink="http://www.w3.org/1999/xlink"><defs><style type="text/css"><![CDATA[
@font-face { font-family: ifont; src: url(http://at.alicdn.com/t/font_1442373896_4754455.eot?#iefix) format(embedded-opentype), url(http://at.alicdn.com/t/font_1442373896_4754455.woff) format(woff), url(http://at.alicdn.com/t/font_1442373896_4754455.ttf) format(truetype), url(http://at.alicdn.com/t/font_1442373896_4754455.svg#ifont) format(svg); }

]]></style></defs><g class="transform-group"><g transform="scale(0.1953125, 0.1953125)"><path d="M584.533333 938.666667l157.866667 0 0 85.333333-157.866667 0 0-85.333333ZM938.666667 938.666667 896 938.666667 896 1024 1024 1024 1024 896 938.666667 896ZM938.666667 281.6l85.333333 0 0 153.6-85.333333 0 0-153.6ZM938.666667 588.8l85.333333 0 0 153.6-85.333333 0 0-153.6ZM896 0 896 85.333333 938.666667 85.333333 938.666667 128 1024 128 1024 0ZM281.6 0l153.6 0 0 85.333333-153.6 0 0-85.333333ZM588.8 0l153.6 0 0 85.333333-153.6 0 0-85.333333ZM85.333333 85.333333 128 85.333333 128 0 0 0 0 128 85.333333 128ZM0 285.866667l85.333333 0 0 157.866667-85.333333 0 0-157.866667ZM426.666667 341.333333 622.933333 341.333333 366.933333 597.333333 85.333333 597.333333 0 597.333333 0 682.666667 0 1024 341.333333 1024 426.666667 1024 426.666667 938.666667 426.666667 657.066667 682.666667 401.066667 682.666667 597.333333 768 597.333333 768 256 426.666667 256Z" fill="#a9b7b7"></path></g></g></svg>