<?xml version="1.0" standalone="no"?><!DOCTYPE svg PUBLIC "-//W3C//DTD SVG 1.1//EN" "http://www.w3.org/Graphics/SVG/1.1/DTD/svg11.dtd"><svg width="200" height="200" viewBox="0 0 200 200" version="1.1" xmlns="http://www.w3.org/2000/svg" xmlns:xlink="http://www.w3.org/1999/xlink"><defs><style type="text/css"><![CDATA[
@font-face { font-family: ifont; src: url(http://at.alicdn.com/t/font_1442373896_4754455.eot?#iefix) format(embedded-opentype), url(http://at.alicdn.com/t/font_1442373896_4754455.woff) format(woff), url(http://at.alicdn.com/t/font_1442373896_4754455.ttf) format(truetype), url(http://at.alicdn.com/t/font_1442373896_4754455.svg#ifont) format(svg); }

]]></style></defs><g class="transform-group"><g transform="scale(0.1953125, 0.1953125)"><path d="M713.613322 381.146766 193.245747 381.146766c-14.078647 0-25.470091 11.343349-25.470091 25.471115l0 362.965685c0 14.028505 11.390421 25.471115 25.470091 25.471115l520.368598 0c14.07967 0 25.470091-11.44261 25.470091-25.471115L739.084437 406.617881C739.083413 392.490116 727.692992 381.146766 713.613322 381.146766zM688.141184 744.111428 218.718909 744.111428 218.718909 432.088996l469.422276 0L688.141184 744.111428zM828.234873 228.320079 307.866275 228.320079c-14.07967 0-25.473161 11.343349-25.473161 25.471115l0 60.493769c0 14.029528 11.393491 25.471115 25.473161 25.471115 14.078647 0 25.470091-11.441587 25.470091-25.471115l0-35.023678 469.425346 0 0 337.494571c0 14.029528 11.393491 25.471115 25.473161 25.471115 14.078647 0 25.469068-11.441587 25.469068-25.471115L853.703941 253.791194C853.703941 239.663428 842.313519 228.320079 828.234873 228.320079z" fill="#a9b7b7"></path></g></g></svg>