<?xml version="1.0" standalone="no"?><!DOCTYPE svg PUBLIC "-//W3C//DTD SVG 1.1//EN" "http://www.w3.org/Graphics/SVG/1.1/DTD/svg11.dtd"><svg width="200" height="200" viewBox="0 0 200 200" version="1.1" xmlns="http://www.w3.org/2000/svg" xmlns:xlink="http://www.w3.org/1999/xlink"><defs><style type="text/css"><![CDATA[
@font-face { font-family: ifont; src: url(http://at.alicdn.com/t/font_1442373896_4754455.eot?#iefix) format(embedded-opentype), url(http://at.alicdn.com/t/font_1442373896_4754455.woff) format(woff), url(http://at.alicdn.com/t/font_1442373896_4754455.ttf) format(truetype), url(http://at.alicdn.com/t/font_1442373896_4754455.svg#ifont) format(svg); }

]]></style></defs><g class="transform-group"><g transform="scale(0.1953125, 0.1953125)"><path d="M509.202281 561.629327c102.237499 0 185.41285-83.176374 185.41285-185.413873 0-102.237499-83.175351-185.41285-185.41285-185.41285S323.788407 273.978978 323.788407 376.215454C323.788407 478.452953 406.964782 561.629327 509.202281 561.629327zM509.202281 221.50179c85.308945 0 154.713664 69.40472 154.713664 154.713664 0 85.309968-69.40472 154.714687-154.713664 154.714687-85.309968 0-154.714687-69.40472-154.714687-154.714687C354.487593 290.906509 423.893336 221.50179 509.202281 221.50179zM871.148753 799.669792 746.376005 577.818031c47.948035-56.223512 74.099648-126.900202 74.099648-201.602577 0-83.143629-32.378431-161.311943-91.169419-220.103954C670.514223 97.319489 592.345909 64.942081 509.202281 64.942081c-83.144652 0-161.311943 32.378431-220.103954 91.170442-58.792011 58.792011-91.170442 136.959302-91.170442 220.103954 0 71.983451 24.286126 140.226718 68.953442 195.405435L138.624221 799.671838c-2.969635 4.713348-13.72049 23.679305-5.477758 39.274492 3.419889 6.470365 11.026124 14.266935 27.839045 14.662955l0.598634 0.014326 0.597611-0.032746c29.296233-1.598404 78.5848-0.571005 97.103572-0.095167l67.602677 89.525989 0.573051 0.713244c3.28379 3.848655 9.346879 7.77508 16.836457 7.77508 0.467651 0 0.942465-0.01535 1.420349-0.047072 5.487991-0.36225 13.450337-2.990101 20.215414-13.446243l0.272199-0.436952c11.217483-18.681478 118.896924-219.660862 135.243217-250.186086 2.301416 0.056282 4.608971 0.077771 6.919597 0.083911 16.495696 30.80254 123.990942 231.436046 135.199215 250.101151l0.272199 0.437975c6.766101 10.455119 14.728446 13.081946 20.216437 13.44522 0.478907 0.031722 0.951675 0.047072 1.420349 0.047072 7.487531 0 13.552667-3.927449 16.835434-7.776104l0.296759-0.347924 67.877947-89.89131c18.515702-0.475837 67.795059-1.50426 97.104595 0.095167l0.598634 0.032746 0.598634-0.014326c16.812921-0.396019 24.418133-8.192589 27.839045-14.661931C884.870266 823.350121 874.116341 804.38314 871.148753 799.669792zM509.202281 95.641267c154.709571 0 280.574187 125.865639 280.574187 280.57521S663.911852 656.789641 509.202281 656.789641c-154.709571 0-280.57521-125.864616-280.57521-280.574187S354.49271 95.641267 509.202281 95.641267zM343.942423 914.661779l-69.031213-91.418083-7.342222-0.230244c-2.790556-0.088004-68.269873-2.103918-106.161878-0.124843 0.727571-2.204202 1.978051-4.939499 3.27151-6.979972l0.25992-0.402159 123.597993-219.763193c0.189312 0.190335 0.372483 0.385786 0.561795 0.576121 48.969295 48.969295 111.38688 79.592756 178.920996 88.464821C442.296475 732.785475 364.31338 878.17682 343.942423 914.661779zM742.203986 823.014476l-7.342222 0.230244-69.031213 91.418083c-20.236903-36.245506-97.331769-179.970908-123.562177-228.915643 68.354807-7.172353 131.85812-36.516682 182.03594-84.545558l120.293737 213.889415 0.49528 0.819668c1.172709 1.811252 2.50403 4.657067 3.273557 6.979972C810.474882 820.911582 744.992495 822.927495 742.203986 823.014476z" fill="#ea8010"></path></g></g></svg>