<?xml version="1.0" encoding="utf-8"?>
<!DOCTYPE svg PUBLIC "-//W3C//DTD SVG 1.1//EN" "http://www.w3.org/Graphics/SVG/1.1/DTD/svg11.dtd">
<svg version="1.1" id="图形" xmlns="http://www.w3.org/2000/svg" xmlns:xlink="http://www.w3.org/1999/xlink" x="0px" y="0px" width="1024px" height="1024px" viewBox="0 0 1024 1024" enable-background="new 0 0 1024 1024" xml:space="preserve">
  <path fill="#a9b7b7" d="M493.577 12.216l38.456 0 0-128.075-38.456 0 0 128.075ZM916.096 735.532 916.096 735.532 109.515 735.532c-38.815 0-70.393-31.578-70.393-70.393l0-582.53c0-38.815 31.578-70.393 70.393-70.393l332.897 0 0-128.075L333.564-115.859c-14.129 0-25.582-11.454-25.582-25.583s11.453-25.583 25.582-25.583l358.481 0c14.13 0 25.583 11.454 25.583 25.583s-11.453 25.583-25.583 25.583L583.199-115.859 583.199 12.217l332.896 0c38.815 0 70.393 31.577 70.393 70.393L986.488 665.14C986.488 703.954 954.911 735.532 916.096 735.532zM532.033-115.859l-38.456 0L493.577 12.216l38.456 0L532.033-115.859zM935.322 146.646 90.287 146.646l0 51.163 845.035 0L935.322 146.646z" transform="translate(0, 812) scale(1, -1)"/>
</svg>
