<?xml version="1.0" encoding="utf-8"?>
<!DOCTYPE svg PUBLIC "-//W3C//DTD SVG 1.1//EN" "http://www.w3.org/Graphics/SVG/1.1/DTD/svg11.dtd">
<svg version="1.1" id="图形" xmlns="http://www.w3.org/2000/svg" xmlns:xlink="http://www.w3.org/1999/xlink" x="0px" y="0px" width="1024px" height="1024px" viewBox="0 0 1024 1024" enable-background="new 0 0 1024 1024" xml:space="preserve">
  <path fill="#a9b7b7" d="M175.014 194.994c6.852 0 13.492 0.843 20.006 2.017-12.098 34.733-20.006 71.459-20.006 110.315 0 38.861 7.909 75.582 20.006 110.315-0.365 0.067-0.753 0.050-1.118 0.113 45.764 131.799 170.722 226.567 318.106 226.567 147.38 0 272.337-94.769 318.106-226.567-0.365-0.062-0.758-0.045-1.118-0.113 12.098-34.733 20.006-71.454 20.006-110.315 0-38.856-7.909-75.582-20.006-110.315 6.516-1.174 13.154-2.017 20.006-2.017 62.041 0 112.331 50.291 112.331 112.331 0 47.246-29.24 87.512-70.55 104.109-45.69 166.526-197.742 289.052-378.776 289.052-181.039 0-333.085-122.526-378.777-289.052-41.31-16.598-70.55-56.862-70.55-104.109 0.001-62.040 50.292-112.331 112.332-112.331zM792.837 138.829c0 7.937 1.106 15.569 1.752 23.332v145.166h-1.752c0 155.096-125.733 280.829-280.829 280.829s-280.829-125.733-280.829-280.829v-145.166c0.646-7.763 1.752-15.395 1.752-23.332 0-115.454-69.781-214.435-169.373-257.593 34.199-14.822 71.808-23.236 111.455-23.236 68.129 0 129.755 25.241 178.383 65.59 39.968-40.827 91.64-65.59 158.612-65.59 67.742 0 119.774 24.943 159.837 66.029 48.707-40.619 110.54-66.029 178.911-66.029 39.648 0 77.256 8.414 111.456 23.236-99.588 43.158-169.374 142.139-169.374 257.593zM690.66 80.725c-18.664-19.934-42.068-35.002-68.353-44.168-4.892 26.027-26.678 46.106-54.133 46.106-31.020 0-56.166-25.146-56.166-56.166 0-31.020 25.146-56.166 56.166-56.166 22.854 0 44.528 4.095 65.22 10.492-31.368-38.407-70.987-67.152-121.386-66.658-179.029 1.758-226.724 338.753-226.724 338.753s206.825 85.647 230.538 167.734c0 0-23.348-151.177-63.72-166.975 0 0 156.438 54.11 172.238 115.538 0 0 10.148-122.554 113.703-115.538-0.002 0-12.173-87.169-47.383-172.951zM399.676 251.16c-31.020 0-56.166-25.146-56.166-56.166h112.331c0 31.020-25.146 56.166-56.166 56.166zM624.34 251.16c-31.020 0-56.166-25.146-56.166-56.166h112.331c0 31.020-25.146 56.166-56.166 56.166z" transform="translate(0, 812) scale(1, -1)"/>
</svg>
