<?xml version="1.0" encoding="utf-8"?>
<!DOCTYPE svg PUBLIC "-//W3C//DTD SVG 1.1//EN" "http://www.w3.org/Graphics/SVG/1.1/DTD/svg11.dtd">
<svg version="1.1" id="图形" xmlns="http://www.w3.org/2000/svg" xmlns:xlink="http://www.w3.org/1999/xlink" x="0px" y="0px" width="1024px" height="1024px" viewBox="0 0 1024 1024" enable-background="new 0 0 1024 1024" xml:space="preserve">
  <path fill="#a9b7b7" d="M374.458368 489.343744c-1.798144 0.10752-3.632128 0.144384-5.44768 0.144384l-4.28032-0.034816c-169.870336 0-306.077696-101.450752-310.034432-230.754304-0.090112-1.40288-0.090112-3.00544-0.090112-4.38784 0.1792-74.10176 45.780992-144.497664 122.452992-189.82912-5.321728-9.457664-13.988864-23.215104-25.209856-40.006656-7.570432-11.599872-14.942208-23.124992-20.984832-33.733632l-2.176-4.081664c-4.747264-8.882176-9.20576-17.298432-9.728-28.644352-2.103296-11.255808 7.750656-28.213248 21.039104-31.036416l1.814528-0.449536c2.625536-0.575488 4.980736-0.8448 7.624704-0.8448l0.287744 0 0.269312 0.019456c14.51008 0.917504 25.209856 6.581248 38.766592 13.756416l7.085056 3.687424c16.326656 8.989696 35.620864 20.80256 54.303744 32.223232 9.09824 5.556224 18.143232 11.094016 26.79296 16.273408 13.80864 8.342528 25.64096 15.159296 34.0736 19.545088 4.5312 2.24768 8.361984 4.011008 10.896384 5.000192 0.252928 0.090112 0.449536 0.180224 0.683008 0.251904 13.55776-1.65376 26.989568-2.624512 41.01632-2.966528l9.4208-0.090112c169.9072 0.036864 306.076672 101.505024 310.016 230.844416 0.090112 1.385472 0.090112 2.840576 0.090112 4.422656C681.99424 379.781888 546.286592 485.513984 374.458368 489.343744zM222.282752 38.94656l1.762304 3.308544c4.999168 9.260032 9.710592 17.998848 10.35776 30.514176 0.77312 8.215552-3.902464 22.531072-16.47104 28.37504-69.838848 35.981312-111.466496 93.249536-111.322112 153.182208l0.03584 2.664448c1.060864 99.562496 116.842496 180.56704 258.085888 180.56704 2.80576 0 5.305344-0.034816 7.948288-0.160768 141.29664-3.05664 259.685376-89.493504 258.535424-188.822528l0-3.09248c-1.149952-99.329024-116.895744-180.10112-258.174976-180.10112-2.714624 0-5.501952 0.018432-8.361984 0.090112-12.89216 0.251904-25.947136 1.242112-37.653504 2.697216-1.995776 0.52224-5.106688 0.52224-6.060032 0.503808-14.149632-0.954368-24.20224-6.330368-36.897792-13.126656l-8.216576-4.368384c-15.17568-8.452096-33.067008-19.402752-50.960384-30.355456-7.407616-4.56704-14.852096-9.114624-22.116352-13.503488C209.659904 17.8368 216.654848 28.804864 222.282752 38.94656zM907.838464 248.035072l-1.959936 3.666944c-4.944896 8.684544-11.239424 18.465792-17.728512 28.374016-8.918016 13.432832-15.96928 24.598528-20.482048 32.439296 64.534528 38.64064 102.852608 98.269184 102.998016 161.022976 0 1.150976 0 2.552832-0.055296 3.577856-3.381248 110.226432-119.126016 196.553728-263.515136 196.553728l-3.040256 0c-1.6896 0-3.451904-0.019456-4.909056-0.07168-116.248576-2.588672-216.943616-60.955648-250.622976-145.199104l-4.386816-10.950656 11.687936-1.527808c9.530368-1.258496 18.89792-2.751488 28.123136-4.637696l7.138304-1.492992 3.0208 6.598656c29.57824 64.049152 112.472064 108.444672 206.58688 110.442496 1.995776 0.090112 4.117504 0.106496 6.402048 0.106496 118.622208 0 215.866368-67.808256 216.764416-151.169024l0.055296-2.246656c0.106496-50.097152-34.81088-98.01728-93.073408-128.026624-11.595776-5.41184-15.695872-18.250752-14.957568-25.15456 0.575488-11.131904 4.547584-18.6112 8.757248-26.505216l1.708032-3.2c3.739648-6.708224 8.288256-13.990912 13.1072-21.471232-4.852736 2.930688-9.745408 5.935104-14.671872 8.955904-14.691328 9.007104-29.328384 17.961984-42.07616 25.08288l-6.67136 3.5072c-10.914816 5.843968-19.546112 10.46528-32.403456 11.328512-1.905664 0-3.577856-0.234496-3.813376-0.270336-3.12832-0.376832-6.382592-0.55808-9.62048-0.754688l-15.301632-1.096704 2.014208-13.361152c0.55808-3.41504 1.114112-6.832128 1.348608-10.355712l0.807936-4.24448-0.576512-19.093504 10.215424 0.825344c4.657152 0.360448 9.331712 0.775168 14.05952 1.3312l0-0.070656c2.230272-0.864256 5.357568-2.300928 8.955904-4.13696 7.80288-4.043776 17.980416-9.923584 28.930048-16.561152 7.337984-4.385792 15.050752-9.114624 22.784-13.860864 15.715328-9.604096 31.970304-19.547136 45.996032-27.280384l6.040576-3.145728c11.491328-6.040576 20.571136-10.82368 33.01376-11.63264l0.612352-0.018432c2.37056 0 4.458496 0.249856 5.824512 0.612352l1.85344 0.359424c12.567552 2.788352 21.36064 17.982464 19.616768 26.8288C915.784704 233.074432 911.936512 240.337664 907.838464 248.035072z" transform="translate(0, 812) scale(1, -1)"/>
</svg>
