<?xml version="1.0" standalone="no"?><!DOCTYPE svg PUBLIC "-//W3C//DTD SVG 1.1//EN" "http://www.w3.org/Graphics/SVG/1.1/DTD/svg11.dtd"><svg width="200" height="200" viewBox="0 0 200 200" version="1.1" xmlns="http://www.w3.org/2000/svg" xmlns:xlink="http://www.w3.org/1999/xlink"><defs><style type="text/css"><![CDATA[
@font-face { font-family: ifont; src: url(http://at.alicdn.com/t/font_1442373896_4754455.eot?#iefix) format(embedded-opentype), url(http://at.alicdn.com/t/font_1442373896_4754455.woff) format(woff), url(http://at.alicdn.com/t/font_1442373896_4754455.ttf) format(truetype), url(http://at.alicdn.com/t/font_1442373896_4754455.svg#ifont) format(svg); }

]]></style></defs><g class="transform-group"><g transform="scale(0.1953125, 0.1953125)"><path d="M512 0C229.233371 0 0 229.231543 0 512s229.231543 512 512 512 512-229.231543 512-512S794.768457 0 512 0zM512 1009.375086C237.750857 1009.375086 14.624914 786.249143 14.624914 512S237.750857 14.624914 512 14.624914 1009.375086 237.750857 1009.375086 512 786.250971 1009.375086 512 1009.375086zM591.714743 495.107657c30.178743-23.714743 49.642057-60.410514 49.642057-101.6704 0-71.312457-58.000457-129.322057-129.322057-129.322057-71.303314 0-129.303771 58.0096-129.303771 129.322057 0 41.258057 19.4816 77.955657 49.642057 101.6704-79.482514 31.749486-135.875657 109.392457-135.875657 200.0896l0 43.088457c0 11.927771 9.660343 21.571657 21.553371 21.571657l387.964343 0c11.946057 0 21.571657-9.642057 21.571657-21.571657l0-43.088457C727.5904 604.500114 671.215543 526.857143 591.714743 495.107657zM425.821257 393.437257c0-47.553829 38.661486-86.222629 86.213486-86.222629s86.213486 38.6688 86.213486 86.222629c0 47.544686-38.661486 86.213486-86.213486 86.213486S425.821257 440.981943 425.821257 393.437257zM684.481829 716.750629 339.607771 716.750629l0-21.553371c0-95.089371 77.374171-172.447086 172.463543-172.447086 95.071086 0 172.410514 77.357714 172.410514 172.447086L684.481829 716.750629zM367.751314 502.590171c0.5888-1.294629 0.5888-2.688 0.892343-4.035657 0.195657-0.821029 0.427886-1.598171 0.554057-2.464914 0.160914-1.706057 0.053029-3.320686-0.1792-4.990171-0.0896-0.8832 0.124343-1.722514-0.0896-2.607543-0.124343-0.4992-0.482743-0.866743-0.625371-1.365943-0.340114-0.9728-0.802743-1.839543-1.2672-2.741029-0.892343-1.848686-1.839543-3.536457-3.1616-5.026743-0.213943-0.2048-0.427886-0.356571-0.660114-0.570514-1.9456-2.044343-4.196571-3.598629-6.767543-4.714057-23.303314-10.3936-38.392686-33.554286-38.392686-59.062857 0-30.017829 20.320914-55.866514 49.464686-62.866286 11.589486-2.8032 18.697143-14.445714 15.9104-26.026057-2.8032-11.5712-14.500571-18.607543-26.000457-15.9104-48.570514 11.704686-82.464914 54.813257-82.464914 104.802743 0 27.2768 10.357029 52.847543 27.999086 72.303543C246.875429 516.383086 210.285714 574.517029 210.285714 640.303543l0 33.338514c0 11.911314 9.642057 21.553371 21.535086 21.553371 11.946057 0 21.571657-9.642057 21.571657-21.553371l0-33.338514c0-59.624229 40.071314-110.767543 97.589029-125.249829C358.144 514.044343 364.642743 509.686857 367.751314 502.590171zM721.053257 487.312457c17.6256-19.456 27.999086-45.026743 27.999086-72.303543 0-48.6784-32.786286-91.499886-79.749486-104.098743-11.4816-3.081143-23.3216 3.713829-26.410057 15.204571-3.106743 11.518171 3.713829 23.3216 15.213714 26.4192 28.16 7.553829 47.839086 33.258057 47.839086 62.473143 0 25.508571-15.0528 48.625371-38.357943 59.044571-2.589257 1.133714-4.893257 2.704457-6.875429 4.767086-0.1792 0.195657-0.374857 0.330971-0.535771 0.508343-1.3568 1.499429-2.322286 3.223771-3.232914 5.098057-0.446171 0.910629-0.928914 1.7408-1.232457 2.697143-0.142629 0.482743-0.517486 0.866743-0.643657 1.365943-0.213943 0.8832 0 1.722514-0.0896 2.607543-0.232229 1.669486-0.340114 3.285943-0.160914 4.990171 0.107886 0.866743 0.340114 1.642057 0.535771 2.464914 0.303543 1.347657 0.303543 2.741029 0.892343 4.035657 3.106743 7.098514 9.6256 11.456 16.768 12.463543 57.517714 14.482286 97.589029 65.6256 97.589029 125.249829l0 33.338514c0 11.911314 9.642057 21.553371 21.571657 21.553371 11.893029 0 21.535086-9.642057 21.535086-21.553371l0-33.338514C813.714286 574.517029 777.142857 516.383086 721.053257 487.312457z" fill="#a9b7b7"></path></g></g></svg>