<?xml version="1.0" standalone="no"?><!DOCTYPE svg PUBLIC "-//W3C//DTD SVG 1.1//EN" "http://www.w3.org/Graphics/SVG/1.1/DTD/svg11.dtd"><svg width="200" height="200" viewBox="0 0 200 200" version="1.1" xmlns="http://www.w3.org/2000/svg" xmlns:xlink="http://www.w3.org/1999/xlink"><defs><style type="text/css"><![CDATA[
@font-face { font-family: ifont; src: url("//at.alicdn.com/t/font_1442373896_4754455.eot?#iefix") format("embedded-opentype"), url("//at.alicdn.com/t/font_1442373896_4754455.woff") format("woff"), url("//at.alicdn.com/t/font_1442373896_4754455.ttf") format("truetype"), url("//at.alicdn.com/t/font_1442373896_4754455.svg#ifont") format("svg"); }

]]></style></defs><g class="transform-group"><g transform="scale(0.1953125, 0.1953125)"><path d="M 917.213 903.239 L 106.787 903.239 c -23.1513 0 -41.9177 -18.7664 -41.9177 -41.9167 L 64.8694 162.678 c 0 -23.1482 18.7674 -41.9167 41.9177 -41.9167 l 810.426 0 c 23.1492 0 41.9177 18.7685 41.9177 41.9167 l 0 698.643 C 959.131 884.472 940.362 903.239 917.213 903.239 Z M 316.38 861.321 l 600.833 0 L 917.213 498.027 l -9.78178 0 l 0 0 L 316.38 498.027 L 316.38 861.321 Z M 106.787 861.321 l 167.674 0 L 274.461 498.027 L 106.787 498.027 L 106.787 861.321 Z M 148.705 162.678 c -23.1513 0 -41.9177 18.7685 -41.9177 41.9197 s 18.7674 41.9197 41.9177 41.9197 s 41.9197 -18.7685 41.9197 -41.9197 S 171.856 162.678 148.705 162.678 Z M 274.461 162.678 c -23.1513 0 -41.9177 18.7685 -41.9177 41.9197 s 18.7674 41.9197 41.9177 41.9197 c 23.1513 0 41.9197 -18.7685 41.9197 -41.9197 S 297.611 162.678 274.461 162.678 Z M 400.216 162.678 c -23.1503 0 -41.9177 18.7685 -41.9177 41.9197 s 18.7685 41.9197 41.9177 41.9197 c 23.1523 0 41.9197 -18.7685 41.9197 -41.9197 S 423.368 162.678 400.216 162.678 Z M 875.293 288.434 l -726.588 0 l -41.9177 0 l 0 167.675 l 167.674 0 l 41.9197 0 l 591.051 0 l 0 0 l 9.78178 0 L 917.214 288.434 L 875.293 288.434 Z" fill="#a9b7b7"></path></g></g></svg>