<?xml version="1.0" standalone="no"?><!DOCTYPE svg PUBLIC "-//W3C//DTD SVG 1.1//EN" "http://www.w3.org/Graphics/SVG/1.1/DTD/svg11.dtd"><svg width="200" height="200" viewBox="0 0 200 200" version="1.1" xmlns="http://www.w3.org/2000/svg" xmlns:xlink="http://www.w3.org/1999/xlink"><defs><style type="text/css"><![CDATA[
@font-face { font-family: ifont; src: url("//at.alicdn.com/t/font_1442373896_4754455.eot?#iefix") format("embedded-opentype"), url("//at.alicdn.com/t/font_1442373896_4754455.woff") format("woff"), url("//at.alicdn.com/t/font_1442373896_4754455.ttf") format("truetype"), url("//at.alicdn.com/t/font_1442373896_4754455.svg#ifont") format("svg"); }

]]></style></defs><g class="transform-group"><g transform="scale(0.1953125, 0.1953125)"><path d="M639.04 68.544 639.04 955.456 689.216 955.456 689.216 68.544 639.04 68.544 639.04 68.544ZM309.376 68.544 309.376 955.456 359.552 955.456 359.552 68.544 309.376 68.544 309.376 68.544ZM359.872 955.456 359.872 117.568 359.872 955.456ZM309.12 117.568 309.12 955.456 309.12 117.568ZM689.536 955.456 689.536 117.568 689.536 955.456ZM638.784 117.568 638.784 955.456 638.784 117.568ZM891.712 904.128 132.288 904.128c-41.856 0-76.096-34.24-76.096-76.096L56.192 93.888l-25.344 25.344L891.712 119.232c41.856 0 76.096 34.24 76.096 76.096L967.808 842.624c0 13.952 11.392 25.344 25.344 25.344 13.952 0 25.344-11.392 25.344-25.344L1018.496 195.328c0-70.4-56.448-126.784-126.784-126.784L30.848 68.544c-13.952 0-25.344 11.392-25.344 25.344l0 734.72c0 69.76 57.024 126.784 126.784 126.784L891.712 955.392c13.952 0 25.344-11.392 25.344-25.344C917.12 915.52 905.664 904.128 891.712 904.128L891.712 904.128 891.712 904.128z" fill="#a9b7b7"></path></g></g></svg>