<?xml version="1.0" standalone="no"?><!DOCTYPE svg PUBLIC "-//W3C//DTD SVG 1.1//EN" "http://www.w3.org/Graphics/SVG/1.1/DTD/svg11.dtd"><svg width="234.5703125" height="200" viewBox="0 0 234.5703125 200" version="1.1" xmlns="http://www.w3.org/2000/svg" xmlns:xlink="http://www.w3.org/1999/xlink"><defs><style type="text/css"><![CDATA[
@font-face { font-family: ifont; src: url("//at.alicdn.com/t/font_1442373896_4754455.eot?#iefix") format("embedded-opentype"), url("//at.alicdn.com/t/font_1442373896_4754455.woff") format("woff"), url("//at.alicdn.com/t/font_1442373896_4754455.ttf") format("truetype"), url("//at.alicdn.com/t/font_1442373896_4754455.svg#ifont") format("svg"); }

]]></style></defs><g class="transform-group"><g transform="scale(0.1953125, 0.1953125)"><path d="M813.833333 984.333333c0 10-3 19.166667-8.833333 27.333333-6 8.166667-14.333333 12.333333-25.333333 12.333333l-325-1.333333c-10 0.833333-18-3.166667-23.833333-12.333333-6-9.166667-8.833333-17.666667-8.833333-26 0-7.333333 2.666667-15.5 8.166667-24.5 5.5-9.166667 13.666667-13.666667 24.5-13.666667l101 0 0-86-454.666667 0c-30 0-54.333333-8.5-73-25.333333-18.666667-16.833333-28-39.833333-28-69l0-678.5c0-29.166667 8.833333-51 26.666667-65.5 17.833333-14.5 41.166667-21.833333 70.333333-21.833333l1007.666667 0c29.166667 0 52.333333 8 69.666667 23.833333 17.333333 16 26 37.166667 26 63.5l0 678.5c0 28.166667-8 50.333333-23.833333 66.166667-16 16-39.833333 23.833333-71.666667 23.833333L680.166667 855.833333l0 91.5 98.333333 0c10 0 18.5 3.833333 25.333333 11.666667C810.5 966.833333 813.833333 975.333333 813.833333 984.333333L813.833333 984.333333zM1106.166667 150.166667l-1024 0 0 479.166667 1024 0L1106.166667 150.166667 1106.166667 150.166667zM673.333333 686.833333 557.166667 686.833333l0 103.833333 116 0L673.166667 686.833333 673.333333 686.833333zM673.333333 686.833333" fill="#a9b7b7"></path></g></g></svg>