<?xml version="1.0" encoding="utf-8"?>
<!DOCTYPE svg PUBLIC "-//W3C//DTD SVG 1.1//EN" "http://www.w3.org/Graphics/SVG/1.1/DTD/svg11.dtd">
<svg version="1.1" id="图形" xmlns="http://www.w3.org/2000/svg" xmlns:xlink="http://www.w3.org/1999/xlink" x="0px" y="0px" width="1024px" height="1024px" viewBox="0 0 1024 1024" enable-background="new 0 0 1024 1024" xml:space="preserve">
  <path fill="#a9b7b7" d="M954.71 806.88H159.287296c-36.6182 0-66.2856-29.6684-66.2856-66.2845v-44.19072H26.715135999999998c-12.2132 0-22.0959-9.8816-22.0959-22.0948v-176.761856c0-12.1907 9.8826-22.0969 22.0959-22.0969h66.285568v-66.28352000000001H26.715135999999998c-12.2132 0-22.0959-9.8826-22.0959-22.0948v-176.74035200000003c0-12.2132 9.8826-22.1164 22.0959-22.1164h66.285568v-66.284544H26.715135999999998c-12.2132 0-22.0959-9.8826-22.0959-22.0959v-176.759808c0-12.1907 9.8826-22.0959 22.0959-22.0959h66.285568v-44.189696000000005c0-36.5947 29.6673-66.2856 66.2856-66.2856h795.4237439999999c36.5957 0 66.2856 29.6909 66.2856 66.2856V740.595456C1020.9966 777.2116 991.3068 806.88 954.71 806.88zM954.71-76.9242c0-36.5967-29.6899-66.2856-66.2835-66.2856h-662.8556800000001c-36.6162 0-66.2835 29.6888-66.2835 66.2856V674.309888c0 36.6162 29.6673 66.2845 66.2835 66.2845h662.8556800000001c36.5937 0 66.2835-29.6684 66.2835-66.2845V-76.92415999999992zM679.6636 160.2875c73.6645 41.2682 123.3152 119.0246 123.3152 208.1649 0 132.311-109.4175 239.572-244.4042 239.572S314.1683 500.7634 314.1683 368.4524c0-89.1392 49.6507-166.8966 123.3162-208.1638-80.4178-30.1128-146.1494-89.3379-183.8019-164.521h6.152192c0-14.7149 12.1713-26.625 27.1677-26.625s27.1657 11.9101 27.1657 26.625h1.487872c50.1965 79.8505 140.204 133.0903 242.9184 133.0903 102.699 0 192.7107-53.2398 242.9123-133.0903h1.4919680000000002c0-14.7149 12.1723-26.625 27.1677-26.625s27.1432 11.9101 27.1432 26.625h6.173696C825.813 70.9507 760.0804 130.1757 679.6636 160.2875zM368.4782 368.4524c0 102.9028 85.1005 186.3414 190.0964 186.3414s190.0964-83.4386 190.0964-186.3414c0-102.9243-85.1005-186.3424-190.0964-186.3424S368.4782 265.5281 368.4782 368.4524z" transform="translate(0, 812) scale(1, -1)"/>
</svg>
