<?xml version="1.0" encoding="utf-8"?>
<!DOCTYPE svg PUBLIC "-//W3C//DTD SVG 1.1//EN" "http://www.w3.org/Graphics/SVG/1.1/DTD/svg11.dtd">
<svg version="1.1" id="图形" xmlns="http://www.w3.org/2000/svg" xmlns:xlink="http://www.w3.org/1999/xlink" x="0px" y="0px" width="1024px" height="1024px" viewBox="0 0 1024 1024" enable-background="new 0 0 1024 1024" xml:space="preserve">
  <path fill="#a9b7b7" d="M767.458671 684.934023 255.807618 684.934023c-42.318828 0-76.747965-34.429137-76.747965-76.747965l0-91.074252 0-26.605961 0-1.023306 0-441.044972 0-1.023306 0-26.605961 0-91.074252c0-42.318828 34.429137-76.747965 76.747965-76.747965l511.652076 0c42.318828 0 76.747965 34.429137 76.747965 76.747965l0 91.074252 0 26.605961 0 1.023306 0 441.044972 0 1.023306 0 26.605961 0 91.074252C844.206636 650.504886 809.778522 684.934023 767.458671 684.934023zM793.041326 490.505845l0-1.023306 0-441.044972 0-1.023306 0-26.605961 0-91.074252c0-14.106276-11.476379-25.582655-25.582655-25.582655L255.807618-95.848607c-14.106276 0-25.582655 11.476379-25.582655 25.582655l0 91.074252 0 26.605961 0 1.023306 0 441.044972 0 1.023306 0 26.605961 0 91.074252c0 14.106276 11.476379 25.582655 25.582655 25.582655l511.652076 0c14.106276 0 25.582655-11.476379 25.582655-25.582655l0-91.074252L793.042349 490.505845zM303.108924 567.25381l0-63.444984 0-331.551208 0-63.444984 417.048441 0 0 63.444984 0 331.551208 0 63.444984L303.108924 567.25381zM668.992055 172.257617l0-12.279674-314.717821 0 0 12.279674 0 331.551208 0 12.279674 314.717821 0 0-12.279674L668.992055 172.257617zM511.437693 6.482013m-40.029692 0a39.118 39.118 0 1 0 80.059384 0 39.118 39.118 0 1 0-80.059384 0Z" transform="translate(0, 812) scale(1, -1)"/>
</svg>
