<?xml version="1.0" encoding="utf-8"?>
<!DOCTYPE svg PUBLIC "-//W3C//DTD SVG 1.1//EN" "http://www.w3.org/Graphics/SVG/1.1/DTD/svg11.dtd">
<svg version="1.1" id="图形" xmlns="http://www.w3.org/2000/svg" xmlns:xlink="http://www.w3.org/1999/xlink" x="0px" y="0px" width="1024px" height="1024px" viewBox="0 0 1024 1024" enable-background="new 0 0 1024 1024" xml:space="preserve">
  <path fill="#a9b7b7" d="M210.368 283.104c-71.616 0-129.792 58.24-129.792 129.728 0 17.664 14.336 32 32 32s32-14.336 32-32c0-36.224 29.504-65.728 65.792-65.728s65.792 29.504 65.792 65.728c0 17.664 14.336 32 32 32s32-14.336 32-32C340.16 341.344 281.984 283.104 210.368 283.104zM405.952 283.104c-71.552 0-129.792 58.24-129.792 129.728 0 17.664 14.336 32 32 32s32-14.336 32-32c0-36.224 29.504-65.728 65.792-65.728s65.792 29.504 65.792 65.728c0 17.664 14.336 32 32 32s32-14.336 32-32C535.808 341.344 477.568 283.104 405.952 283.104zM601.536 283.104c-71.552 0-129.792 58.24-129.792 129.728 0 17.664 14.336 32 32 32s32-14.336 32-32c0-36.224 29.504-65.728 65.792-65.728 36.224 0 65.728 29.504 65.728 65.728 0 17.664 14.336 32 32 32s32-14.336 32-32C731.328 341.344 673.152 283.104 601.536 283.104zM797.184 283.104c-71.616 0-129.856 58.24-129.856 129.728 0 17.664 14.336 32 32 32s32-14.336 32-32c0-36.224 29.568-65.728 65.856-65.728 36.224 0 65.728 29.504 65.728 65.728 0 17.664 14.336 32 32 32s32-14.336 32-32C926.912 341.344 868.736 283.104 797.184 283.104zM894.912 382.496c-14.08 0-26.944 9.28-30.784 23.488l-76.8 277.824C783.168 684 776.576 684.128 772.608 684L235.52 684C230.528 684.064 224.064 684 220.16 683.744L143.296 415.968C138.432 398.944 120.768 389.152 103.744 394.016 86.72 398.88 76.928 416.608 81.792 433.568l78.272 272.768C177.216 747.808 208.896 748 234.496 748 234.624 748 234.752 748 234.88 748l537.088 0c0.128 0 0.32 0 0.448 0 26.496 0 61.696-0.192 74.688-40.704l78.656-284.288c4.736-17.024-5.248-34.688-22.336-39.36C900.608 382.816 897.728 382.496 894.912 382.496zM605.888 171.68c37.248 0 83.584-42.176 83.584-42.176s46.208 41.664 83.456 41.664c7.04 0 13.824-1.472 19.84-5.056 129.024-76.16-78.4-252.672-103.296-252.672-24.896 0-232.32 177.024-103.296 253.184C592.192 170.208 598.912 171.68 605.888 171.68M605.888 235.68c-19.008 0-36.608-4.672-52.224-13.888-60.608-35.776-85.76-97.28-67.392-164.48 23.872-87.424 141.632-207.808 203.264-207.808 61.632 0 179.456 120.192 203.264 207.488 18.304 67.136-6.848 128.512-67.456 164.288-15.68 9.28-33.28 13.952-52.416 13.952-30.528 0-60.032-12.608-83.264-26.432C666.368 222.88 636.672 235.68 605.888 235.68L605.888 235.68zM414.528-86.688 257.792-86.688c-70.72 0-128.32 57.536-128.32 128.32L129.472 198.304c0 17.664 14.336 32 32 32s32-14.336 32-32l0-156.672c0-35.456 28.864-64.32 64.32-64.32l156.672 0c17.664 0 32-14.336 32-32S432.192-86.688 414.528-86.688z" transform="translate(0, 812) scale(1, -1)"/>
</svg>
