<?xml version="1.0" encoding="utf-8"?>
<!DOCTYPE svg PUBLIC "-//W3C//DTD SVG 1.1//EN" "http://www.w3.org/Graphics/SVG/1.1/DTD/svg11.dtd">
<svg version="1.1" id="图形" xmlns="http://www.w3.org/2000/svg" xmlns:xlink="http://www.w3.org/1999/xlink" x="0px" y="0px" width="1024px" height="1024px" viewBox="0 0 1024 1024" enable-background="new 0 0 1024 1024" xml:space="preserve">
  <path fill="#a9b7b7" d="M512.106428-80.87252c-6.516687 10.485819-12.541144 20.042475-18.431542 29.679973C430.420652 52.300548 367.045663 155.719966 304.041126 259.364511c-17.589325 28.935006-32.997893 59.033511-43.995827 91.24412-8.380206 24.542976-11.320288 49.672306-11.349965 75.544557-0.051167 45.671179 11.668227 88.125083 34.079573 127.45074 34.751914 60.977793 87.235398 99.556437 154.39371 118.700449 38.338753 10.927887 77.311982 13.229303 116.44076 6.120394 92.356237-16.777105 158.285506-67.64361 196.383772-153.97586 10.084083-22.850427 18.372187-46.243207 24.416087-70.450539 0.496324-1.987261 0.939435-4.070712 0.88929-6.097882-0.493254-19.923772 0.00307-39.952944-1.951527-59.738569-2.313792-23.415292-10.983606-45.295626-20.801618-66.586534-15.293953-33.167401-34.931-63.84919-54.211921-94.752014-16.456478-26.375717-32.403327-53.068659-48.581454-79.618339-0.983439-1.613754-1.829748-3.356444-3.04651-4.77577-21.54457-25.142633-35.819267-54.886051-52.458924-83.108836-26.434132-44.837184-52.452784-89.919962-78.660756-134.8912C514.740529-77.023866 513.743787-78.388956 512.106428-80.87252zM609.815805 426.4786c-0.020467 54.658877-42.611235 98.336656-96.077135 97.597829-55.786856-0.77055-101.015818-35.953863-100.752817-100.32801 0.249697-61.054541 53.925383-94.551446 98.430838-95.033423C565.439293 328.129664 609.836272 372.704882 609.815805 426.4786z" transform="translate(0, 812) scale(1, -1)"/>
</svg>
