<?xml version="1.0" encoding="utf-8"?>
<!DOCTYPE svg PUBLIC "-//W3C//DTD SVG 1.1//EN" "http://www.w3.org/Graphics/SVG/1.1/DTD/svg11.dtd">
<svg version="1.1" id="图形" xmlns="http://www.w3.org/2000/svg" xmlns:xlink="http://www.w3.org/1999/xlink" x="0px" y="0px" width="1024px" height="1024px" viewBox="0 0 1024 1024" enable-background="new 0 0 1024 1024" xml:space="preserve">
  <path fill="#a9b7b7" d="M724.030057 198.729525c0-54.577013-44.23934-98.798167-98.804262-98.798167-54.561852 0-98.800168 44.221154-98.800168 98.798167 0 54.575989 44.238316 98.798167 98.800168 98.798167C679.790717 297.527692 724.030057 253.305515 724.030057 198.729525zM493.490191 429.258922c0-54.577013-44.238316-98.798167-98.800168-98.798167-54.563899 0-98.804262 44.221154-98.804262 98.798167 0 54.575989 44.23934 98.798167 98.804262 98.798167C449.250851 528.057089 493.490191 483.834912 493.490191 429.258922zM262.952371 132.864422c0-54.578036-44.23934-98.798167-98.802215-98.798167-54.562875 0-98.802215 44.220131-98.802215 98.798167 0 54.575989 44.23934 98.798167 98.802215 98.798167C218.713032 231.662589 262.952371 187.440411 262.952371 132.864422zM954.567876 560.990153c0-54.577013-44.238316-98.798167-98.800168-98.798167-54.564922 0-98.805285 44.221154-98.805285 98.798167 0 54.575989 44.23934 98.798167 98.805285 98.798167C910.328537 659.78832 954.567876 615.565119 954.567876 560.990153zM152.107788 169.115683l191.304947 251.377541 38.918427-29.615523-191.304947-251.377541-38.918427 29.615523ZM399.852821 453.372815l227.191154-219.474342-33.979043-35.17088-227.191154 219.474342 33.979043 35.17088ZM645.398794 276.072281l169.098747 266.825816 41.30987-26.177658-169.098747-266.825816-41.30987 26.177658Z" transform="translate(0, 812) scale(1, -1)"/>
</svg>
