<?xml version="1.0" standalone="no"?><!DOCTYPE svg PUBLIC "-//W3C//DTD SVG 1.1//EN" "http://www.w3.org/Graphics/SVG/1.1/DTD/svg11.dtd"><svg width="200" height="200" viewBox="0 0 200 200" version="1.1" xmlns="http://www.w3.org/2000/svg" xmlns:xlink="http://www.w3.org/1999/xlink"><defs><style type="text/css"><![CDATA[
@font-face { font-family: ifont; src: url("//at.alicdn.com/t/font_1442373896_4754455.eot?#iefix") format("embedded-opentype"), url("//at.alicdn.com/t/font_1442373896_4754455.woff") format("woff"), url("//at.alicdn.com/t/font_1442373896_4754455.ttf") format("truetype"), url("//at.alicdn.com/t/font_1442373896_4754455.svg#ifont") format("svg"); }

]]></style></defs><g class="transform-group"><g transform="scale(0.1953125, 0.1953125)"><path d="M512 1024C229.248 1024 0 794.752 0 512 0 229.248 229.248 0 512 0 794.752 0 1024 229.248 1024 512 1024 794.752 794.752 1024 512 1024ZM512 42.666667C252.8 42.666667 42.666667 252.8 42.666667 512 42.666667 771.2 252.8 981.333333 512 981.333333 771.2 981.333333 981.333333 771.2 981.333333 512 981.333333 252.8 771.2 42.666667 512 42.666667ZM746.666667 469.333333C738.261333 469.333333 730.325333 467.498667 722.944 464.554667L725.504 466.048 638.976 613.632C639.146667 615.381333 640 616.874667 640 618.666667 640 653.994667 611.328 682.666667 576 682.666667 540.672 682.666667 512 653.994667 512 618.666667 512 603.562667 518.016 590.293333 526.72 579.370667L484.138667 456.746667C473.728 464.085333 461.696 469.333333 448 469.333333 439.594667 469.333333 431.658667 467.498667 424.277333 464.554667L426.837333 466.048 340.309333 613.632C340.48 615.381333 341.333333 616.874667 341.333333 618.666667 341.333333 653.994667 312.661333 682.666667 277.333333 682.666667 242.005333 682.666667 213.333333 653.994667 213.333333 618.666667 213.333333 583.338667 242.005333 554.666667 277.333333 554.666667 292.48 554.666667 305.792 560.682667 316.757333 569.472L390.058667 444.458667 417.834667 460.757333C397.994667 449.877333 384 429.568 384 405.333333 384 370.005333 412.672 341.333333 448 341.333333 483.328 341.333333 512 370.005333 512 405.333333 512 424.149333 503.552 440.661333 490.624 452.352L523.776 440.832 564.181333 557.056C568.149333 556.288 571.818667 554.666667 576 554.666667 591.146667 554.666667 604.458667 560.682667 615.424 569.472L688.725333 444.458667 716.501333 460.757333C696.661333 449.877333 682.666667 429.568 682.666667 405.333333 682.666667 370.005333 711.338667 341.333333 746.666667 341.333333 781.994667 341.333333 810.666667 370.005333 810.666667 405.333333 810.666667 440.661333 781.994667 469.333333 746.666667 469.333333ZM277.333333 597.333333C265.557333 597.333333 256 606.890667 256 618.666667 256 630.442667 265.557333 640 277.333333 640 289.109333 640 298.666667 630.442667 298.666667 618.666667 298.666667 606.890667 289.109333 597.333333 277.333333 597.333333ZM448 384C436.224 384 426.666667 393.557333 426.666667 405.333333 426.666667 417.109333 436.224 426.666667 448 426.666667 459.776 426.666667 469.333333 417.109333 469.333333 405.333333 469.333333 393.557333 459.776 384 448 384ZM576 597.333333C564.224 597.333333 554.666667 606.890667 554.666667 618.666667 554.666667 630.442667 564.224 640 576 640 587.776 640 597.333333 630.442667 597.333333 618.666667 597.333333 606.890667 587.776 597.333333 576 597.333333ZM746.666667 384C734.890667 384 725.333333 393.557333 725.333333 405.333333 725.333333 417.109333 734.890667 426.666667 746.666667 426.666667 758.442667 426.666667 768 417.109333 768 405.333333 768 393.557333 758.442667 384 746.666667 384Z" fill="#a9b7b7"></path></g></g></svg>