<?xml version="1.0" standalone="no"?><!DOCTYPE svg PUBLIC "-//W3C//DTD SVG 1.1//EN" "http://www.w3.org/Graphics/SVG/1.1/DTD/svg11.dtd"><svg width="200" height="200" viewBox="0 0 200 200" version="1.1" xmlns="http://www.w3.org/2000/svg" xmlns:xlink="http://www.w3.org/1999/xlink"><defs><style type="text/css"><![CDATA[
@font-face { font-family: ifont; src: url(http://at.alicdn.com/t/font_1442373896_4754455.eot?#iefix) format(embedded-opentype), url(http://at.alicdn.com/t/font_1442373896_4754455.woff) format(woff), url(http://at.alicdn.com/t/font_1442373896_4754455.ttf) format(truetype), url(http://at.alicdn.com/t/font_1442373896_4754455.svg#ifont) format(svg); }

]]></style></defs><g class="transform-group"><g transform="scale(0.1953125, 0.1953125)"><path d="M946.734545 825.250909l-162.909091-162.909091c-20.48-20.48-51.665455-24.203636-75.869091-11.170909l-30.72-30.72c47.010909-58.647273 74.938182-133.12 74.938182-214.109091 0-191.301818-154.996364-346.298182-345.832727-346.298182-191.301818 0-346.298182 154.996364-346.298182 346.298182 0 190.836364 154.996364 345.832727 346.298182 345.832727 80.989091 0 155.461818-27.927273 214.109091-74.938182l30.72 30.72c-13.032727 24.203636-9.309091 55.389091 11.170909 75.869091l162.909091 162.909091c25.134545 25.134545 66.094545 25.134545 91.229091 0l30.254545-30.254545C971.869091 891.345455 971.869091 850.385455 946.734545 825.250909zM124.276364 406.341818c0-155.927273 126.138182-282.065455 282.065455-282.065455 155.461818 0 282.065455 126.138182 282.065455 282.065455s-126.603636 281.6-282.065455 281.6C250.414545 687.941818 124.276364 561.803636 124.276364 406.341818zM477.137455 577.489455c-138.007273 0-249.949091-111.895273-249.949091-249.949091 0-3.677091 0.372364-7.261091 0.558545-10.938182C209.547636 346.112 198.842182 380.788364 198.842182 417.931636c0 106.728727 86.528 193.210182 193.210182 193.210182 41.192727 0 79.313455-12.986182 110.685091-34.955636C494.359273 577.070545 485.794909 577.489455 477.137455 577.489455z" fill="#a9b7b7"></path></g></g></svg>