<?xml version="1.0" standalone="no"?><!DOCTYPE svg PUBLIC "-//W3C//DTD SVG 1.1//EN" "http://www.w3.org/Graphics/SVG/1.1/DTD/svg11.dtd"><svg width="200" height="200" viewBox="0 0 200 200" version="1.1" xmlns="http://www.w3.org/2000/svg" xmlns:xlink="http://www.w3.org/1999/xlink"><defs><style type="text/css"><![CDATA[
@font-face { font-family: ifont; src: url(http://at.alicdn.com/t/font_1442373896_4754455.eot?#iefix) format(embedded-opentype), url(http://at.alicdn.com/t/font_1442373896_4754455.woff) format(woff), url(http://at.alicdn.com/t/font_1442373896_4754455.ttf) format(truetype), url(http://at.alicdn.com/t/font_1442373896_4754455.svg#ifont) format(svg); }

]]></style></defs><g class="transform-group"><g transform="scale(0.1953125, 0.1953125)"><path d="M242.736 942.992c-3.312 0-6.624-1.024-9.408-3.056-4.928-3.584-7.392-9.648-6.368-15.648l50.064-291.984L64.896 425.52c-4.368-4.256-5.936-10.608-4.048-16.4 1.888-5.792 6.896-10.016 12.928-10.896l293.184-42.608 131.104-265.648c2.704-5.456 8.272-8.928 14.352-8.928l0 0c6.096 0 11.664 3.456 14.352 8.928l131.088 265.648 293.2 42.608c6.032 0.88 11.024 5.104 12.928 10.896 1.872 5.792 0.32 12.144-4.048 16.4l-212.16 206.784 50.08 291.984c1.024 6-1.44 12.064-6.352 15.648-4.912 3.616-11.488 4.064-16.848 1.216l-262.24-137.824-262.224 137.824C247.84 942.368 245.28 942.992 242.736 942.992zM110.432 425.232l194.96 190.016c3.76 3.664 5.488 8.976 4.608 14.16l-46 268.336 240.976-126.656c4.656-2.464 10.24-2.464 14.896 0l240.976 126.656-46.016-268.336c-0.896-5.184 0.832-10.48 4.592-14.16l194.96-190.016-269.44-39.152c-5.216-0.752-9.712-4.032-12.048-8.752L512.4 133.2l-120.496 244.112c-2.336 4.72-6.832 8-12.048 8.752L110.432 425.232z" fill="#a9b7b7"></path></g></g></svg>