<?xml version="1.0" encoding="utf-8"?>
<!DOCTYPE svg PUBLIC "-//W3C//DTD SVG 1.1//EN" "http://www.w3.org/Graphics/SVG/1.1/DTD/svg11.dtd">
<svg version="1.1" id="图形" xmlns="http://www.w3.org/2000/svg" xmlns:xlink="http://www.w3.org/1999/xlink" x="0px" y="0px" width="1024px" height="1024px" viewBox="0 0 1024 1024" enable-background="new 0 0 1024 1024" xml:space="preserve">
  <path fill="#a9b7b7" d="M302.96426 621.332473 90.601103 621.332473c-14.644112 0-26.531324-15.148002-26.531324-33.82334l0-575.008033c0-18.695804 11.887212-33.833573 26.531324-33.833573l212.363157 0c14.663555 0 26.550767 15.137769 26.550767 33.833573L329.515027 587.509133C329.515027 606.184471 317.627815 621.332473 302.96426 621.332473zM296.326824 113.960887 97.238539 113.960887l0 33.833573 199.088285 0L296.326824 113.960887zM296.326824 215.441139 97.238539 215.441139l0 33.81413 199.088285 0L296.326824 215.441139zM296.326824 316.921391 97.238539 316.921391l0 33.813107 199.088285 0L296.326824 316.921391zM296.326824 486.02888 97.238539 486.02888l0 67.655889 199.088285 0L296.326824 486.02888zM930.068922 215.441139 392.542015 215.441139c-16.489208 0-29.859252-15.137769-29.859252-33.81413l0-169.125909c0-18.695804 13.370043-33.833573 29.859252-33.833573l537.526907 0c16.489208 0 29.860275 15.137769 29.860275 33.833573L959.929197 181.627009C959.929197 200.30337 946.55813 215.441139 930.068922 215.441139zM462.226905 46.33365l-33.18718 0 0 33.81413 33.18718 0L462.226905 46.33365zM528.583868 46.33365l-33.16876 0 0 33.81413 33.16876 0L528.583868 46.33365zM594.959251 46.33365l-33.188203 0 0 33.81413 33.188203 0L594.959251 46.33365zM661.295747 46.33365l-33.16876 0 0 33.81413 33.16876 0L661.295747 46.33365zM727.672153 46.33365l-33.188203 0 0 33.81413 33.188203 0L727.672153 46.33365zM794.029115 46.33365l-33.188203 0 0 33.81413 33.188203 0L794.029115 46.33365zM860.384031 46.33365l-33.188203 0 0 33.81413 33.188203 0L860.384031 46.33365zM926.740994 46.33365l-33.16876 0 0 33.81413 33.16876 0L926.740994 46.33365zM926.740994 113.960887 395.870966 113.960887l0 33.833573 530.870028 0L926.740994 113.960887z" transform="translate(0, 812) scale(1, -1)"/>
</svg>
