<?xml version="1.0" standalone="no"?><!DOCTYPE svg PUBLIC "-//W3C//DTD SVG 1.1//EN" "http://www.w3.org/Graphics/SVG/1.1/DTD/svg11.dtd"><svg width="200" height="200" viewBox="0 0 200 200" version="1.1" xmlns="http://www.w3.org/2000/svg" xmlns:xlink="http://www.w3.org/1999/xlink"><defs><style type="text/css"><![CDATA[
@font-face { font-family: ifont; src: url(http://at.alicdn.com/t/font_1442373896_4754455.eot?#iefix) format(embedded-opentype), url(http://at.alicdn.com/t/font_1442373896_4754455.woff) format(woff), url(http://at.alicdn.com/t/font_1442373896_4754455.ttf) format(truetype), url(http://at.alicdn.com/t/font_1442373896_4754455.svg#ifont) format(svg); }

]]></style></defs><g class="transform-group"><g transform="scale(0.1953125, 0.1953125)"><path d="M790.585391 54.81135c37.07643-2.018983 33.691333 74.717725 16.117073 142.151557-17.574261 67.385736-112.827695 183.077665-112.827695 183.077665s166.679184 29.418007 209.538317 83.551928c42.85504 54.087872-95.582939 470.3893-175.842891 501.026064-80.169901 30.591739-416.065044-101.125165-416.065044-101.125165-48.308239-43.938722-45.440935-300.276924 0-404.317489 120.909767-23.025413 265.643126-143.700843 366.627075-255.869528C731.374848 144.238079 714.364429 58.900481 790.585391 54.81135zM247.784898 343.482959c0 0-113.063055 70.958098-123.400494 137.684826-10.29139 66.633606-20.488637 322.92576 0 366.204449 20.534685 43.280736 123.400494 105.498776 123.400494 105.498776s-23.027459-41.773406-41.11849-104.790648c-18.184151-62.923098-9.070586-302.43917 0-366.159424C215.733924 418.200684 247.784898 343.482959 247.784898 343.482959z" fill="#a9b7b7"></path></g></g></svg>