<?xml version="1.0" encoding="utf-8"?>
<!DOCTYPE svg PUBLIC "-//W3C//DTD SVG 1.1//EN" "http://www.w3.org/Graphics/SVG/1.1/DTD/svg11.dtd">
<svg version="1.1" id="图形" xmlns="http://www.w3.org/2000/svg" xmlns:xlink="http://www.w3.org/1999/xlink" x="0px" y="0px" width="1024px" height="1024px" viewBox="0 0 1024 1024" enable-background="new 0 0 1024 1024" xml:space="preserve">
  <path fill="#a9b7b7" d="M647.178971 346.928457C698.357029 387.1424 731.428571 449.429029 731.428571 519.428571c0 121.000229-98.428343 219.428571-219.428571 219.428571S292.571429 640.4288 292.571429 519.428571c0-69.999543 33.071543-132.286171 84.2496-172.500114C241.929143 293.034971 146.285714 161.2864 146.285714 7.428571l0-73.142857c0-20.214857 16.356571-36.571429 36.571429-36.571429l658.285714 0c20.214857 0 36.571429 16.356571 36.571429 36.571429l0 73.142857C877.714286 161.321143 782.070857 293.034971 647.178971 346.928457zM512 665.714286c80.6784 0 146.285714-65.607314 146.285714-146.285714s-65.607314-146.285714-146.285714-146.285714-146.285714 65.607314-146.285714 146.285714S431.3216 665.714286 512 665.714286zM804.571429-29.142857 219.428571-29.142857l0 36.571429c0 161.322057 131.249371 292.571429 292.608 292.571429C673.3568 300 804.571429 168.750629 804.571429 7.428571L804.571429-29.142857zM238.714514 313.070629c12.143543 1.7152 23.213714 9.106286 28.463543 21.141943 0.963657 2.2144 1.000229 4.571429 1.499429 6.857143 0.356571 1.393371 0.749714 2.7136 0.928914 4.178286 0.285257 2.8928 0.107886 5.642971-0.285257 8.464457-0.1792 1.499429 0.213943 2.929371-0.142629 4.4288-0.213943 0.8576-0.821029 1.499429-1.071543 2.322286-0.535771 1.607314-1.322057 3.035429-2.106514 4.534857-1.499429 3.214629-3.178057 6.142171-5.500343 8.714971-0.250514 0.285257-0.570514 0.4992-0.8576 0.786286-3.357257 3.536457-7.285029 6.213486-11.7504 8.1792C208.393143 400.320914 182.857143 439.5712 182.857143 482.820571c0 51.214629 35.428571 93.999543 82.929371 106.0352 7.714743 27.465143 19.785143 53.070629 35.607771 75.964343C298.428343 664.964571 295.606857 665.714286 292.571429 665.714286c-100.821943 0-182.857143-82.0352-182.857143-182.893714 0-46.2848 17.642057-89.678629 47.572114-122.678857C62.070857 310.821486 0 212.1792 0 100.572343L0 44c0-20.214857 16.356571-36.571429 36.571429-36.571429l73.142857 0 0 73.142857L73.142857 80.571429l0 20.000914C73.142857 201.714286 141.143771 288.500114 238.714514 313.070629zM866.7136 360.143543C896.643657 393.143771 914.285714 436.535771 914.285714 482.820571 914.285714 583.679086 832.250514 665.714286 731.428571 665.714286c-3.035429 0-5.856914-0.749714-8.8576-0.892343 15.857371-22.893714 27.893029-48.4992 35.642514-75.927771 47.5008-12.072229 82.929371-54.857143 82.929371-106.071771 0-43.320686-25.570743-82.607543-65.179429-100.214857-4.320914-1.929143-8.142629-4.571429-11.465143-8-0.356571-0.356571-0.749714-0.607086-1.071543-1.000229-2.249143-2.499657-3.893029-5.392457-5.392457-8.4992-0.786286-1.570743-1.607314-3.000686-2.143086-4.642743-0.250514-0.8576-0.8576-1.464686-1.071543-2.322286-0.356571-1.499429 0.036571-2.929371-0.142629-4.4288-0.393143-2.821486-0.570514-5.571657-0.285257-8.464457 0.1792-1.464686 0.570514-2.784914 0.928914-4.178286 0.4992-2.285714 0.535771-4.642743 1.499429-6.857143 5.249829-12.035657 16.321829-19.428571 28.463543-21.141943C882.856229 288.500114 950.857143 201.714286 950.857143 100.572343L950.857143 80.571429l-36.571429 0 0-73.142857 73.142857 0c20.214857 0 36.571429 16.356571 36.571429 36.571429l0 56.572343C1024 212.1792 961.929143 310.821486 866.7136 360.143543z" transform="translate(0, 812) scale(1, -1)"/>
</svg>
