<?xml version="1.0" encoding="utf-8"?>
<!DOCTYPE svg PUBLIC "-//W3C//DTD SVG 1.1//EN" "http://www.w3.org/Graphics/SVG/1.1/DTD/svg11.dtd">
<svg version="1.1" id="图形" xmlns="http://www.w3.org/2000/svg" xmlns:xlink="http://www.w3.org/1999/xlink" x="0px" y="0px" width="1024px" height="1024px" viewBox="0 0 1024 1024" enable-background="new 0 0 1024 1024" xml:space="preserve">
  <path fill="#a9b7b7" d="M512-158.88c-253.056 0-458.88 205.888-458.88 458.88 0 253.056 205.888 458.88 458.88 458.88 253.056 0 458.944-205.888 458.944-458.88C970.944 47.008 765.056-158.88 512-158.88L512-158.88zM512 737.184C270.976 737.184 74.816 541.024 74.816 300c0-241.024 196.096-437.12 437.184-437.12 241.088 0 437.184 196.096 437.184 437.12C949.184 541.024 753.088 737.184 512 737.184L512 737.184zM520.32-108.32l7.488 9.6L525.44-98.592l3.072 14.208c1.856 4.992 4.736 8.704 7.04 11.648l14.272 3.84-10.816 1.664 1.024 6.336 10.368 11.072-10.624-2.432c-3.968 17.152-0.64 25.856 3.2 36.032 1.152 3.008 2.496 6.4 3.648 10.496 2.816 9.472 3.904 21.504 4.864 33.216 0.768 8.576 1.472 17.088 2.944 25.024 2.432 13.056 3.136 26.624 1.472 30.848-1.216 3.392-8.704 8.64-13.632 12.032-3.712 2.624-7.168 5.056-9.728 7.36-9.216 8.384-14.784 17.152-20.672 26.368l-4.096 6.336c-6.208 9.088-9.408 13.888-11.904 19.008-2.688 5.76-8.128 17.408 2.816 23.296C496.448 176.672 496.32 178.656 496.256 180.768 496.192 185.76 496.128 191.968 498.752 198.944c2.24 5.888 5.696 10.24 8.768 14.08 2.56 3.264 4.736 6.016 5.568 8.832 1.152 3.712 0.256 6.784-0.512 7.04l0.32 5.12L511.936 234.016 509.504 228 503.232 227.168C493.184 228.448 485.376 232.16 476.416 239.008 471.68 242.656 468.672 246.88 466.048 250.656c-2.176 3.072-4.032 5.696-6.4 7.296C452.736 258.784 449.344 258.912 445.376 260.064 438.592 262.112 434.112 266.72 430.592 270.56L425.344 274.528C419.072 273.12 415.808 272.288 411.712 272.288 400.704 273.44 393.216 277.792 385.92 281.952 383.168 283.552 380.608 285.088 378.56 286.048 363.136 292.96 351.296 301.344 343.872 320.16 343.68 320.608 343.552 320.992 343.36 321.376l-1.92-3.776L334.272 317.344c-5.504 0-10.304 3.52-16.64 12.032L308.16 341.856C300.864 351.328 293.504 360.928 287.488 370.848L284.16 377.824C279.68 384.096 277.184 385.568 274.56 387.168 271.04 389.28 267.648 391.392 264.576 394.144 239.936 416.352 239.488 445.728 241.344 465.888c0.256 3.136 0.832 6.144 1.408 9.088 0.768 3.776 1.344 6.72 0.896 9.536C243.136 487.648 241.216 490.72 237.504 494.432L233.344 500.448l6.464 10.176L228.16 508.896c-3.072 5.312-5.504 9.536-9.6 13.056C214.848 525.152 205.312 532.512 196.288 538.72L186.752 545.376l7.296 9.088c43.392 54.144 100.16 96.64 164.288 122.816l12.992 5.312 1.92-13.888c3.648-7.104 3.776-7.232 10.24-8.384l9.856-1.728L395.52 652.704c2.56 1.344 4.992 1.984 7.104 2.176l2.176 2.752c1.408 1.728 2.88 3.52 4.48 5.184C407.488 666.144 406.784 669.984 407.36 673.952 408.896 685.088 419.84 694.112 425.408 697.312L428.16 692.512 427.136 698.592c46.4 9.92 94.72 11.328 140.352 5.12l33.792-4.672-3.712-1.92c83.2-17.536 153.792-57.792 209.6-116.544l17.472-18.368L799.36 562.208c-16.512-0.448-24.192-0.704-33.536-7.168-7.104-5.76-11.456-9.408-17.984-11.264-4.032-1.152-7.616-1.28-10.88-1.344-10.368-2.112-13.824-9.792-17.152-17.344-5.376-12.032-12.736-28.48-31.168-28.48l-7.808 1.024c-9.152 2.24-16.256 8.256-22.08 15.04 0.128-1.536 0.064-3.072-0.32-4.672 0-0.128-0.064-0.32-0.128-0.448 1.216-1.216 2.176-2.496 3.008-3.52 1.856-2.368 18.944-21.568 14.08-32.512l-2.88-6.464-7.616-0.32c-19.52 3.2-27.2 1.984-35.84-3.776l-5.76-4.096C617.984 452.832 612.032 448.352 604.608 445.6c-3.648-1.28-11.2-1.728-14.528-1.728L579.648 446.624C577.344 445.472 575.936 443.808 573.376 440.288 571.072 437.216 568.704 434.08 565.312 431.008l-8.32-4.736c-4.544-6.784-5.76-10.176-8.192-13.184l-5.76-4.096 0.064-9.152C540.672 392.544 533.696 387.872 527.552 383.776L522.24 379.872l0 0L518.592 376.608C517.312 375.52 516.096 374.496 515.136 373.536c4.288-18.432 5.376-25.344 3.584-30.528l-2.56-7.296L504.576 331.232c-9.984 0-15.424 9.984-20.288 18.752-7.424 11.968-17.472 8.96-31.168 5.952C447.936 354.784 442.816 353.696 438.336 353.248 430.4 352.544 421.824 346.08 417.408 337.504 415.232 333.344 412.352 325.024 417.216 316.704c3.136-5.312 7.552-8 13.376-8C436.864 309.6 439.232 312.48 441.344 314.976c4.288 5.12 10.176 12.096 20.288 12.416 0 0 0.064 0 0.064 0 11.008 0 15.616-4.416 17.728-8.192 5.056-8.96-0.64-18.432-5.312-26.048l1.344-0.128C485.632 293.408 489.152 292.448 492.16 290.4L495.36 288.288l3.52-8.32L493.952 276.96l9.088-27.968c0.064 0 0.192-0.064 0.256-0.064l3.456 0.64 2.624 6.08 8 0.448 6.592-0.96c4.288 0.448 7.488 4.416 14.72 8.832 4.352 2.624 8.448 3.968 12.48 3.968l10.304-2.944c2.496 1.472 6.784 4.352 13.12 4.352 9.856-1.792 13.184-4.032 15.616-5.568l11.2-1.344c17.344-1.792 28.8-10.304 38.976-17.856 7.168-5.312 9.792-5.76 14.912-6.656 3.008-0.576 6.272-1.152 9.984-2.24 10.56-3.008 29.76-17.28 28.672-33.792-0.064-0.256-0.064-0.512-0.128-0.768l26.88 1.664-8.064-8.832c0.256-0.128 0.448-0.256 0.704-0.384 0 0 0.064-0.064 0.128-0.064l1.408-0.192-0.576-0.256c8.064-3.712 12.672-4.352 17.472-5.056 3.968-0.576 7.872-1.152 11.584-2.048 4.032-0.96 25.472-6.272 34.112-15.808 10.368-11.392 5.888-27.776-1.728-39.232-3.328-4.928-7.104-8.384-10.432-11.52-4.224-3.968-6.72-6.336-8.128-10.112-1.088-3.072-1.152-6.784-1.152-11.136 0-4.672-0.064-9.408-1.024-14.4-1.856-10.432-4.416-14.656-11.264-18.88l-12.032 4.48 6.272-9.216c-1.344-5.632-5.952-8.064-11.712-10.56-3.328-1.472-6.592-2.432-9.6-3.328-6.08-1.664-8.128-2.432-10.496-6.272L705.92 40.16c-0.64-1.664-1.344-4.032-1.728-5.376l-2.368-6.656c-3.456-7.104-8.192-12.032-12.736-16.768l-6.464-7.744c-16.256-21.056-19.072-24.064-25.6-24.064L652.8-20.448c-5.312-20.672-18.304-25.664-33.344-26.944-2.944-5.568-8.32-8-10.688-9.088L605.44-62.88c-0.832-3.136-1.6-6.144-2.496-8.192-0.64-1.344-2.56-4.416-4.8-7.744-0.512-0.768-1.088-1.472-1.536-2.24l10.816-11.392-16.256-7.296c-14.976-3.008-30.272-5.056-45.952-6.4L520.32-108.32 520.32-108.32zM515.52 164.192c2.88-5.824 5.056-8.96 7.232-12.096l7.488-11.328c5.312-8.32 9.856-15.488 16.96-21.952 1.984-1.792 4.672-3.712 7.552-5.696 8.448-5.888 17.984-12.544 21.632-22.4 4.48-12.288 0.704-35.456-0.576-42.24-1.28-7.168-1.92-15.04-2.624-22.976-1.088-12.736-2.24-25.92-5.696-37.568-1.408-4.672-2.88-8.576-4.16-12.032-3.328-8.704-4.8-12.672-2.304-23.36 3.264-9.216 2.112-12.608-0.256-20.096-0.064-1.92-0.192-4.352-1.344-7.616s-2.88-5.888-4.48-8.128c6.08 0.704 12.032 1.408 17.92 2.432 0.128 3.84 2.304 7.104 7.296 14.464l4.16 8.896c1.28 5.056 2.56 10.24 5.632 14.016 3.072 3.968 7.104 5.76 9.792 6.976L597.76-24.032l12.416-1.856c15.936 0.192 19.456 1.6 21.44 10.048l-0.192 0.512c-1.152 1.472-1.728 3.072-1.984 4.096l-0.128 0.256c-0.064 0.32-0.128 0.576-0.128 0.768l12.16 2.176-1.472-0.256 4.032 9.536 10.496 1.024c0.64 0 1.28-0.064 1.792-0.128-0.384 2.432 5.184 9.728 9.152 14.848 2.752 3.52 4.864 6.208 5.504 6.912 6.528 6.72 9.408 9.728 11.456 13.952 2.24 7.232 3.84 12.288 6.528 16.256l0.512-0.32c6.72 9.216 14.848 11.52 21.504 13.376 2.176 0.64 4.416 1.28 6.784 2.24 0.704 0.192 2.048 3.392 6.656 7.744 3.648 3.392 6.4 5.056 8.192 6.208 1.92 8 1.856 11.392 1.856 14.656 0 5.568 0 11.904 2.368 18.432 3.328 9.088 9.152 14.528 13.888 18.816 2.816 2.624 5.184 4.864 7.104 7.616 3.904 5.824 4.8 11.328 3.712 12.48-2.048 2.304-12.608 6.848-23.04 9.28-3.2 0.832-6.4 1.28-9.6 1.728-6.144 0.896-12.48 1.792-18.624 4.288-2.624 1.088-5.184 2.496-7.616 3.904l-4.48-14.464-12.224 10.112c-3.264 2.048-5.76 3.776-7.744 5.504l-7.296-0.448-8.256 8.448 6.336 22.08 1.92-1.344c-1.216 3.712-7.552 9.024-11.328 10.112-3.008 0.832-5.568 1.28-7.872 1.664C645.504 217.44 638.72 218.656 630.656 224.608c-12.032 8.896-20.224 14.976-29.568 16L594.56 239.712C585.28 240.864 581.12 243.616 578.112 245.6L575.36 243.744 562.304 242.656c-5.056 0-8.768 1.856-10.88 3.008C546.048 242.976 544.704 241.312 543.36 239.648L540.096 235.488 534.208 233.76C535.936 227.872 535.744 221.28 533.888 215.328 531.904 208.736 528 203.872 524.608 199.584 522.24 196.512 520.128 193.952 519.104 191.264c-1.152-3.136-1.152-6.272-1.088-10.24 0.064-3.264 0.064-6.528-0.384-9.856L515.52 164.192 515.52 164.192zM308.736 386.4c16.512-3.264 22.656-11.968 28.032-19.648l11.008-13.76c6.208-7.04 12.032-13.696 16.384-24.896 4.224-10.688 10.112-16.32 23.296-22.272 2.688-1.216 5.952-3.072 9.408-5.056 2.816-1.664 7.04-4.096 10.304-5.504C403.776 298.08 400.896 301.6 398.464 305.696 391.04 318.368 390.912 333.536 398.08 347.424c7.872 15.296 22.848 26.112 38.272 27.52 3.712 0.32 7.808 1.28 12.032 2.24 14.592 3.328 33.152 5.12 44.288-3.328L492.288 375.264l0.064 0-0.64 3.2 2.432 3.776c3.008 4.672 6.848 7.936 10.24 10.816L517.248 385.12 507.328 395.68l2.688-2.176L507.712 396c0.064 0.064 0.128 0.128 0.192 0.192l7.872-7.488L507.968 396.256c0.064 0.064 0.064 0.064 0.128 0.128l0 0 0 0c0 0 0.064 0.064 0.064 0.064l2.816-2.624L508.16 396.448C508.416 396.64 508.672 396.896 508.864 397.088L508.8 397.152l0.064-0.064c1.92 1.6 4.16 3.2 6.592 4.736 2.24 1.472 6.4 4.288 7.296 5.568-1.6-0.768-4.8 6.336-0.768 13.44l2.432 4.288 9.92 3.84c-0.448 3.264 0.896 7.04 3.776 10.432 3.072 3.968 7.68 5.76 10.688 6.976C552.96 449.184 554.432 451.296 555.968 453.28c3.136 4.224 7.04 9.536 14.464 12.992 0.64 0.512 1.344 1.024 1.92 1.536C572.16 467.744 572.032 467.744 571.968 467.68L555.2 461.536 557.376 479.2c3.52 27.776 28.48 27.776 36.736 27.776l17.216-0.512c4.032 0 6.912 0.32 8.896 0.96 4.16 1.344 10.048 3.776 14.208 5.824-2.048 1.984-4.992 4.544-8.96 7.68-11.52 9.6-17.152 14.784-22.464 27.456C600.512 554.336 598.72 558.56 597.76 559.648c2.304-3.84-0.256-12.928-11.84-14.464C575.104 544.096 568.768 551.712 564.992 555.744 562.56 558.304 560.96 560.544 559.232 563.04 557.952 564.96 555.52 568.608 554.24 569.248 551.744 569.44 548.48 570.528 544.768 571.808 540.096 573.344 534.272 575.264 530.368 575.264c0.064-0.64 3.456-10.432 4.544-13.632l2.752-8.448C542.08 540 541.184 533.408 527.232 523.104l-1.28-0.896C531.392 511.584 528.384 505.312 524.8 501.216 521.216 497.248 515.84 495.072 509.568 495.072L499.072 497.312C485.824 503.456 487.68 514.72 488.256 518.432c-0.64 1.088-9.152 3.712-13.76 5.184S465.728 526.368 463.168 527.52c-2.56 1.152-6.016 2.368-9.792 3.648-14.912 5.184-33.408 11.648-39.232 26.24-1.92 4.8-3.136 12.48 1.856 22.016 5.376 10.304 22.848 21.824 24.832 23.104 2.816 1.792 5.824 3.072 8.768 4.352 2.944 1.216 5.504 2.304 6.784 3.712 1.28 5.888 2.496 10.496 6.336 13.696 4.672 3.84 10.752 4.288 15.552 4.288l9.024-0.384c1.536 0.512 2.176 1.792 3.264 8.576 1.344 8 2.816 28.544 32 22.912 1.28-0.256 2.432-0.576 3.648-0.96L522.368 678.944c5.568 2.176 10.688 4.096 15.104 5.952C526.848 685.6 515.968 685.984 505.344 685.728l-1.664-4.48C499.264 669.6 484.864 668.64 472.192 667.872c-2.56-0.128-6.016-0.384-8.384-0.704l1.536-21.888L453.504 644.064 451.904 646.432 447.232 647.264 444.992 645.28 440.128 618.72 436.672 627.168c-0.768-1.6-1.792-3.2-3.2-4.928C427.84 615.456 422.144 614.048 418.432 614.048L410.176 614.048 407.68 618.784C407.296 618.528 406.912 618.272 406.592 618.08L398.208 616.096c-4.992 0-11.136 1.536-16.064 2.752C368.704 621.216 363.584 620.64 356.416 620.512L352.448 615.136 345.536 614.368c-6.016 0-11.648 3.52-18.304 8.128L316.608 629.856 318.4 633.44c-37.76-22.016-71.68-50.368-100.096-83.776 6.272-4.608 11.712-8.96 14.4-11.264 6.912-5.888 10.816-12.672 14.336-18.688l-4.48-13.504 9.216 5.824c8.192-9.344 12.224-16.512 13.376-24.256 1.088-6.528 0-12.16-1.024-17.216C263.68 468.576 263.168 466.336 262.976 463.968 260.736 438.944 265.728 422.432 279.168 410.336c1.984-1.792 4.288-3.136 6.592-4.48 3.328-2.048 7.104-4.288 10.624-7.616 4.8-4.608 6.592-8.768 7.872-11.904L308.736 386.4 308.736 386.4zM659.392 562.528l-3.52-6.272C655.36 553.888 658.24 550.24 659.84 548.256c1.728-2.176 3.456-4.352 4.864-6.592 6.464-9.792 13.952-21.184 21.312-22.976 8.576-0.128 9.088 4.288 13.952 15.232 4.736 10.688 10.688 23.936 24 28.416 4.48 1.472 8.832 1.664 12.288 1.728 7.616 1.088 9.28 2.368 11.904 4.672l5.312 4.16c7.36 5.12 14.4 7.68 21.44 9.088-52.608 49.216-117.056 82.368-187.776 96.384-0.768-0.704-1.92-1.472-3.392-2.368l2.752-4.672C584.96 666.656 581.824 661.408 575.68 657.952l71.872-45.888 1.536 0.064c6.208-1.472 18.688-10.112 18.752-20.48l0.064-4.416c0.128-0.256 0.32-0.576 0.448-0.896l2.432-4.864-2.816-11.2C666.048 566.304 662.72 564.064 659.392 562.528L659.392 562.528zM478.336 606.752C476.736 603.552 475.584 599.136 472.32 595.744 467.904 590.88 462.464 588.64 458.048 586.784 445.44 579.552 436.8 572.064 435.328 569.312c1.216-9.216 16.832-14.656 25.28-17.536 4.48-1.536 8.576-3.008 11.712-4.416C474.24 546.4 477.44 545.44 480.96 544.352 492.032 540.896 499.648 538.272 504.32 533.984c1.6 2.624 4.288 4.8 8.768 6.08l6.016 4.48-3.84 7.168C510.592 565.664 504.256 584.096 516.48 592.928c3.52 2.624 7.936 3.968 12.992 4.096l-8.32 16.064C529.152 615.968 532.48 617.056 533.824 618.08 535.36 619.36 541.184 625.12 542.4 626.784L531.2 630.24C526.976 633.504 521.792 637.6 518.336 638.304l-6.208-5.12c-0.32-1.856-0.704-4.16-1.28-6.592l15.808-1.024L503.616 613.152C500.544 610.144 496.32 607.712 490.496 606.56L489.344 612l0.064-5.696L488.256 614.368 488 606.304 478.336 606.752 478.336 606.752zM603.136 580.192c10.88-1.472 15.296-12.352 18.688-20.416 0.64-1.472 1.28-2.88 1.792-4.096L627.264 566.24c2.816 6.208 7.68 9.728 12.352 12.032C638.976 578.336 638.528 578.464 638.08 578.528L618.304 581.984 624 591.52 619.392 597.344C618.368 599.968 618.368 602.4 618.88 604.576L617.664 605.344C615.616 602.912 613.12 600.8 610.368 599.136L611.2 595.424 607.296 585.696C606.464 584.672 604.992 583.264 602.88 582.176L603.136 580.192 603.136 580.192zM556.544 609.824C559.616 608.48 562.816 606.752 566.4 604.384c1.152-0.768 2.176-1.408 3.136-2.048l0.256 2.752 3.52 0.64C573.184 605.856 573.056 606.048 572.992 606.24 571.008 610.976 571.328 616.416 573.888 622.432l1.344 2.944c-5.376 5.12-8.448 11.584-6.464 19.968l2.56 10.688C563.136 653.152 549.12 654.368 537.216 656.416 533.952 656.992 530.944 657.568 528.448 657.824c6.08-2.56 11.392-6.72 16.256-10.56l5.44-4.096c9.984-6.336 16.128-11.456 12.096-24.896C561.472 615.84 559.104 612.768 556.544 609.824L556.544 609.824zM902.976 184.672l-10.432 2.624c-9.216 2.368-16.192 8.256-22.4 13.376-12.48 10.944-20.608 19.968-25.728 28.032-6.464 10.048-5.248 20.096-4.224 28.224l0.704 7.232c0.128 2.752-0.384 5.76-0.768 8.896-1.088 7.936-2.176 16.96 1.6 24.96l6.912 8.192c3.776 9.024 4.992 13.184 8.64 17.792 3.968 5.056 8.512 7.744 12.096 9.92l11.52 15.488c1.984 3.84 5.952 9.216 10.432 13.824-8.448 0.448-13.824 5.248-17.408 8.384-5.12 4.48-9.088 8.832-11.584 12.864-4.032 6.208-3.2 12.352-2.688 16.448-0.576 8.896-1.28 14.208 1.216 19.328l7.488 12.48c2.368 3.008 5.056 4.608 6.784 5.696l11.712 20.864 8.896-22.208c6.848-19.136 12.224-38.72 16.064-58.176l0.384 0.256 2.688-17.472C918.016 341.344 919.552 320.608 919.552 300c0-35.328-4.608-70.656-13.824-104.96L902.976 184.672 902.976 184.672zM896.512 331.424c-1.984-4.032-4.032-7.104-7.488-10.24-2.624-2.432-5.568-4.16-8.448-5.952-3.008-1.792-4.736-2.816-6.144-4.544-2.944-7.616-3.904-10.816-6.08-14.72l-6.016-6.656c-2.048-2.816-1.28-8.96-0.704-13.376s1.088-8.768 0.96-12.544c-0.128-3.072-0.448-6.08-0.832-9.088-0.896-6.784-1.216-10.56 0.96-13.952 4.032-6.4 11.008-13.952 20.224-22.08 1.792-1.536 3.52-2.944 5.056-4.16C894.592 242.4 897.792 271.2 897.792 300 897.792 310.496 897.344 320.992 896.512 331.424L896.512 331.424zM881.152 412.128l-1.92-3.072 2.496-6.464-11.2-2.944 10.496-4.224c1.088-1.344 3.456-3.968 6.464-6.656C885.568 396.576 883.52 404.384 881.152 412.128L881.152 412.128z" transform="translate(0, 812) scale(1, -1)"/>
</svg>
