<?xml version="1.0" encoding="utf-8"?>
<!DOCTYPE svg PUBLIC "-//W3C//DTD SVG 1.1//EN" "http://www.w3.org/Graphics/SVG/1.1/DTD/svg11.dtd">
<svg version="1.1" id="图形" xmlns="http://www.w3.org/2000/svg" xmlns:xlink="http://www.w3.org/1999/xlink" x="0px" y="0px" width="1024px" height="1024px" viewBox="0 0 1024 1024" enable-background="new 0 0 1024 1024" xml:space="preserve">
  <path fill="#a9b7b7" d="M510.272 681.44c-159.168 0-288.192-126.4-288.192-282.304s129.024-282.304 288.192-282.304 288.192 126.4 288.192 282.304C798.4 555.04 669.44 681.44 510.272 681.44L510.272 681.44zM177.472 290.72 177.472 551.392c-3.648 0-7.296-0.128-10.816-0.448 59.072 128.256 190.592 217.6 343.616 217.6s284.608-89.344 343.616-217.6c-3.584 0.256-7.168 0.448-10.816 0.448l0-260.672c73.472 0 133.12 58.368 133.12 130.304 0 48.896-27.52 91.456-68.16 113.792C850.816 696.16 694.592 812 510.272 812s-340.48-115.84-397.76-277.184C71.872 512.544 44.352 469.92 44.352 421.088 44.352 349.088 103.936 290.72 177.472 290.72L177.472 290.72zM797.824 141.28c-75.328-68.864-176.384-111.04-287.552-111.04-110.976 0-211.904 41.984-287.168 110.656C88.448 73.056 0-47.84 0-212l1024 0C1024-47.52 933.952 73.504 797.824 141.28L797.824 141.28z" transform="translate(0, 812) scale(1, -1)"/>
</svg>
