<?xml version="1.0" encoding="utf-8"?>
<!DOCTYPE svg PUBLIC "-//W3C//DTD SVG 1.1//EN" "http://www.w3.org/Graphics/SVG/1.1/DTD/svg11.dtd">
<svg version="1.1" id="图形" xmlns="http://www.w3.org/2000/svg" xmlns:xlink="http://www.w3.org/1999/xlink" x="0px" y="0px" width="1024px" height="1024px" viewBox="0 0 1024 1024" enable-background="new 0 0 1024 1024" xml:space="preserve">
  <path fill="#a9b7b7" d="M512 801.761024c-277.095424 0-501.76-224.664576-501.76-501.76 0-277.134336 224.664576-501.76 501.76-501.76s501.76 224.625664 501.76 501.76C1013.76 577.095424 789.0944 801.761024 512 801.761024zM512 644.348672c94.157824 0 170.441728-76.317696 170.441728-170.436608 0-94.124032-76.283904-170.441728-170.441728-170.441728-94.158848 0-170.441728 76.317696-170.441728 170.441728C341.558272 568.030976 417.841152 644.348672 512 644.348672zM827.481088 80.117504 196.517888 80.117504c0 0.078848 0 0.11776 0 0.156672 0 107.721728 53.988352 202.698752 136.38656 259.621888 40.914944-54.634496 105.59488-90.448896 179.094528-90.448896s138.179584 35.8144 179.094528 90.448896c82.408448-56.923136 136.38656-151.90016 136.38656-259.621888C827.481088 80.235264 827.481088 80.196352 827.481088 80.117504z" transform="translate(0, 812) scale(1, -1)"/>
</svg>
