<?xml version="1.0" encoding="utf-8"?>
<!DOCTYPE svg PUBLIC "-//W3C//DTD SVG 1.1//EN" "http://www.w3.org/Graphics/SVG/1.1/DTD/svg11.dtd">
<svg version="1.1" id="图形" xmlns="http://www.w3.org/2000/svg" xmlns:xlink="http://www.w3.org/1999/xlink" x="0px" y="0px" width="1024px" height="1024px" viewBox="0 0 1024 1024" enable-background="new 0 0 1024 1024" xml:space="preserve">
  <path fill="#a9b7b7" d="M631.808 539.616q0-53.248-18.944-100.352t-50.688-82.432-73.216-55.808-87.552-20.48-88.064 19.456-73.728 54.784-50.688 83.968-18.944 107.008q0 46.08 18.432 87.552t49.664 73.216 72.192 50.688 87.04 18.944 88.064-19.968 74.752-52.736 52.224-75.264 19.456-88.576zM360.448 208.864l-1.024-363.52 36.864 48.128 38.912-48.128 0 363.52-74.752 0zM604.16 727.008q21.504-25.6 38.912-55.296 14.336-25.6 26.624-58.368t12.288-68.608q-2.048-62.464-13.824-104.448t-26.112-67.584q-17.408-29.696-37.888-47.104 29.696 3.072 59.392 9.216 25.6 5.12 55.296 13.312t56.32 22.528q23.552 12.288 44.544 32.256t35.84 47.616 20.992 61.952 0 76.288q-6.144 43.008-35.84 76.8t-70.656 53.76-85.504 23.552-80.384-15.872zM605.184 268.256l-1.024-347.136 35.84 47.104 38.912-47.104 0 347.136-73.728 0z" transform="translate(0, 812) scale(1, -1)"/>
</svg>
