<?xml version="1.0" standalone="no"?><!DOCTYPE svg PUBLIC "-//W3C//DTD SVG 1.1//EN" "http://www.w3.org/Graphics/SVG/1.1/DTD/svg11.dtd"><svg width="200" height="200" viewBox="0 0 200 200" version="1.1" xmlns="http://www.w3.org/2000/svg" xmlns:xlink="http://www.w3.org/1999/xlink"><defs><style type="text/css"><![CDATA[
@font-face { font-family: ifont; src: url(http://at.alicdn.com/t/font_1442373896_4754455.eot?#iefix) format(embedded-opentype), url(http://at.alicdn.com/t/font_1442373896_4754455.woff) format(woff), url(http://at.alicdn.com/t/font_1442373896_4754455.ttf) format(truetype), url(http://at.alicdn.com/t/font_1442373896_4754455.svg#ifont) format(svg); }

]]></style></defs><g class="transform-group"><g transform="scale(0.1953125, 0.1953125)"><path d="M517.89824 584.52992c-1.8944 0.73216-3.80928 1.42336-5.74464 2.0736 0.67072-0.22528 1.34144-0.44032 2.00704-0.67584C515.41504 585.48224 516.6592 585.00608 517.89824 584.52992zM483.00032 593.13152c-1.91488 0.22528-3.84512 0.40448-5.7856 0.55296 1.0752-0.08192 2.15552-0.13824 3.2256-0.24576C481.30048 593.3568 482.14528 593.2288 483.00032 593.13152zM484.02432 593.00864c0.5376-0.06656 1.08032-0.12288 1.6128-0.19456 0.08192-0.01024 0.15872-0.0256 0.23552-0.03584C485.26336 592.85504 484.64384 592.93184 484.02432 593.00864zM517.92384 584.51968c0.49664-0.19456 1.00864-0.36352 1.50528-0.5632 0.2048-0.08192 0.39936-0.1792 0.60416-0.26112C519.33184 583.97696 518.62528 584.24832 517.92384 584.51968zM526.68928 580.80768c-0.15872 0.07168-0.31744 0.13824-0.47616 0.21504 0.10752-0.0512 0.22016-0.09216 0.3328-0.14336C526.592 580.85376 526.63808 580.83328 526.68928 580.80768zM466.16576 562.67264c61.33248 0 111.04768-49.31584 111.04768-110.15168 0-60.83584-49.72032-110.15168-111.04768-110.15168-61.33248 0-111.04768 49.31584-111.04768 110.15168C355.11808 513.3568 404.83328 562.67264 466.16576 562.67264zM476.50304 593.73568c0.2048-0.01536 0.41472-0.03072 0.61952-0.04608 0.03072 0 0.06144-0.00512 0.09216-0.01024C476.9792 593.69984 476.73856 593.72032 476.50304 593.73568zM396.55424 576.15872c-5.00736-2.78016-9.8304-5.84704-14.44352-9.18528C386.72384 570.3168 391.54688 573.37856 396.55424 576.15872zM511.44704 586.83904c0.1536-0.0512 0.30208-0.09728 0.45568-0.14848 0.08192-0.03072 0.16384-0.06144 0.25088-0.09216C511.91808 586.68032 511.68256 586.76224 511.44704 586.83904zM534.98368 576.64512c-0.0768 0.04096-0.15872 0.0768-0.24064 0.12288-0.67072 0.36352-1.35168 0.70656-2.03264 1.06496 0.29696-0.1536 0.5888-0.32256 0.88064-0.48128-1.5872 0.8448-3.18976 1.65376-4.8128 2.44224 0.5376-0.26112 1.0752-0.512 1.60768-0.77824-0.9728 0.4864-1.94048 0.98304-2.92864 1.44896-0.30208 0.14336-0.6144 0.27648-0.9216 0.41984-0.76288 0.35328-1.536 0.68608-2.304 1.02912 0.66048-0.29184 1.32096-0.58368 1.9712-0.88576-2.03776 0.93696-4.096 1.82784-6.18496 2.67264 0.15872-0.06144 0.31744-0.12288 0.47104-0.18432-0.3584 0.14848-0.7168 0.30208-1.0752 0.44544-0.50176 0.19968-1.00864 0.37376-1.51552 0.56832-1.24416 0.48128-2.48832 0.95744-3.75296 1.40288-0.74752 0.26624-1.50528 0.512-2.25792 0.76288-0.6144 0.2048-1.2288 0.41472-1.84832 0.6144-0.7936 0.25088-1.58208 0.50688-2.3808 0.74752 0.57856-0.17408 1.14688-0.37376 1.72544-0.55296-1.82784 0.57344-3.67104 1.11104-5.5296 1.61792 0.32256-0.08704 0.65024-0.17408 0.9728-0.26112-0.68096 0.18944-1.36192 0.39424-2.048 0.57856-0.19968 0.0512-0.39424 0.11776-0.59392 0.16896-0.384 0.09728-0.77312 0.18432-1.15712 0.2816 0.15872-0.04096 0.31232-0.08704 0.47104-0.128-2.45248 0.61952-4.93568 1.18272-7.43936 1.67424 0.07168-0.01536 0.14336-0.0256 0.20992-0.03584-0.19456 0.04096-0.38912 0.08192-0.58368 0.12288 0.128-0.0256 0.24576-0.06144 0.37376-0.08192-0.68096 0.13312-1.36704 0.24064-2.048 0.36352 0.19968-0.03584 0.4096-0.06144 0.60928-0.09728-0.4864 0.09216-0.97792 0.16384-1.46944 0.25088 0.28672-0.0512 0.57344-0.1024 0.86016-0.1536-2.03776 0.36864-4.08576 0.70144-6.15424 0.98304 0.512-0.07168 1.02912-0.11776 1.54112-0.19456-0.5888 0.08704-1.18784 0.1536-1.77664 0.2304-0.82432 0.11264-1.64864 0.2048-2.47296 0.30208-0.91136 0.10752-1.81248 0.23552-2.72384 0.32768-1.1008 0.10752-2.21184 0.16896-3.31776 0.25088-0.8192 0.06144-1.63328 0.13312-2.45248 0.18432-0.44032 0.0256-0.87552 0.06656-1.31584 0.09216 0.39424-0.02048 0.78336-0.06144 1.1776-0.08704-2.72896 0.15872-5.47328 0.26112-8.23808 0.26112 0.22528 0 0.45056-0.01536 0.68096-0.01536-0.26112 0-0.51712 0.02048-0.77824 0.02048-0.00512 0-0.01024 0-0.01536 0-0.00512 0-0.01024 0-0.01536 0-2.82112 0-5.61664-0.10752-8.40192-0.26624-0.7936-0.04608-1.58208-0.11264-2.37056-0.17408-2.0736-0.1536-4.13696-0.34816-6.19008-0.59392-0.78848-0.09216-1.58208-0.1792-2.36544-0.28672-2.53952-0.34304-5.05856-0.73728-7.552-1.20832-0.1792-0.03584-0.36352-0.05632-0.5376-0.09216-2.70336-0.52224-5.376-1.13664-8.02816-1.80736-0.66048-0.16896-1.3056-0.35328-1.96096-0.53248-2.0224-0.54272-4.02432-1.1264-6.01088-1.75616-0.71168-0.22528-1.41824-0.44544-2.1248-0.68096-2.25792-0.75264-4.49536-1.55648-6.7072-2.42176-0.2816-0.11264-0.56832-0.2048-0.84992-0.31744-2.51904-1.00352-5.00224-2.08384-7.4496-3.22048-0.51712-0.24064-1.024-0.50176-1.536-0.74752-1.91488-0.9216-3.80416-1.87904-5.67296-2.87744-0.33792-0.1792-0.6912-0.33792-1.02912-0.52224-47.90784 20.39296-84.74624 61.49632-99.11808 111.91296l335.872 0C619.76064 638.14144 582.89152 597.03808 534.98368 576.64512zM519.14752 116.59776c-211.59936 0-383.1296 171.53536-383.1296 383.1296 0 211.59936 171.53536 383.1296 383.1296 383.1296 211.59936 0 383.1296-171.53536 383.1296-383.1296C902.27712 288.13312 730.74688 116.59776 519.14752 116.59776zM625.50016 279.42912l126.68928 0c8.82176 0 15.95904 7.30112 15.95904 15.73376 0 8.68352-7.39328 15.73376-15.95904 15.73376l-126.68928 0c-8.82176 0-15.95904-7.30112-15.95904-15.73376C609.54112 286.47936 616.9344 279.42912 625.50016 279.42912zM260.53632 720.03072c5.45792-71.15776 47.62624-132.1472 107.78112-164.3776 1.83808 1.72032 3.7376 3.37408 5.66784 4.99712-30.93504-25.97888-50.56512-64.77312-50.56512-108.12928 0-78.208 63.93344-141.62432 142.77632-141.62432 78.848 0 142.77632 63.41632 142.77632 141.62432 0 40.89344-17.50016 77.71648-45.45024 103.56736 0.15872-0.14848 0.3328-0.28672 0.49152-0.44032 60.15488 32.22528 102.3232 93.21984 107.78112 164.3776L260.53632 720.0256zM752.60416 499.73248l-95.75424 0c-8.59648 0-15.58016-7.30112-15.58016-15.73376 0-8.68352 7.23456-15.73376 15.58016-15.73376l95.75424 0c8.59648 0 15.58016 7.30112 15.58016 15.73376C768.18432 492.68224 760.94976 499.73248 752.60416 499.73248zM752.60416 405.31456l-95.75424 0c-8.59648 0-15.58016-7.30112-15.58016-15.73376 0-8.68352 7.23456-15.73376 15.58016-15.73376l95.75424 0c8.59648 0 15.58016 7.30112 15.58016 15.73376C768.18432 398.26432 760.94976 405.31456 752.60416 405.31456z" fill="#a9b7b7"></path></g></g></svg>