<?xml version="1.0" encoding="utf-8"?>
<!DOCTYPE svg PUBLIC "-//W3C//DTD SVG 1.1//EN" "http://www.w3.org/Graphics/SVG/1.1/DTD/svg11.dtd">
<svg version="1.1" id="图形" xmlns="http://www.w3.org/2000/svg" xmlns:xlink="http://www.w3.org/1999/xlink" x="0px" y="0px" width="1024px" height="1024px" viewBox="0 0 1024 1024" enable-background="new 0 0 1024 1024" xml:space="preserve">
  <path fill="#a9b7b7" d="M950.857143 702.7264 73.142857 702.7264c-40.393143 0-73.142857-32.749714-73.142857-73.142857l0-621.714286c0-40.393143 32.749714-73.142857 73.142857-73.142857l329.142857 0 78.464-130.298514c0.036571-0.036571 0.107886 0.142629 0.142629 0.071314C487.643429-205.428114 499.072-212 512-212c13.7856 0 25.786514 7.392914 32.321829 18.428343 0.036571 0.071314 0.071314-0.107886 0.107886-0.071314L621.714286-65.2736l329.142857 0c40.393143 0 73.142857 32.749714 73.142857 73.142857l0 621.714286C1024 669.976686 991.250286 702.7264 950.857143 702.7264zM950.857143 7.869257 580.286171 7.869257 512-105.986743l-68.286171 113.857829L73.142857 7.871086l0 621.714286 877.714286 0L950.857143 7.869257zM402.285714 117.583543l36.571429 0 0 109.714286 146.285714 0 0-109.714286 36.571429 0 0 109.714286 109.714286 0 0 36.571429-109.714286 0 0 146.285714 109.714286 0 0 36.571429-109.714286 0 0 109.714286-36.571429 0 0-109.714286-146.285714 0 0 109.714286-36.571429 0 0-109.714286-109.714286 0 0-36.571429 109.714286 0 0-146.285714-109.714286 0 0-36.571429 109.714286 0L402.285714 117.583543zM438.857143 410.154971l146.285714 0 0-146.285714-146.285714 0L438.857143 410.154971z" transform="translate(0, 812) scale(1, -1)"/>
</svg>
