<?xml version="1.0" standalone="no"?><!DOCTYPE svg PUBLIC "-//W3C//DTD SVG 1.1//EN" "http://www.w3.org/Graphics/SVG/1.1/DTD/svg11.dtd"><svg width="200" height="200" viewBox="0 0 200 200" version="1.1" xmlns="http://www.w3.org/2000/svg" xmlns:xlink="http://www.w3.org/1999/xlink"><defs><style type="text/css"><![CDATA[
@font-face { font-family: ifont; src: url(http://at.alicdn.com/t/font_1442373896_4754455.eot?#iefix) format(embedded-opentype), url(http://at.alicdn.com/t/font_1442373896_4754455.woff) format(woff), url(http://at.alicdn.com/t/font_1442373896_4754455.ttf) format(truetype), url(http://at.alicdn.com/t/font_1442373896_4754455.svg#ifont) format(svg); }

]]></style></defs><g class="transform-group"><g transform="scale(0.1953125, 0.1953125)"><path d="M681.44 672.319c0.026-0.035 0.053-0.07 0.079-0.107 8.374-11.191 16.355-22.16 23.945-32.903 0.049-0.069 0.098-0.14 0.147-0.208 1.21-1.712 3.78-5.38 3.871-5.51 1.191-1.707 2.375-3.407 3.547-5.102 0.028-0.041 0.057-0.081 0.084-0.123 6.071-8.782 11.874-17.409 17.405-25.881 0.059-0.09 9.922-15.488 9.953-15.538 4.119-6.563 8.068-13.027 11.847-19.392 0.067-0.112 0.135-0.226 0.202-0.338 0.827-1.396 1.644-2.784 2.455-4.17 0.188-0.322 0.377-0.643 0.563-0.963 0.767-1.314 1.525-2.624 2.277-3.93 0.21-0.366 0.42-0.731 0.629-1.094 0.745-1.298 1.485-2.593 2.214-3.883 0.185-0.325 0.366-0.649 0.549-0.973 0.758-1.345 1.514-2.687 2.256-4.022 0.049-0.089 0.097-0.177 0.147-0.266 2.5-4.499 4.909-8.945 7.226-13.338 0.081-0.155 0.164-0.309 0.245-0.464 0.639-1.213 1.266-2.42 1.89-3.623 0.218-0.419 0.436-0.839 0.652-1.258 0.58-1.124 1.152-2.244 1.718-3.36 0.249-0.489 0.496-0.977 0.741-1.463 0.548-1.085 1.09-2.166 1.626-3.245 0.249-0.499 0.495-0.997 0.74-1.495 0.531-1.078 1.061-2.155 1.581-3.225 0.222-0.455 0.438-0.908 0.657-1.362 0.539-1.116 1.077-2.231 1.603-3.341 0.067-0.144 0.133-0.287 0.202-0.431 1.25-2.64 3.794-8.191 3.869-8.357 0.455-1.009 1.824-4.089 2.06-4.624 0.41-0.932 0.811-1.859 1.211-2.785 0.258-0.597 1.529-3.574 1.901-4.463 0.26-0.622 1.492-3.599 1.844-4.463 0.254-0.626 0.503-1.248 0.753-1.871 0.342-0.857 1.5-3.796 1.739-4.411 1.158-2.991 3.814-10.255 4.055-10.94 0.263-0.747 0.517-1.488 0.774-2.23 0.239-0.69 0.477-1.381 0.709-2.068 0.246-0.731 0.489-1.457 0.729-2.183 0.231-0.698 0.46-1.395 0.685-2.089 0.229-0.709 0.455-1.417 0.678-2.123 0.224-0.709 0.443-1.414 0.659-2.119 0.21-0.684 0.422-1.367 0.626-2.047 0.224-0.746 0.439-1.487 0.656-2.227 0.183-0.63 0.372-1.264 0.55-1.89 0.272-0.954 0.531-1.899 0.789-2.845 0.196-0.716 0.389-1.429 0.578-2.141 0.265-0.999 0.527-1.997 0.778-2.988 0.142-0.56 0.275-1.114 0.412-1.67 0.193-0.783 0.385-1.566 0.569-2.345 0.138-0.583 0.27-1.164 0.402-1.744 0.171-0.747 0.338-1.492 0.501-2.234 0.127-0.58 0.251-1.159 0.373-1.738 0.156-0.745 0.309-1.486 0.458-2.225 0.112-0.559 0.224-1.117 0.332-1.673 0.149-0.773 0.29-1.542 0.431-2.31 0.093-0.511 0.189-1.024 0.277-1.533 0.156-0.891 0.301-1.776 0.444-2.659 0.061-0.378 0.127-0.758 0.186-1.134 0.194-1.243 0.375-2.477 0.543-3.703 0.048-0.348 0.087-0.69 0.133-1.037 0.117-0.894 0.233-1.787 0.335-2.672 0.054-0.461 0.102-0.917 0.153-1.377 0.084-0.768 0.165-1.534 0.24-2.295 0.047-0.485 0.09-0.969 0.132-1.451 0.065-0.734 0.125-1.467 0.18-2.194 0.036-0.48 0.195-2.908 0.235-3.639 0.023-0.454 0.05-0.911 0.07-1.362 0.035-0.788 0.062-1.572 0.085-2.353 0.012-0.382 0.027-0.766 0.035-1.146 0.027-1.155 0.043-2.304 0.043-3.443 0-162.309-132.078-294.378-294.379-294.378-162.31 0-294.379 132.069-294.379 294.378 0 1.238 0.017 2.483 0.049 3.735 0.011 0.402 0.033 0.811 0.047 1.214 0.029 0.853 0.057 1.706 0.1 2.564 0.026 0.503 0.065 1.013 0.095 1.519 0.046 0.766 0.089 1.531 0.147 2.302 0.042 0.554 0.096 1.113 0.144 1.668 0.063 0.731 0.121 1.459 0.193 2.195 0.058 0.579 0.127 1.165 0.19 1.747 0.078 0.719 0.151 1.436 0.239 2.158 0.071 0.596 0.156 1.198 0.235 1.796 0.093 0.716 0.183 1.43 0.286 2.149 0.086 0.606 0.185 1.217 0.276 1.825 0.11 0.72 0.215 1.438 0.334 2.161 0.1 0.615 0.211 1.236 0.318 1.854 0.125 0.721 0.246 1.441 0.379 2.166 0.115 0.628 0.241 1.261 0.362 1.892 0.139 0.72 0.275 1.44 0.422 2.164 0.129 0.639 0.269 1.281 0.404 1.922 0.154 0.723 0.304 1.445 0.465 2.172 0.143 0.644 0.294 1.293 0.444 1.94 0.167 0.729 0.334 1.457 0.51 2.189 0.156 0.651 0.321 1.306 0.483 1.959 0.181 0.733 0.362 1.463 0.551 2.198 0.17 0.658 0.347 1.319 0.523 1.98 0.196 0.737 0.39 1.475 0.594 2.215 0.181 0.66 0.37 1.325 0.557 1.987 0.21 0.745 0.419 1.489 0.637 2.236 0.194 0.668 0.396 1.338 0.595 2.009 0.223 0.747 0.446 1.493 0.675 2.243 0.206 0.672 0.419 1.346 0.63 2.019 0.238 0.755 0.475 1.51 0.719 2.267 0.215 0.67 0.437 1.342 0.659 2.015 0.253 0.766 0.506 1.533 0.766 2.301 0.226 0.67 0.458 1.343 0.689 2.015 0.267 0.772 0.533 1.545 0.806 2.32 0.237 0.673 0.479 1.348 0.721 2.023 0.279 0.779 0.56 1.557 0.846 2.338 0.247 0.676 0.499 1.355 0.752 2.032 0.292 0.783 0.586 1.567 0.884 2.353 0.258 0.677 0.518 1.357 0.781 2.036 0.306 0.79 0.613 1.582 0.925 2.375 0.267 0.679 0.538 1.359 0.81 2.039 0.318 0.796 0.638 1.591 0.962 2.389 0.276 0.679 0.556 1.361 0.836 2.043 0.332 0.803 0.666 1.607 1.003 2.413 0.285 0.678 0.571 1.357 0.86 2.037 0.345 0.813 0.693 1.626 1.044 2.439 0.29 0.673 0.583 1.347 0.878 2.022 0.362 0.828 0.726 1.655 1.093 2.484 0.294 0.665 0.591 1.329 0.89 1.995 0.377 0.838 0.755 1.677 1.138 2.516 0.302 0.663 0.606 1.327 0.911 1.991 0.388 0.844 0.781 1.689 1.175 2.533 0.308 0.66 0.618 1.321 0.929 1.982 0.403 0.855 0.811 1.712 1.221 2.57 0.313 0.654 0.625 1.308 0.941 1.963 0.417 0.865 0.839 1.731 1.263 2.597 0.317 0.649 0.634 1.297 0.954 1.946 0.434 0.881 0.873 1.762 1.313 2.643 0.317 0.635 0.634 1.268 0.953 1.904 0.452 0.898 0.91 1.797 1.367 2.697 0.317 0.622 0.634 1.244 0.953 1.866 0.471 0.917 0.948 1.836 1.425 2.754 0.315 0.605 0.628 1.211 0.945 1.817 0.49 0.935 0.985 1.872 1.481 2.809 0.314 0.593 0.626 1.184 0.942 1.776 0.509 0.956 1.023 1.91 1.538 2.866 0.309 0.574 0.618 1.147 0.929 1.721 0.531 0.978 1.067 1.957 1.604 2.937 0.303 0.554 0.605 1.106 0.911 1.66 0.556 1.007 1.117 2.015 1.679 3.023 0.292 0.524 0.583 1.047 0.878 1.573 0.583 1.041 1.173 2.082 1.763 3.123 0.279 0.494 0.557 0.987 0.838 1.479 0.615 1.082 1.238 2.163 1.861 3.246 0.26 0.453 0.519 0.906 0.781 1.358 0.651 1.126 1.308 2.252 1.966 3.379 0.239 0.41 0.477 0.819 0.717 1.228 0.703 1.198 1.412 2.397 2.123 3.595 0.198 0.334 0.395 0.669 0.593 1.002 0.758 1.275 1.522 2.55 2.289 3.825 0.157 0.261 0.313 0.523 0.47 0.784 0.827 1.372 1.66 2.743 2.495 4.114 0.1 0.163 0.199 0.327 0.299 0.491 0.923 1.513 1.852 3.024 2.786 4.535 0.014 0.022 0.027 0.044 0.041 0.066 14.383 23.261 30.006 46.353 45.987 68.618 0.002 0.003 0.004 0.006 0.007 0.011 1.054 1.468 2.109 2.931 3.165 4.393 0.041 0.055 0.08 0.111 0.121 0.165 1.028 1.422 2.059 2.839 3.089 4.254 0.036 0.05 0.073 0.099 0.11 0.149 1.033 1.417 2.066 2.828 3.1 4.237 0.042 0.057 0.083 0.112 0.125 0.169 1.027 1.399 2.054 2.794 3.084 4.183 0.052 0.07 0.105 0.141 0.156 0.211 1.017 1.374 2.034 2.745 3.051 4.111 0.065 0.086 0.13 0.173 0.194 0.259 1.01 1.356 2.019 2.706 3.029 4.053 0.021 0.029 0.044 0.058 0.065 0.086-76.86 27.139-126.701 74.049-126.701 128.413 0 85.939 124.531 153.291 283.519 153.291 158.981 0 283.511-67.351 283.511-153.291 0-54.342-49.803-101.237-126.611-128.381 0.019-0.025 0.037-0.05 0.057-0.075 1.395-1.854 2.781-3.698 4.156-5.535zM757.034 806.306c0 50.367-97.213 106.494-236.707 106.494s-236.708-56.127-236.708-106.494c0-33.071 41.933-68.63 110.234-89.146 0.939 1.18 1.874 2.354 2.809 3.524 0.278 0.349 0.556 0.695 0.835 1.044 0.673 0.842 1.345 1.68 2.015 2.515 0.339 0.423 0.679 0.845 1.019 1.267 0.622 0.774 1.243 1.545 1.862 2.314 0.336 0.416 0.672 0.832 1.007 1.248 0.65 0.803 1.297 1.604 1.945 2.402 0.294 0.364 0.59 0.73 0.884 1.09 0.929 1.146 1.856 2.287 2.78 3.419 0.015 0.018 0.03 0.036 0.045 0.054 0.905 1.109 1.805 2.21 2.703 3.308 0.307 0.375 0.611 0.746 0.917 1.119 0.624 0.762 1.248 1.521 1.869 2.276 0.33 0.401 0.658 0.8 0.987 1.199 0.594 0.722 1.187 1.441 1.778 2.156 0.335 0.405 0.67 0.811 1.004 1.215 0.633 0.765 1.263 1.524 1.891 2.282 0.265 0.319 0.53 0.64 0.794 0.957 0.894 1.076 1.786 2.147 2.671 3.209 0.132 0.158 0.262 0.314 0.394 0.47 0.75 0.898 1.495 1.792 2.239 2.679 0.31 0.37 0.619 0.736 0.927 1.105 0.577 0.688 1.152 1.373 1.725 2.054 0.321 0.382 0.642 0.763 0.962 1.142 0.565 0.671 1.127 1.339 1.689 2.002 0.315 0.373 0.629 0.746 0.942 1.116 0.618 0.731 1.231 1.455 1.843 2.177 0.236 0.277 0.473 0.557 0.707 0.834 0.845 0.995 1.685 1.983 2.519 2.962 0.171 0.201 0.34 0.399 0.511 0.599 0.661 0.777 1.319 1.547 1.974 2.313 0.3 0.351 0.598 0.698 0.896 1.046 0.523 0.609 1.043 1.217 1.559 1.82 0.323 0.378 0.645 0.753 0.967 1.127 0.513 0.597 1.023 1.189 1.532 1.78 0.297 0.345 0.595 0.69 0.89 1.034 0.615 0.714 1.227 1.421 1.835 2.125 0.178 0.205 0.357 0.414 0.534 0.618 0.768 0.887 1.53 1.766 2.286 2.638 0.278 0.32 0.553 0.636 0.829 0.955 0.503 0.579 1.006 1.156 1.504 1.728 0.289 0.332 0.575 0.659 0.862 0.988 0.487 0.559 0.973 1.116 1.455 1.667 0.282 0.322 0.562 0.643 0.842 0.962 0.469 0.535 0.934 1.067 1.398 1.596 0.29 0.331 0.581 0.663 0.87 0.992 0.589 0.671 1.173 1.335 1.754 1.995 0.122 0.138 0.245 0.278 0.366 0.416 0.706 0.801 1.404 1.593 2.095 2.375 0.256 0.29 0.509 0.575 0.763 0.862 0.435 0.493 0.869 0.983 1.299 1.468 0.297 0.335 0.591 0.667 0.885 0.998 0.403 0.454 0.803 0.906 1.201 1.354 0.267 0.3 0.533 0.599 0.798 0.896 0.423 0.477 0.844 0.947 1.261 1.415 0.249 0.278 0.498 0.559 0.745 0.835 0.519 0.582 1.033 1.155 1.541 1.724 0.238 0.266 0.473 0.528 0.708 0.79 0.499 0.557 0.995 1.11 1.484 1.655 0.252 0.281 0.499 0.556 0.749 0.833 0.346 0.384 0.69 0.768 1.03 1.146 0.283 0.313 0.561 0.622 0.839 0.931 0.332 0.368 0.66 0.732 0.987 1.092 0.255 0.283 0.51 0.564 0.761 0.843 0.326 0.361 0.646 0.715 0.966 1.068 0.251 0.277 0.503 0.556 0.751 0.829 0.37 0.409 0.733 0.809 1.095 1.207 0.391 0.43 0.778 0.854 1.158 1.274 0.287 0.316 0.575 0.633 0.857 0.942 0.25 0.274 0.493 0.541 0.738 0.81 0.273 0.299 0.544 0.597 0.812 0.89 0.238 0.26 0.474 0.517 0.707 0.774 0.251 0.274 0.498 0.545 0.745 0.813 0.252 0.276 0.503 0.55 0.75 0.819 0.195 0.212 0.384 0.419 0.576 0.627 0.432 0.469 0.854 0.93 1.269 1.38 0.247 0.269 0.497 0.541 0.738 0.803 0.24 0.259 0.469 0.51 0.704 0.763 0.178 0.194 0.359 0.389 0.535 0.58 0.229 0.247 0.452 0.49 0.675 0.731 0.193 0.208 0.384 0.416 0.573 0.619 0.194 0.209 0.385 0.416 0.574 0.62 0.194 0.209 0.385 0.415 0.574 0.618 0.192 0.207 0.383 0.413 0.569 0.613 0.16 0.172 0.314 0.336 0.468 0.503 0.271 0.291 0.537 0.577 0.795 0.853 0.233 0.249 0.464 0.498 0.685 0.734 0.143 0.154 0.276 0.295 0.415 0.444 0.176 0.188 0.351 0.375 0.518 0.556 0.142 0.151 0.277 0.295 0.413 0.441 0.146 0.156 0.29 0.309 0.43 0.46 0.141 0.15 0.279 0.298 0.415 0.442 0.126 0.134 0.246 0.262 0.367 0.391 0.126 0.133 0.252 0.268 0.372 0.395 0.121 0.128 0.233 0.246 0.347 0.369 0.19 0.202 0.372 0.395 0.545 0.578 0.125 0.132 0.25 0.265 0.366 0.387 0.099 0.106 0.188 0.199 0.281 0.297 0.076 0.08 0.155 0.162 0.226 0.239 0.097 0.103 0.189 0.201 0.278 0.293 0.071 0.076 0.14 0.148 0.207 0.218 0.093 0.098 0.179 0.19 0.261 0.276 0.025 0.026 0.045 0.048 0.068 0.073 0.075 0.078 0.153 0.16 0.218 0.228 0.108 0.113 0.205 0.215 0.287 0.301 5.056 5.291 12.054 8.278 19.373 8.278l0.591 0c7.502 0 14.601-3.515 19.566-9.147l91.339-104.644c2.397-2.935 4.762-5.853 7.111-8.763 0.353-0.437 0.705-0.874 1.057-1.311 2.212-2.743 4.406-5.477 6.577-8.197 0.063-0.079 0.127-0.158 0.19-0.237 68.33 20.509 110.281 56.077 110.281 89.154zM520.326 586.759c-106.189 0-192.244-86.057-192.244-192.252 0-106.21 86.055-192.251 192.244-192.251 106.196 0 192.243 86.041 192.243 192.251-0.001 106.195-86.048 192.252-192.243 192.252z" fill="#a9b7b7"></path></g></g></svg>