<?xml version="1.0" standalone="no"?><!DOCTYPE svg PUBLIC "-//W3C//DTD SVG 1.1//EN" "http://www.w3.org/Graphics/SVG/1.1/DTD/svg11.dtd"><svg width="200" height="200" viewBox="0 0 200 200" version="1.1" xmlns="http://www.w3.org/2000/svg" xmlns:xlink="http://www.w3.org/1999/xlink"><defs><style type="text/css"><![CDATA[
@font-face { font-family: ifont; src: url(http://at.alicdn.com/t/font_1442373896_4754455.eot?#iefix) format(embedded-opentype), url(http://at.alicdn.com/t/font_1442373896_4754455.woff) format(woff), url(http://at.alicdn.com/t/font_1442373896_4754455.ttf) format(truetype), url(http://at.alicdn.com/t/font_1442373896_4754455.svg#ifont) format(svg); }

]]></style></defs><g class="transform-group"><g transform="scale(0.1953125, 0.1953125)"><path d="M510.54537 368.390231c-78.503958 0-142.134161 63.611783-142.134161 142.134161 0 78.484515 63.631226 142.135184 142.134161 142.135184 78.502935 0 142.134161-63.650669 142.134161-142.135184C652.679531 432.002015 589.048305 368.390231 510.54537 368.390231zM916.645458 469.916533l-42.863227 0c-18.729573-169.409364-153.215544-303.916824-322.626955-322.643328L551.155277 104.425328c0-22.446221-18.183128-40.609906-40.609906-40.609906s-40.61093 18.163685-40.61093 40.609906l0 42.846854c-169.410388 18.727527-303.897382 153.233963-322.625932 322.643328l-42.863227 0c-22.426779 0-40.609906 18.161638-40.609906 40.608883 0 22.406313 18.183128 40.609906 40.609906 40.609906l42.863227 0C166.038082 720.543663 300.525076 855.0501 469.93444 873.777627l0 42.846854c0 22.406313 18.184151 40.608883 40.61093 40.608883s40.609906-18.201547 40.609906-40.608883l0-42.846854c169.411411-18.726503 303.898405-153.23294 322.625932-322.643328l42.86425 0c22.426779 0 40.609906-18.203594 40.609906-40.609906C957.254342 488.078171 939.072237 469.916533 916.645458 469.916533zM510.54537 794.793738c-157.006893 0-284.269345-127.281895-284.269345-284.268322 0-157.00587 127.262452-284.268322 284.269345-284.268322 156.986427 0 284.269345 127.262452 284.269345 284.268322C794.814716 667.511843 667.531797 794.793738 510.54537 794.793738z" fill="#a9b7b7"></path></g></g></svg>