<?xml version="1.0" standalone="no"?><!DOCTYPE svg PUBLIC "-//W3C//DTD SVG 1.1//EN" "http://www.w3.org/Graphics/SVG/1.1/DTD/svg11.dtd"><svg width="200" height="200" viewBox="0 0 200 200" version="1.1" xmlns="http://www.w3.org/2000/svg" xmlns:xlink="http://www.w3.org/1999/xlink"><defs><style type="text/css"><![CDATA[
@font-face { font-family: ifont; src: url(http://at.alicdn.com/t/font_1442373896_4754455.eot?#iefix) format(embedded-opentype), url(http://at.alicdn.com/t/font_1442373896_4754455.woff) format(woff), url(http://at.alicdn.com/t/font_1442373896_4754455.ttf) format(truetype), url(http://at.alicdn.com/t/font_1442373896_4754455.svg#ifont) format(svg); }

]]></style></defs><g class="transform-group"><g transform="scale(0.1953125, 0.1953125)"><path d="M956.892539 963.109154 888.811693 1018.411974C878.36658 1026.895735 863.225185 1025.556899 854.991161 1015.419998L565.150833 658.613505C517.530178 683.041476 463.54914 696.828197 406.348316 696.828197 213.925057 696.828197 57.934217 540.837358 57.934217 348.414099 57.934217 155.990839 213.925057 0 406.348316 0 598.771575 0 754.762414 155.990839 754.762414 348.414099 754.762414 434.363958 723.621991 513.030014 672.031121 573.786855L960.895647 929.39339C969.128452 939.529073 967.336434 954.624175 956.892539 963.109154ZM406.328824 87.255804C262.085387 87.255804 145.152256 204.240101 145.152256 348.546886 145.152256 492.854889 262.085387 609.839186 406.328824 609.839186 550.573479 609.839186 667.506611 492.854889 667.506611 348.546886 667.506611 204.240101 550.573479 87.255804 406.328824 87.255804Z" fill="#a9b7b7"></path></g></g></svg>