<?xml version="1.0" standalone="no"?><!DOCTYPE svg PUBLIC "-//W3C//DTD SVG 1.1//EN" "http://www.w3.org/Graphics/SVG/1.1/DTD/svg11.dtd"><svg width="200" height="200" viewBox="0 0 200 200" version="1.1" xmlns="http://www.w3.org/2000/svg" xmlns:xlink="http://www.w3.org/1999/xlink"><defs><style type="text/css"><![CDATA[
@font-face { font-family: ifont; src: url(http://at.alicdn.com/t/font_1442373896_4754455.eot?#iefix) format(embedded-opentype), url(http://at.alicdn.com/t/font_1442373896_4754455.woff) format(woff), url(http://at.alicdn.com/t/font_1442373896_4754455.ttf) format(truetype), url(http://at.alicdn.com/t/font_1442373896_4754455.svg#ifont) format(svg); }

]]></style></defs><g class="transform-group"><g transform="scale(0.1953125, 0.1953125)"><path d="M512.314155 509.513366c83.910085 0 152.174841-68.285223 152.174841-152.221914 0-83.954087-68.26578-152.255683-152.174841-152.255683-83.891665 0-152.144142 68.301596-152.144142 152.255683C360.170013 441.22712 428.42249 509.513366 512.314155 509.513366zM512.346901 247.159146c60.696384 0 110.078071 49.4042 110.078071 110.132306 0 60.691267-49.382711 110.066815-110.078071 110.066815-60.662615 0-110.013603-49.375547-110.013603-110.066815C402.334321 296.563346 451.685309 247.159146 512.346901 247.159146zM764.074086 777.660522c-27.353998-15.195074-66.268286-27.631314-112.539122-35.963073l-13.774725-2.478448 0 42.72508 9.488095 1.827625c90.976014 17.523095 124.879172 46.565549 124.879172 60.760852 0 11.530614-20.959358 30.210046-67.788919 45.953611-51.0507 17.162892-119.258151 26.614148-192.057177 26.614148-72.783677 0-140.968615-9.450233-191.999872-26.614148-46.802956-15.740496-67.75515-34.421974-67.75515-45.953611 0-14.208607 33.901111-43.25106 124.867916-60.693314l9.499351-1.822508 0-42.796712-13.774725 2.478448c-46.270836 8.334829-85.187171 20.771069-112.539122 35.963073-33.342386 18.520819-50.245358 40.998763-50.245358 66.809615 0 25.537629 17.442254 61.498656 100.546997 87.788415 54.160527 17.134239 127.567397 26.960025 201.39894 26.960025 73.859171 0 147.287531-9.826809 201.454198-26.960025 83.110883-26.28976 100.556207-62.248739 100.556207-87.779206C814.313304 818.665425 797.416472 796.183388 764.074086 777.660522zM488.721831 844.878436l23.564695 29.02915 23.732517-29.05371c7.361665-9.119705 73.779354-91.924619 137.946792-189.952236C760.909 522.083659 804.992007 421.941891 804.992007 357.25973c0-161.433716-131.280975-292.767903-292.645107-292.767903-161.332409 0-292.584732 131.335211-292.584732 292.767903 0 64.695464 44.080961 164.846442 131.021056 297.66647C413.470963 750.697427 476.676493 829.950446 488.721831 844.878436zM512.314155 122.183783c129.198547 0 242.528686 109.86113 242.528686 235.107669 0 47.091528-36.010145 128.86495-104.139825 236.478899-52.68799 83.22754-111.37767 161.28329-138.378627 196.300828-26.669406-34.679847-84.610026-111.981421-137.079028-195.231473-68.220754-108.24226-104.277972-190.382025-104.277972-237.543138C270.997064 232.04696 383.777687 122.183783 512.314155 122.183783z" fill="#a9b7b7"></path></g></g></svg>