<?xml version="1.0" standalone="no"?><!DOCTYPE svg PUBLIC "-//W3C//DTD SVG 1.1//EN" "http://www.w3.org/Graphics/SVG/1.1/DTD/svg11.dtd"><svg width="200" height="200" viewBox="0 0 200 200" version="1.1" xmlns="http://www.w3.org/2000/svg" xmlns:xlink="http://www.w3.org/1999/xlink"><defs><style type="text/css"><![CDATA[
@font-face { font-family: ifont; src: url(http://at.alicdn.com/t/font_1442373896_4754455.eot?#iefix) format(embedded-opentype), url(http://at.alicdn.com/t/font_1442373896_4754455.woff) format(woff), url(http://at.alicdn.com/t/font_1442373896_4754455.ttf) format(truetype), url(http://at.alicdn.com/t/font_1442373896_4754455.svg#ifont) format(svg); }

]]></style></defs><g class="transform-group"><g transform="scale(0.1953125, 0.1953125)"><path d="M397.953782 384.01m-255.996 0a4 4 0 1 0 511.992 0 4 4 0 1 0-511.992 0ZM1008.824237 949.697161l-316.79505-316.79505c-0.319995-0.319995-0.63999-0.63999-0.959985-0.895986 127.870002-150.845643 120.638115-377.146107-21.695661-519.543882-149.949657-149.949657-393.081858-149.949657-543.031515 0s-149.949657 393.081858 0 543.031515c142.333776 142.333776 368.63424 149.565663 519.543882 21.695661 0.319995 0.319995 0.575991 0.63999 0.895986 0.959985l316.79505 316.79505c12.479805 12.479805 32.767488 12.479805 45.247293 0C1021.368041 982.464649 1021.368041 962.176966 1008.824237 949.697161zM624.190247 610.310464c-124.990047 124.990047-327.546882 124.990047-452.536929 0-124.990047-124.990047-124.990047-327.546882 0-452.536929 124.990047-124.990047 327.546882-124.990047 452.536929 0C749.180294 282.699583 749.180294 485.320417 624.190247 610.310464z" fill="#a9b7b7"></path></g></g></svg>