<?xml version="1.0" standalone="no"?><!DOCTYPE svg PUBLIC "-//W3C//DTD SVG 1.1//EN" "http://www.w3.org/Graphics/SVG/1.1/DTD/svg11.dtd"><svg width="200" height="200" viewBox="0 0 200 200" version="1.1" xmlns="http://www.w3.org/2000/svg" xmlns:xlink="http://www.w3.org/1999/xlink"><defs><style type="text/css"><![CDATA[
@font-face { font-family: ifont; src: url(http://at.alicdn.com/t/font_1442373896_4754455.eot?#iefix) format(embedded-opentype), url(http://at.alicdn.com/t/font_1442373896_4754455.woff) format(woff), url(http://at.alicdn.com/t/font_1442373896_4754455.ttf) format(truetype), url(http://at.alicdn.com/t/font_1442373896_4754455.svg#ifont) format(svg); }

]]></style></defs><g class="transform-group"><g transform="scale(0.1953125, 0.1953125)"><path d="M814.731324 460.684264 558.356282 460.684264 558.356282 204.309222 472.897935 204.309222 472.897935 460.684264 216.522893 460.684264 216.522893 546.141588 472.897935 546.141588 472.897935 802.51663 558.356282 802.51663 558.356282 546.141588 814.731324 546.141588ZM780.138458 952.068737 251.072781 952.068737c-101.523231 0-184.101995-82.621742-184.101995-184.186929L66.970786 238.901065c0-101.523231 82.578764-184.14395 184.101995-184.14395l529.065677 0c101.543697 0 184.14395 82.619696 184.14395 184.14395L964.282409 767.881808C964.282409 869.446995 881.683179 952.068737 780.138458 952.068737zM251.072781 97.486288c-77.94728 0-141.372821 63.425541-141.372821 141.414777L109.699959 767.881808c0 77.989235 63.425541 141.457756 141.372821 141.457756l529.065677 0c77.968769 0 141.414777-63.46852 141.414777-141.457756L921.553235 238.901065c0-77.988212-63.446008-141.414777-141.414777-141.414777L251.072781 97.486288z" fill="#a9b7b7"></path></g></g></svg>