<?xml version="1.0" encoding="utf-8"?>
<!DOCTYPE svg PUBLIC "-//W3C//DTD SVG 1.1//EN" "http://www.w3.org/Graphics/SVG/1.1/DTD/svg11.dtd">
<svg version="1.1" id="图形" xmlns="http://www.w3.org/2000/svg" xmlns:xlink="http://www.w3.org/1999/xlink" x="0px" y="0px" width="1024px" height="1024px" viewBox="0 0 1024 1024" enable-background="new 0 0 1024 1024" xml:space="preserve">
  <path fill="#a9b7b7" d="M946.481379 120.76178c-34.15322 0-61.847067-40.064484-61.847067-89.480964l-11.237386 0c0 49.41648-27.693847 89.480964-61.847067 89.480964-1.898311 0-3.774108-0.162706-5.629438-0.404206l0 12.002358c1.85533-0.23843 3.731127-0.412392 5.629438-0.412392 34.15322 0 61.847067 40.062438 61.847067 89.490174 0 3.797489-0.22002 7.512091-0.545445 11.183713l12.319065 0c-0.317238-3.671623-0.535211-7.386224-0.535211-11.183713 0-49.427736 27.693847-89.490174 61.847067-89.490174 1.897287 0 3.764898 0.173962 5.619205 0.412392l0-12.002358C950.246277 120.598051 948.37969 120.76178 946.481379 120.76178zM507.098674 653.327164c47.290964 44.206828 110.751851 71.477938 180.76012 71.477938 145.930466 0 264.242813-117.691469 264.242813-262.873036 0-69.639057-27.420613-132.769886-71.853365-179.808202L507.098674 653.327164zM687.858794 199.070286c-24.823356 0-48.729791 3.643993-71.513614 10.004865L433.665259 390.797959c-6.393879 22.657023-10.059512 46.447868-10.059512 71.134107 0 55.340399 17.28435 106.616226 46.634998 148.972916l367.365604-365.452319C795.02995 216.242388 743.484928 199.070286 687.858794 199.070286zM315.080702 608.199361l-7.834753 0c0 0 1.107263 37.166481-10.149567 48.422849-0.340775 0.340761-0.680527 0.672312-1.021301 0.995677-15.874176 15.113209-31.8425 12.954033-31.8425 12.954033s-1.342633 7.79657 0 7.79657c23.765214 0 43.013368 27.92091 43.013368 62.367443 0 2.672876-0.305981 5.215792-0.534188 7.795547l8.903129 0c-0.22923-2.579755-0.534188-5.122671-0.534188-7.795547 0-34.446533 19.258388-62.367443 43.012345-62.367443 1.342633 0 1.342633-7.79657 0-7.79657C334.338067 670.57192 315.080702 642.645894 315.080702 608.199361zM313.061636 490.170201l0.066518-10.578939c-57.307495-1.363044-58.192691-51.248198-58.192691-90.364077l-11.238409 0c0 49.421596-6.638459 89.077781-67.466272 89.077781l0 12.007475c39.337502-0.147356 67.466272 39.650045 67.466272 89.076758 0 3.796466-0.217973 7.512091-0.534188 11.183713l12.319065 0c-0.327471-3.671623-0.546468-7.387247-0.546468-11.183713C254.936485 531.78397 264.007443 492.213743 313.061636 490.170201zM106.344291 33.735727l294.588155 310.543755 179.885157-178.957835L259.410563-114.577157l-109.605701 17.522072-48.424833-48.15986-31.807706 31.642674 47.70542 47.450708-0.992648 0.99363L106.344291 33.735727zM388.855915 642.295923" transform="translate(0, 812) scale(1, -1)"/>
</svg>
