<?xml version="1.0" standalone="no"?><!DOCTYPE svg PUBLIC "-//W3C//DTD SVG 1.1//EN" "http://www.w3.org/Graphics/SVG/1.1/DTD/svg11.dtd"><svg width="200" height="200" viewBox="0 0 200 200" version="1.1" xmlns="http://www.w3.org/2000/svg" xmlns:xlink="http://www.w3.org/1999/xlink"><defs><style type="text/css"><![CDATA[
@font-face { font-family: ifont; src: url(http://at.alicdn.com/t/font_1442373896_4754455.eot?#iefix) format(embedded-opentype), url(http://at.alicdn.com/t/font_1442373896_4754455.woff) format(woff), url(http://at.alicdn.com/t/font_1442373896_4754455.ttf) format(truetype), url(http://at.alicdn.com/t/font_1442373896_4754455.svg#ifont) format(svg); }

]]></style></defs><g class="transform-group"><g transform="scale(0.1953125, 0.1953125)"><path d="M511.999488 62.768579c-248.086262 0-449.231421 201.14516-449.231421 449.231421 0 248.087285 201.14516 449.231421 449.231421 449.231421 248.087285 0 449.231421-201.144136 449.231421-449.231421C961.230909 263.913738 760.08575 62.768579 511.999488 62.768579zM511.999488 877.001041c-201.583135 0-365.000018-163.41586-365.000018-365.001041 0-201.584158 163.416883-365.001041 365.000018-365.001041 201.584158 0 365.001041 163.416883 365.001041 365.001041C876.999506 713.584158 713.583646 877.001041 511.999488 877.001041zM399.691633 315.461765l336.923566 196.539258-336.923566 196.539258L399.691633 315.461765z" fill="#a9b7b7"></path></g></g></svg>