<?xml version="1.0" standalone="no"?><!DOCTYPE svg PUBLIC "-//W3C//DTD SVG 1.1//EN" "http://www.w3.org/Graphics/SVG/1.1/DTD/svg11.dtd"><svg width="200" height="200" viewBox="0 0 200 200" version="1.1" xmlns="http://www.w3.org/2000/svg" xmlns:xlink="http://www.w3.org/1999/xlink"><defs><style type="text/css"><![CDATA[
@font-face { font-family: ifont; src: url(http://at.alicdn.com/t/font_1442373896_4754455.eot?#iefix) format(embedded-opentype), url(http://at.alicdn.com/t/font_1442373896_4754455.woff) format(woff), url(http://at.alicdn.com/t/font_1442373896_4754455.ttf) format(truetype), url(http://at.alicdn.com/t/font_1442373896_4754455.svg#ifont) format(svg); }

]]></style></defs><g class="transform-group"><g transform="scale(0.1953125, 0.1953125)"><path d="M780.744767 517.148253c-90.645486 0-164.128081 73.482595-164.128081 164.128081s73.482595 164.128081 164.128081 164.128081 164.128081-73.482595 164.128081-164.128081S871.390253 517.148253 780.744767 517.148253zM884.161115 700.010001l-84.46267 0 0 79.743182-37.908378 0 0-79.743182-74.582649 0 0-37.908378 74.582649 0 0-79.302137 37.908378 0 0 79.302137 84.46267 0L884.161115 700.010001zM621.691261 229.541907l0 0.787946c56.501852 0 102.468766 45.966914 102.468766 102.468766 0 56.501852-45.966914 102.468766-102.468766 102.468766l0 10.077519 0 30.854728 0 10.077519c29.776164 0.715291 58.885132 7.042393 86.100984 17.878183l79.003332-23.275099c-16.764825-4.892427-70.015633-22.811542-88.385003-26.980491 40.050158-25.462928 66.681702-70.228481 66.681702-121.101125 0-79.071893-64.329121-143.401014-143.401014-143.401014l0 0.264013c-10.887978 0.153496-19.669992 9.015328-19.669992 19.940145S610.803283 229.388411 621.691261 229.541907zM647.835711 538.369577c-2.299369-2.580778-5.02648-4.76963-8.072863-6.457062-28.985148-22.560832-61.047378-40.397059-95.478562-53.055356-5.213745-1.916653-10.465352-3.699252-15.748682-5.364171 45.254693-33.078373 74.713632-86.542029 74.713632-146.764622 0-100.187817-81.508385-181.697225-181.696202-181.697225-100.187817 0-181.697225 81.508385-181.697225 181.697225 0 60.22157 29.457916 113.684202 74.711586 146.763598-10.627035 3.354398-21.125133 7.201006-31.467689 11.57564-42.35669 17.915022-80.390935 43.556005-113.045659 76.211752-32.654724 32.653701-58.295708 70.687946-76.210729 113.045659-18.554588 43.868113-27.962865 90.451058-27.962865 138.453329l0.270153 0c0 16.954137 13.745049 30.699186 30.699186 30.699186 16.95516 0 30.699186-13.744026 30.699186-30.699186 0-1.238201-0.081864-2.455935-0.224104-3.656273 1.967818-160.582325 133.186372-290.617937 294.227138-290.617937 68.476581 0 135.158283 24.032346 187.760315 67.672262l0.536212-0.64673c27.886117-33.614585 41.319058-44.705178 41.319058-44.705178M421.554058 206.429513c66.332754 0 120.29783 53.966099 120.29783 120.298853S487.885789 447.026196 421.554058 447.026196c-66.332754 0-120.298853-53.966099-120.298853-120.298853S355.220281 206.429513 421.554058 206.429513z" fill="#a9b7b7"></path></g></g></svg>