<?xml version="1.0" encoding="utf-8"?>
<!DOCTYPE svg PUBLIC "-//W3C//DTD SVG 1.1//EN" "http://www.w3.org/Graphics/SVG/1.1/DTD/svg11.dtd">
<svg version="1.1" id="图形" xmlns="http://www.w3.org/2000/svg" xmlns:xlink="http://www.w3.org/1999/xlink" x="0px" y="0px" width="1024px" height="1024px" viewBox="0 0 1024 1024" enable-background="new 0 0 1024 1024" xml:space="preserve">
  <path fill="#a9b7b7" d="M402.112 354.912 58.816 354.912c-30.336 0-54.912 24.64-54.912 54.912L3.904 753.184c0 30.272 24.64 54.912 54.912 54.912l343.296 0c30.272 0 54.912-24.64 54.912-54.912l0-343.36C457.088 379.552 432.384 354.912 402.112 354.912L402.112 354.912zM58.816 753.184l0-343.36 343.36 0 0 343.36L58.816 753.184 58.816 753.184zM965.184 354.912 621.888 354.912c-30.336 0-54.912 24.64-54.912 54.912L566.976 753.184c0 30.272 24.64 54.912 54.912 54.912l343.296 0c30.336 0 54.912-24.64 54.912-54.912l0-343.36C1020.096 379.552 995.52 354.912 965.184 354.912L965.184 354.912zM621.888 753.184l0-343.36 343.36 0-0.064 343.36L621.888 753.184 621.888 753.184zM402.112-208.096 58.816-208.096c-30.336 0-54.912 24.64-54.912 54.848L3.904 190.112c0 30.272 24.64 54.848 54.912 54.848l343.296 0c30.272 0 54.912-24.64 54.912-54.848l0-343.36C457.088-183.52 432.384-208.096 402.112-208.096L402.112-208.096zM58.816 190.112l0-343.36 343.36 0L402.112 190.112 58.816 190.112 58.816 190.112zM965.184-208.096 621.888-208.096c-30.336 0-54.912 24.64-54.912 54.848L566.976 190.112c0 30.272 24.64 54.848 54.912 54.848l343.296 0c30.336 0 54.912-24.64 54.912-54.848l0-343.36C1020.096-183.52 995.52-208.096 965.184-208.096L965.184-208.096zM621.888 190.112l0-343.36 343.36 0-0.064 343.36L621.888 190.112 621.888 190.112zM621.888 190.112" transform="translate(0, 812) scale(1, -1)"/>
</svg>
