<?xml version="1.0" encoding="utf-8"?>
<!DOCTYPE svg PUBLIC "-//W3C//DTD SVG 1.1//EN" "http://www.w3.org/Graphics/SVG/1.1/DTD/svg11.dtd">
<svg version="1.1" id="图形" xmlns="http://www.w3.org/2000/svg" xmlns:xlink="http://www.w3.org/1999/xlink" x="0px" y="0px" width="1024px" height="1024px" viewBox="0 0 1024 1024" enable-background="new 0 0 1024 1024" xml:space="preserve">
  <path fill="#a9b7b7" d="M511.976975 748.197882c-247.530515 0-448.204989-200.675462-448.204989-448.196859 0-247.564375 200.673451-448.197882 448.204989-448.197882 247.553029 0 448.24797 200.632483 448.24797 448.197882C960.225968 547.521396 759.531027 748.197882 511.976975 748.197882zM713.547902 286.69395 392.720077 93.316707c-4.551852-2.713808-10.154683-2.713808-14.707559 0-4.552876 2.756787-7.376293 7.834432-7.376293 13.30605L370.636225 493.334263c0 5.471618 2.823417 10.549264 7.376293 13.30605 4.551852 2.75781 10.154683 2.75781 14.707559 0l320.827825-193.33324c4.552876-2.75781 7.354803-7.834432 7.354803-13.30605C720.902705 294.485403 718.100778 289.407758 713.547902 286.69395z" transform="translate(0, 812) scale(1, -1)"/>
</svg>
