<?xml version="1.0" encoding="utf-8"?>
<!DOCTYPE svg PUBLIC "-//W3C//DTD SVG 1.1//EN" "http://www.w3.org/Graphics/SVG/1.1/DTD/svg11.dtd">
<svg version="1.1" id="图形" xmlns="http://www.w3.org/2000/svg" xmlns:xlink="http://www.w3.org/1999/xlink" x="0px" y="0px" width="1024px" height="1024px" viewBox="0 0 1024 1024" enable-background="new 0 0 1024 1024" xml:space="preserve">
  <path fill="#a9b7b7" d="M543.671327 332.485879 543.671327 332.485879l-53.209876-62.076824-53.209876 62.076824-26.604938 0 70.945819-79.81379L419.515632 252.672088c-4.897543 0-8.867972-3.970428-8.867972-8.867972s3.970428-8.868995 8.867972-8.868995l62.077847 0 0-26.603915L419.515632 208.331207c-4.897543 0-8.867972-3.971451-8.867972-8.868995s3.970428-8.866948 8.867972-8.866948l62.077847 0 0-35.472909 17.736966 0 0 35.472909L561.40727 190.595264c4.897543 0 8.867972 3.969405 8.867972 8.866948s-3.970428 8.868995-8.867972 8.868995l-62.077847 0 0 26.603915L561.40727 234.935122c4.897543 0 8.867972 3.971451 8.867972 8.868995s-3.970428 8.867972-8.867972 8.867972l-62.077847 0 70.945819 79.81379L543.671327 332.485879zM570.275241 16.080625c-27.52489-6.395664-42.016953-6.383384-81.635275-6.383384-153.453974 0-232.486982 58.266032-234.888681 173.174108-1.252527 59.141982 23.936155 119.413694 77.011978 184.249351 9.91686 12.111852 21.916149 24.264637 33.517371 36.015262 23.473621 23.786753 45.902446 46.5195 55.333236 71.610968 7.709589 1.198292 14.437827 2.137687 20.459984 2.847861 13.917988-5.189186 41.397852-10.719132 65.61644-9.695826 38.616506 1.466398 64.354704 9.749038 64.37824 9.752108 8.185426-27.791973 31.501458-53.449329 55.958476-80.346933 8.965186-9.854439 18.226107-20.045545 26.529213-30.18344 36.292578-44.337811 59.165518-87.10587 69.137637-129.488143 6.735401-20.008706 38.457894-13.868869 33.750685 11.048637-13.676487 46.89096-31.904641 87.420025-75.439156 140.605342-8.871041 10.841929-18.451234 21.37482-27.720342 31.56388-13.33368 14.666024-26.267247 28.900214-35.633568 42.346457 28.045753-9.803273 61.277622-23.64656 77.019141-38.518269 30.010501-28.352745 59.31799 18.320251 35.31532 44.144406-18.770506 23.139-65.215304 36.69883-121.82358 33.918507 4.443196 6.310729 10.907421 14.384615 15.795754 20.479427 25.544793 31.882128 54.500265 68.01814 29.673833 92.676749-17.831111 17.703197-61.938678 47.406706-157.039639 47.406706-72.027453 0-124.688837-15.782451-156.917866-47.296189-25.052582-24.419156 3.860934-60.477396 29.370935-92.281753 2.130524-2.656503 4.559852-5.688559 6.993275-8.786107-35.224246 0.026606-68.358901-5.571902-87.49268-19.631106-35.795251-26.303063-43.553958-79.620385-8.829086-88.288812 32.712029-8.16496 42.033325 43.910069 95.551216 59.377342-9.528004-12.590759-22.51069-25.748431-35.265178-38.668695-12.163017-12.325723-24.741497-25.062815-35.694967-38.443567-58.594513-71.578222-86.376253-139.337465-84.941578-207.14992 3.792373-180.603311 170.963767-207.569476 270.27154-207.569476 46.700625 0 81.637322 4.643764 103.179964 9.673313C609.725742-10.573431 604.609211 27.288898 570.275241 16.080625zM720.156854 459.994947c9.752108-8.995885-4.689812-27.9117-17.657148-17.657148-6.727215 2.50403-28.208459 19.332301-70.63064 35.31532-10.82658 2.293229-19.127639 4.724605-26.886347 6.91141-0.37146 1.032516-0.694825 2.056845-0.991584 3.077082C624.51968 490.317557 682.97707 494.285938 720.156854 459.994947zM364.79945 592.233738c31.306007 29.67588 88.292905 35.938514 130.794905 35.938514 82.531692 0 118.338199-24.230867 130.795928-35.930327-1.115404-9.700943-21.242813-34.814923-31.116695-47.149856-17.475-21.797445-27.221991-34.539654-28.169573-46.874587-19.459191-4.053316-65.337077-5.588275-76.495208-2.907213-6.16235 1.481747-43.494607 13.465686-70.795393 16.806781-4.595668 8.944719-12.741185 19.34151-24.088628 33.489742C385.963469 557.786181 366.086769 582.565541 364.79945 592.233738zM314.032206 451.165862c-12.387122-18.71627-33.69645-28.160363-35.31532-8.829086-0.8913 10.645454 7.254218 29.963429 35.31532 44.143383 20.513196 10.366092 46.807049 12.434194 73.185836 11.692297 0.611937-1.020236 1.108241-1.935072 1.438769-2.691295-0.316202-2.371-0.934279-4.800329-1.799996-7.274684C350.256222 479.870624 323.735196 465.825746 314.032206 451.165862zM708.654892 58.465968l62.167898 0 0-34.675754-62.167898 0 0 34.675754ZM718.316949 202.511665c-63.297628 0-114.610294-51.312666-114.610294-114.610294s51.312666-114.610294 114.610294-114.610294 114.610294 51.312666 114.610294 114.610294S781.614577 202.511665 718.316949 202.511665zM674.501024 13.825258l-11.085476 0 0 85.461417c-4.594645-8.039093-9.437953-15.404852-14.530948-22.095227-1.598404 4.194532-3.245927 8.28878-4.942569 12.283768 14.680351 21.769816 25.715685 45.839001 33.106002 72.204485l11.68411-3.296069c-4.343935-13.43294-9.087982-25.816992-14.230096-37.151132L674.502048 13.825258zM782.356474 13.825258l-11.533684 0-62.167898 0-11.533684 0 0 54.826699 85.23629 0L782.357498 13.825258zM782.478248 82.733675l-85.358063 0 0 10.187013 85.358063 0L782.478248 82.733675zM782.478248 106.850955l-85.358063 0 0 10.187013 85.358063 0L782.478248 106.850955zM792.69289 130.970282 687.233 130.970282l0 10.485819 43.793412 0c-2.996241 5.142114-6.117324 10.235109-9.362228 15.280008l10.037611 5.242398c3.595898-5.392824 7.140631-11.084453 10.636245-17.076934l2.278903-3.445472 48.076972 0L792.693914 130.970282z" transform="translate(0, 812) scale(1, -1)"/>
</svg>
