<?xml version="1.0" standalone="no"?><!DOCTYPE svg PUBLIC "-//W3C//DTD SVG 1.1//EN" "http://www.w3.org/Graphics/SVG/1.1/DTD/svg11.dtd"><svg width="200" height="200" viewBox="0 0 200 200" version="1.1" xmlns="http://www.w3.org/2000/svg" xmlns:xlink="http://www.w3.org/1999/xlink"><defs><style type="text/css"><![CDATA[
@font-face { font-family: ifont; src: url("//at.alicdn.com/t/font_1442373896_4754455.eot?#iefix") format("embedded-opentype"), url("//at.alicdn.com/t/font_1442373896_4754455.woff") format("woff"), url("//at.alicdn.com/t/font_1442373896_4754455.ttf") format("truetype"), url("//at.alicdn.com/t/font_1442373896_4754455.svg#ifont") format("svg"); }

]]></style></defs><g class="transform-group"><g transform="scale(0.1953125, 0.1953125)"><path d="M416.776 93.755 151.826 93.755c-31.955 0-57.954 25.999-57.954 57.954l0 264.957c0 31.955 25.999 57.954 57.954 57.954l264.957 0c31.955 0 57.954-25.999 57.954-57.954L474.737 151.709C474.74 119.756 448.739 93.755 416.776 93.755L416.776 93.755zM416.776 441.506 151.826 441.506c-13.694 0-24.834-11.144-24.834-24.838L126.992 151.711c0-13.694 11.141-24.834 24.834-24.834l264.957 0c13.694 0 24.838 11.141 24.838 24.834l0 264.957C441.624 430.362 430.479 441.506 416.776 441.506L416.776 441.506zM872.174 93.755 607.216 93.755c-31.955 0-57.954 25.999-57.954 57.954l0 264.957c0 31.955 25.999 57.954 57.954 57.954l264.957 0c31.955 0 57.954-25.999 57.954-57.954L930.127 151.709C930.128 119.756 904.129 93.755 872.174 93.755L872.174 93.755zM872.174 441.506 607.216 441.506c-13.694 0-24.838-11.144-24.838-24.838L582.378 151.711c0-13.694 11.144-24.834 24.838-24.834l264.957 0c13.694 0 24.834 11.141 24.834 24.834l0 264.957C897.008 430.362 885.867 441.506 872.174 441.506L872.174 441.506zM416.776 549.376 151.826 549.376c-31.955 0-57.954 25.999-57.954 57.954l0 264.961c0 31.955 25.999 57.954 57.954 57.954l264.957 0c31.955 0 57.954-25.999 57.954-57.954L474.737 607.33C474.74 575.375 448.739 549.376 416.776 549.376L416.776 549.376zM416.776 897.127 151.826 897.127c-13.694 0-24.834-11.141-24.834-24.834L126.992 607.33c0-13.694 11.141-24.834 24.834-24.834l264.957 0c13.694 0 24.838 11.141 24.838 24.834l0 264.961C441.624 885.985 430.479 897.127 416.776 897.127L416.776 897.127zM872.174 549.376 607.216 549.376c-31.955 0-57.954 25.999-57.954 57.954l0 264.961c0 31.955 25.999 57.954 57.954 57.954l264.957 0c31.955 0 57.954-25.999 57.954-57.954L930.127 607.33C930.128 575.375 904.129 549.376 872.174 549.376L872.174 549.376zM872.174 897.127 607.216 897.127c-13.694 0-24.838-11.141-24.838-24.834L582.378 607.33c0-13.694 11.144-24.834 24.838-24.834l264.957 0c13.694 0 24.834 11.141 24.834 24.834l0 264.961C897.008 885.985 885.867 897.127 872.174 897.127L872.174 897.127z" fill="#a9b7b7"></path></g></g></svg>