<?xml version="1.0" standalone="no"?><!DOCTYPE svg PUBLIC "-//W3C//DTD SVG 1.1//EN" "http://www.w3.org/Graphics/SVG/1.1/DTD/svg11.dtd"><svg width="200" height="200" viewBox="0 0 200 200" version="1.1" xmlns="http://www.w3.org/2000/svg" xmlns:xlink="http://www.w3.org/1999/xlink"><defs><style type="text/css"><![CDATA[
@font-face { font-family: ifont; src: url("//at.alicdn.com/t/font_1442373896_4754455.eot?#iefix") format("embedded-opentype"), url("//at.alicdn.com/t/font_1442373896_4754455.woff") format("woff"), url("//at.alicdn.com/t/font_1442373896_4754455.ttf") format("truetype"), url("//at.alicdn.com/t/font_1442373896_4754455.svg#ifont") format("svg"); }

]]></style></defs><g class="transform-group"><g transform="scale(0.1953125, 0.1953125)"><path d="M298.666667 170.666667l597.333333 0 0 42.666667-597.333333 0 0-42.666667ZM298.666667 469.333333l597.333333 0 0 42.666667-597.333333 0 0-42.666667ZM298.666667 768l597.333333 0 0 42.666667-597.333333 0 0-42.666667ZM85.333333 256l128 0L213.333333 128 85.333333 128 85.333333 256zM128 170.666667l42.666667 0 0 42.666667L128 213.333333 128 170.666667zM85.333333 554.666667l128 0 0-128L85.333333 426.666667 85.333333 554.666667zM128 469.333333l42.666667 0 0 42.666667L128 512 128 469.333333zM85.333333 853.333333l128 0 0-128L85.333333 725.333333 85.333333 853.333333zM128 768l42.666667 0 0 42.666667L128 810.666667 128 768z" fill="#a9b7b7"></path></g></g></svg>