<?xml version="1.0" encoding="utf-8"?>
<!DOCTYPE svg PUBLIC "-//W3C//DTD SVG 1.1//EN" "http://www.w3.org/Graphics/SVG/1.1/DTD/svg11.dtd">
<svg version="1.1" id="图形" xmlns="http://www.w3.org/2000/svg" xmlns:xlink="http://www.w3.org/1999/xlink" x="0px" y="0px" width="1000px" height="1024px" viewBox="0 0 1000 1024" enable-background="new 0 0 1000 1024" xml:space="preserve">
  <path fill="#a9b7b7" d="M499.5218 747.3307c4.1643 4.0612 9.8317 7.441 15.8869 6.5196 5.3436-0.1879 9.6269-3.8924 13.3465-7.339 135.9174-141.6959 271.9178-283.3069 407.8852-424.9509 5.0698-5.1535 11.1969-10.7337 11.6566-18.4475 0.9734-9.8303-8.1398-19.2679-18.0395-18.2266-5.7004 0-10.3584 3.8734-14.2329 7.6108-17.5438 18.3456-35.1396 36.6571-52.7364 54.9517-0.017-155.3147 0-310.6114 0-465.9261H164.20240306924487c-0.017 155.3147 0 310.6304-0.017 465.9261-17.8856-18.5854-35.7542-37.2028-53.6059-55.8391-3.9765-3.8404-9.2161-7.2351-15.0014-6.7065-9.2321-0.052-17.339 8.9419-16.4006 18.1407 0.033 5.1875 3.4138 9.5395 6.6388 13.294C223.7135 459.9975 361.6606 603.6211 499.5218 747.3307zM204.9405 389.96c-2.1167-2.5942-5.9052-4.7108-5.7343-8.4982-0.068-154.9729 0.034-309.9459-0.052-464.9018 64.1012-0.1369 128.2023-0.2049 192.3035 0.033-0.1369 122.2921-0.052 244.5852-0.052 366.8952 81.561-0.018 163.1031 0 244.6641-0.018 0.033-122.3091 0.017-244.6181 0.017-366.9272 64.0652-0.1719 128.1344-0.0869 192.1836-0.052 0.017 154.9889 0.033 309.9968 0 464.9867 0.2728 3.3967-3.0371 5.3754-4.9498 7.6798C720.0693 496.6027 616.989 604.1848 513.7208 711.6299 410.7603 604.4396 307.9019 497.1493 204.9405 389.96zM426.3924 248.4679c-0.0849-110.619 0.1029-221.239-0.0849-331.842 58.2989-0.2199 116.6147-0.3917 174.9126 0.07-0.3068 110.585-0.033 221.186-0.1359 331.7721C542.8532 248.5029 484.6233 248.4849 426.3924 248.4679zM688.4964 667.9076c34.9527 0.052 69.9055 0.018 104.8562 0.018 0.019-53.9784 0.019-107.9578 0-161.9362-11.2119 11.5532-22.4237 23.0903-33.6046 34.6775-1.9448 1.5869-1.2272 4.2491-1.3811 6.3997 0.1019 28.6186 0.052 57.2372 0.035 85.8568-11.6396 0.034-23.2972 0.034-34.9367 0-0.05-18.0038 0-36.0076-0.017-54.0124-11.6896 11.9459-23.1073 24.1656-34.8318 36.0426C688.3595 632.6155 688.5834 650.2615 688.4964 667.9076z" transform="translate(0, 812) scale(1, -1)"/>
</svg>
