<?xml version="1.0" encoding="utf-8"?>
<!DOCTYPE svg PUBLIC "-//W3C//DTD SVG 1.1//EN" "http://www.w3.org/Graphics/SVG/1.1/DTD/svg11.dtd">
<svg version="1.1" id="图形" xmlns="http://www.w3.org/2000/svg" xmlns:xlink="http://www.w3.org/1999/xlink" x="0px" y="0px" width="1024px" height="1024px" viewBox="0 0 1024 1024" enable-background="new 0 0 1024 1024" xml:space="preserve">
  <path fill="#a9b7b7" d="M511.980046 748.370821c-246.823502 0-446.913633-200.091154-446.913633-446.913633 0-246.821455 200.090131-446.914656 446.913633-446.914656 246.824525 0 446.912609 200.093201 446.912609 446.914656C958.893678 548.278643 758.804571 748.370821 511.980046 748.370821zM511.980046 727.564959c235.334843 0 426.110841-190.773951 426.110841-426.107771 0-91.526553-28.866445-176.306448-77.979002-245.748007l0 46.794769c0 90.496084-62.9671 166.792771-149.032268 190.673667 53.78702 22.351054 91.622744 75.377758 91.622744 137.258107 0 82.066087-66.527183 148.592246-148.594293 148.592246-82.066087 0-148.592246-66.526159-148.592246-148.592246 0-61.795415 37.728276-114.76686 91.400686-137.171126-57.69605-15.911388-105.019869-55.386448-130.040728-106.900705-3.403516-7.004531-6.389524-14.223956-8.93551-21.638833-2.325975-6.780427-4.261047-13.728676-5.830799-20.808932-15.637142 10.399861-33.050744 18.504446-51.760874 23.697725 46.487777 19.317974 79.18548 65.149812 79.18548 118.631888 0 70.931492-57.498552 128.430044-128.425951 128.430044-70.932516 0-128.432091-57.498552-128.432091-128.430044 0-53.40635 32.610722-99.19214 79.002308-118.556163-62.819744-17.321504-111.426789-66.943668-125.155465-129.007189-56.791447 72.39175-90.653673 163.626661-90.653673 262.774799C85.871251 536.791008 276.647249 727.564959 511.980046 727.564959zM655.921365 301.457188c-69.992097 0-126.72624 56.738235-126.72624 126.728286 0 69.989027 56.733119 126.727263 126.72624 126.727263 69.990051 0 126.72317-56.738235 126.72317-126.727263C782.644535 358.195424 725.911416 301.457188 655.921365 301.457188zM351.110171 178.251122c-59.649542 0-107.99769 48.352241-107.99769 107.99462 0 59.647495 48.349171 107.99769 107.99769 107.99769 59.644425 0 107.99769-48.351218 107.99769-107.99769C459.107861 226.603363 410.754596 178.251122 351.110171 178.251122zM192.671673 19.337809c9.1678 76.315106 76.521814 135.580908 158.293189 135.580908 36.835953 0 70.704318-12.07399 97.689926-32.266891-0.699941-6.626931-1.100054-13.340843-1.100054-20.147876L447.554734-119.805228C346.602507-104.493497 257.293459-53.748766 192.671673 19.337809zM511.980046-124.650583c-14.33038 0-28.489868 0.720408-42.455951 2.101871l0 223.592404c0 16.019859 2.243087 31.529087 6.380314 46.291302 2.26867 8.103562 5.101181 15.974833 8.487302 23.571858 28.195156 63.259766 93.485161 107.578134 169.549557 107.578134 101.852736 0 184.41922-79.444377 184.41922-177.441295l0-73.504084C760.193197-65.499391 643.006218-124.650583 511.980046-124.650583z" transform="translate(0, 812) scale(1, -1)"/>
</svg>
