<?xml version="1.0" encoding="utf-8"?>
<!DOCTYPE svg PUBLIC "-//W3C//DTD SVG 1.1//EN" "http://www.w3.org/Graphics/SVG/1.1/DTD/svg11.dtd">
<svg version="1.1" id="图形" xmlns="http://www.w3.org/2000/svg" xmlns:xlink="http://www.w3.org/1999/xlink" x="0px" y="0px" width="1024px" height="1024px" viewBox="0 0 1024 1024" enable-background="new 0 0 1024 1024" xml:space="preserve">
  <path fill="#a9b7b7" d="M626.583569 675.715173c0 15.989484-12.963898 28.953382-28.953382 28.953382l-116.144227 0c-15.989484 0-28.953382-12.963898-28.953382-28.953382l0-0.110232c0-15.989484 12.963898-28.953382 28.953382-28.953382l116.144227 0c15.989484 0 28.953382 12.963898 28.953382 28.953382L626.583569 675.715173zM742.617564 733.73217c0 15.989484-12.963898 28.953382-28.953382 28.953382l-0.110232 0c-15.989484 0-28.953382-12.963898-28.953382-28.953382l0-116.144227c0-15.989484 12.963898-28.953382 28.953382-28.953382l0.110232 0c15.989484 0 28.953382 12.963898 28.953382 28.953382L742.617564 733.73217zM104.430595 68.126368M336.498584-105.924623M313.291785-136.577904c0-11.603399 7.228918-29.008499 23.151683-29.008499l609.288703 0c15.925666 0 28.953382 13.030618 28.953382 28.956283L974.685552 675.715173c0 15.925666-13.030618 28.953382-28.953382 28.953382l-116.144227 0c-15.925666 0-28.953382-13.027717-28.953382-28.953382L800.634561 675.660057c0-15.925666 13.030618-29.008499 28.953382-29.008499l58.127229 0c15.925666 0 28.953382-12.917484 28.953382-28.84315l0-696.42153c0-15.925666-13.030618-28.956283-28.953382-28.956283L337.023637-107.569405C321.100873-107.569405 313.291785-127.875354 313.291785-136.577904zM46.413598 10.109371M75.477212 66.481586c15.925666 0 28.953382 13.030618 28.953382 28.956283L104.430595 617.698176C104.430595 633.623841 117.461212 646.651558 133.383977 646.651558l116.144227 0C265.450969 646.651558 278.481586 659.682176 278.481586 675.607841l0 0.110232C278.481586 691.640839 265.450969 704.668555 249.528204 704.668555L75.36698 704.668555C59.444215 704.668555 46.413598 691.640839 46.413598 675.715173l0-580.280204c0-15.925666 13.030618-28.956283 28.953382-28.956283L75.477212 66.478686zM394.515581 733.73217c0 15.989484-12.963898 28.953382-28.953382 28.953382l-0.110232 0c-15.989484 0-28.953382-12.963898-28.953382-28.953382l0-116.144227c0-15.989484 12.963898-28.953382 28.953382-28.953382l0.110232 0c15.989484 0 28.953382 12.963898 28.953382 28.953382L394.515581 733.73217zM800.634561 443.647184c0 15.989484-12.963898 28.953382-28.953382 28.953382L249.417972 472.600567c-15.989484 0-28.953382-12.963898-28.953382-28.953382l0-0.110232c0-15.989484 12.963898-28.953382 28.953382-28.953382l522.263207 0c15.989484 0 28.953382 12.963898 28.953382 28.953382L800.634561 443.647184zM800.634561 327.61319c0 15.989484-12.963898 28.953382-28.953382 28.953382L249.417972 356.566572c-15.989484 0-28.953382-12.963898-28.953382-28.953382l0-0.110232c0-15.989484 12.963898-28.953382 28.953382-28.953382l522.263207 0c15.989484 0 28.953382 12.963898 28.953382 28.953382L800.634561 327.61319zM800.634561 211.579195c0 15.989484-12.963898 28.953382-28.953382 28.953382L249.417972 240.532578c-15.989484 0-28.953382-12.963898-28.953382-28.953382l0-0.110232c0-15.989484 12.963898-28.953382 28.953382-28.953382l522.263207 0c15.989484 0 28.953382 12.963898 28.953382 28.953382L800.634561 211.579195z" transform="translate(0, 812) scale(1, -1)"/>
</svg>
