<?xml version="1.0" standalone="no"?><!DOCTYPE svg PUBLIC "-//W3C//DTD SVG 1.1//EN" "http://www.w3.org/Graphics/SVG/1.1/DTD/svg11.dtd"><svg width="200" height="200" viewBox="0 0 200 200" version="1.1" xmlns="http://www.w3.org/2000/svg" xmlns:xlink="http://www.w3.org/1999/xlink"><defs><style type="text/css"><![CDATA[
@font-face { font-family: ifont; src: url("//at.alicdn.com/t/font_1442373896_4754455.eot?#iefix") format("embedded-opentype"), url("//at.alicdn.com/t/font_1442373896_4754455.woff") format("woff"), url("//at.alicdn.com/t/font_1442373896_4754455.ttf") format("truetype"), url("//at.alicdn.com/t/font_1442373896_4754455.svg#ifont") format("svg"); }

]]></style></defs><g class="transform-group"><g transform="scale(0.1953125, 0.1953125)"><path d="M615.406933 600.558933l-34.594133-47.0016c3.208533-5.461333 6.0416-11.1616 8.516267-17.083733 2.235733-5.205333 4.232533-10.530133 5.7856-15.9232l58.2144-7.936c4.4544-0.5632 7.68-4.352 7.8336-8.772267l0.750933-55.296c0.034133-4.471467-3.2768-8.2944-7.714133-8.994133l-57.4976-8.5504c-3.191467-11.912533-7.867733-23.483733-13.687467-34.4576l35.874133-45.909333c2.7136-3.618133 2.491733-8.6016-0.631467-11.793067l-38.6048-39.68c-3.1232-3.242667-8.209067-3.703467-11.776-0.989867l-47.069867 34.542933c-10.325333-6.0416-21.8112-10.939733-33.416533-14.4896l-7.4752-57.975467c-0.546133-4.4544-4.334933-7.714133-8.7552-7.8336l-55.364267-0.785067c-4.4544-0.068267-8.413867 3.242667-9.0112 7.662933l-8.3968 57.582933c-12.049067 3.259733-23.688533 7.8848-34.7136 13.8752l-45.7216-36.096c-3.515733-2.7136-8.6016-2.474667-11.793067 0.682667l-39.662933 38.587733c-3.310933 3.1744-3.7376 8.277333-0.955733 11.895467l34.8672 46.1824c-3.208533 5.461333-6.178133 11.4688-8.840533 17.749333-2.2528 5.290667-4.1472 10.717867-5.888 16.162133l-58.077867 7.697067c-4.420267 0.546133-7.714133 4.352-7.765333 8.823467l-0.768 55.261867c-0.034133 4.4544 3.259733 8.3968 7.68 9.045333l57.344 8.072533c3.191467 11.7248 7.611733 23.159467 13.3632 33.979733l-35.5328 46.9504c-2.645333 3.515733-2.321067 8.4992 0.733867 11.6224l38.621867 39.68c3.140267 3.208533 8.106667 3.669333 11.758933 1.006933l47.291733-34.389333c10.427733 6.024533 21.504 10.7008 32.768 14.114133l7.8848 58.180267c0.494933 3.208533 2.56 5.9392 5.376 7.082667 1.0752 0.4608 2.218667 0.768 3.413333 0.768l55.2448 0.750933c4.522667 0 8.362667-3.310933 9.0624-7.697067l8.567467-57.565867c11.810133-3.208533 23.057067-7.594667 33.774933-13.277867l46.6432 35.498667c3.618133 2.7648 8.5504 2.423467 11.690667-0.597333l39.697067-38.621867C617.591467 609.160533 618.052267 604.125867 615.406933 600.558933zM391.748267 587.639467c-63.232-26.88-92.672-99.9424-65.774933-163.191467 26.897067-63.214933 99.976533-92.672 163.191467-65.774933 63.214933 26.914133 92.637867 99.976533 65.7408 163.208533C528.008533 585.0624 454.946133 614.536533 391.748267 587.639467zM654.011733 376.8832l203.741867 0 0 39.662933-203.741867 0 0-39.662933ZM701.44 466.005333l156.3136 0 0 37.051733-156.3136 0 0-37.051733ZM629.4528 554.308267l228.3008 0 0 40.174933-228.3008 0 0-40.174933Z" fill="#a9b7b7"></path></g></g></svg>