<?xml version="1.0" encoding="utf-8"?>
<!DOCTYPE svg PUBLIC "-//W3C//DTD SVG 1.1//EN" "http://www.w3.org/Graphics/SVG/1.1/DTD/svg11.dtd">
<svg version="1.1" id="图形" xmlns="http://www.w3.org/2000/svg" xmlns:xlink="http://www.w3.org/1999/xlink" x="0px" y="0px" width="1024px" height="1024px" viewBox="0 0 1024 1024" enable-background="new 0 0 1024 1024" xml:space="preserve">
  <path fill="#a9b7b7" d="M751.95814 578.772144c-16.408715 21.195741-42.082444 34.902928-70.802556 34.902928l-526.346753 0c-49.234331 0-89.51678-40.282448-89.51678-89.51678l0-448.272583c0-49.234331 40.282448-89.51678 89.51678-89.51678l526.346753 0c28.720112 0 54.393841 13.707187 70.802556 34.902928 64.428382 83.222423 206.751854 278.750655 206.751854 278.750655S816.385499 495.549721 751.95814 578.772144zM691.215708 210.701185c-49.329499 0-89.320305 39.989783-89.320305 89.320305 0 49.330522 39.989783 89.319282 89.320305 89.319282s89.320305-39.98876 89.320305-89.319282C780.536013 250.691991 740.54623 210.701185 691.215708 210.701185z" transform="translate(0, 812) scale(1, -1)"/>
</svg>
