<?xml version="1.0" encoding="utf-8"?>
<!DOCTYPE svg PUBLIC "-//W3C//DTD SVG 1.1//EN" "http://www.w3.org/Graphics/SVG/1.1/DTD/svg11.dtd">
<svg version="1.1" id="图形" xmlns="http://www.w3.org/2000/svg" xmlns:xlink="http://www.w3.org/1999/xlink" x="0px" y="0px" width="1024px" height="1024px" viewBox="0 0 1024 1024" enable-background="new 0 0 1024 1024" xml:space="preserve">
  <path fill="#fff" d="M779.738059 245.70542 779.738059 640.229868c0 38.998199-31.61634 70.651107-70.655025 70.651107L90.778142 710.880975c-39.00082 0-70.615114-31.652907-70.615114-70.651107l0-394.524448c0-39.036062 31.614294-70.651107 70.615114-70.651107l117.823187 0 0.038887-162.326039 180.192162 162.326039 320.250656 0C748.121718 175.054313 779.738059 206.669358 779.738059 245.70542zM933.181947 527.093135 844.746249 527.093135c0 0 0-315.041186 0-344.660784 0-29.620621-38.375555-67.64361-67.996366-67.64361s-345.808776-0.734734-345.808776-0.734734c0-38.999223 31.614294-63.781652 70.656048-63.781652l136.111441 0 177.611278-161.15333-0.195459 161.15333 118.058557 0c39.00082 0 70.652978 23.759123 70.652978 62.758346L1003.835949 458.394497C1003.834925 497.393719 972.182768 527.093135 933.181947 527.093135z" transform="translate(0, 812) scale(1, -1)"/>
</svg>
