<?xml version="1.0" encoding="utf-8"?>
<!DOCTYPE svg PUBLIC "-//W3C//DTD SVG 1.1//EN" "http://www.w3.org/Graphics/SVG/1.1/DTD/svg11.dtd">
<svg version="1.1" id="图形" xmlns="http://www.w3.org/2000/svg" xmlns:xlink="http://www.w3.org/1999/xlink" x="0px" y="0px" width="1024px" height="1024px" viewBox="0 0 1024 1024" enable-background="new 0 0 1024 1024" xml:space="preserve">
  <path fill="#a9b7b7" d="M129.4848 676.093696l586.963968 0c37.039104 0 67.068928-30.026752 67.068928-67.068928l0-374.504448c0-37.045248-30.029824-67.072-67.068928-67.072L412.435456 167.44832 241.35168 13.395712l-0.018432 154.051584L129.4848 167.447296c-37.039104 0-67.068928 30.026752-67.068928 67.072L62.415872 609.024768C62.415872 646.06592 92.445696 676.093696 129.4848 676.093696zM811.23328 201.6704c0 28.120064 0 327.163904 0 327.163904l83.92704 0c37.045248 0 67.075072-28.152832 67.075072-65.197056l0-327.849984c0-37.042176-30.029824-59.5712-67.075072-59.5712L783.089664 76.216064l0.206848-153.001984L614.692864 76.21504 485.454848 76.21504c-37.042176 0-67.068928 22.529024-67.068928 59.5712 0 0 300.150784 1.667072 328.266752 1.667072S811.23328 173.557504 811.23328 201.6704z" transform="translate(0, 812) scale(1, -1)"/>
</svg>
