<?xml version="1.0" standalone="no"?><!DOCTYPE svg PUBLIC "-//W3C//DTD SVG 1.1//EN" "http://www.w3.org/Graphics/SVG/1.1/DTD/svg11.dtd"><svg width="200" height="200" viewBox="0 0 200 200" version="1.1" xmlns="http://www.w3.org/2000/svg" xmlns:xlink="http://www.w3.org/1999/xlink"><defs><style type="text/css"><![CDATA[
@font-face { font-family: ifont; src: url("//at.alicdn.com/t/font_1442373896_4754455.eot?#iefix") format("embedded-opentype"), url("//at.alicdn.com/t/font_1442373896_4754455.woff") format("woff"), url("//at.alicdn.com/t/font_1442373896_4754455.ttf") format("truetype"), url("//at.alicdn.com/t/font_1442373896_4754455.svg#ifont") format("svg"); }

]]></style></defs><g class="transform-group"><g transform="scale(0.1953125, 0.1953125)"><path d="M721.408 223.232c-11.264 0-20.48-9.216-20.48-20.48l0-76.8c0-26.112-21.504-47.616-47.616-47.616l-307.2 0c-26.112 0-47.616 21.504-47.616 47.616l0 76.8c0 11.264-9.216 20.48-20.48 20.48-11.264 0-20.48-9.216-20.48-20.48l0-76.8c0-49.152 39.936-89.088 89.088-89.088l307.2 0c49.152 0 89.088 39.936 89.088 89.088l0 76.8C741.888 214.016 732.672 223.232 721.408 223.232zM962.048 983.04 61.952 983.04c-33.792 0-61.952-27.648-61.952-61.952l0-660.48c0-33.792 27.648-61.952 61.952-61.952l899.584 0c33.792 0 61.952 27.648 61.952 61.952l0 660.48C1023.488 955.392 995.84 983.04 962.048 983.04zM61.952 240.128c-11.264 0-20.48 9.216-20.48 20.48l0 660.48c0 11.264 9.216 20.48 20.48 20.48l899.584 0c11.264 0 20.48-9.216 20.48-20.48l0-660.48c0-11.264-9.216-20.48-20.48-20.48L61.952 240.128zM983.04 624.128l-413.184 0c-11.264 0-20.48-9.216-20.48-20.48s9.216-20.48 20.48-20.48L983.04 583.168c11.264 0 20.48 9.216 20.48 20.48S994.304 624.128 983.04 624.128zM472.064 624.128 37.888 624.128c-11.264 0-20.48-9.216-20.48-20.48s9.216-20.48 20.48-20.48l433.664 0c11.264 0 20.48 9.216 20.48 20.48S483.328 624.128 472.064 624.128zM541.696 709.632l-33.792 0c-25.6 0-46.08-20.992-46.08-46.08L461.824 493.056c0-25.6 20.992-46.08 46.08-46.08l33.792 0c25.6 0 46.08 20.992 46.08 46.08l0 170.496C588.288 689.152 567.296 709.632 541.696 709.632zM507.904 487.936c-2.56 0-5.12 2.56-5.12 5.12l0 170.496c0 2.56 2.56 5.12 5.12 5.12l33.792 0c2.56 0 5.12-2.56 5.12-5.12L546.816 493.056c0-2.56-2.56-5.12-5.12-5.12L507.904 487.936z" fill="#a9b7b7"></path></g></g></svg>