<?xml version="1.0" standalone="no"?><!DOCTYPE svg PUBLIC "-//W3C//DTD SVG 1.1//EN" "http://www.w3.org/Graphics/SVG/1.1/DTD/svg11.dtd"><svg width="200" height="200" viewBox="0 0 200 200" version="1.1" xmlns="http://www.w3.org/2000/svg" xmlns:xlink="http://www.w3.org/1999/xlink"><defs><style type="text/css"><![CDATA[
@font-face { font-family: ifont; src: url(http://at.alicdn.com/t/font_1442373896_4754455.eot?#iefix) format(embedded-opentype), url(http://at.alicdn.com/t/font_1442373896_4754455.woff) format(woff), url(http://at.alicdn.com/t/font_1442373896_4754455.ttf) format(truetype), url(http://at.alicdn.com/t/font_1442373896_4754455.svg#ifont) format(svg); }

]]></style></defs><g class="transform-group"><g transform="scale(0.2, 0.2)"><path d="M849.8656 815.8329c0 0 0 51.5301-51.5322 51.5301h-618.3760944278495c0 0-51.5292 0-51.5292-51.5301v-412.2305077157687c0-51.5311 51.5292-51.5311 51.5292-51.5311h154.59452328866513l51.5332-51.5271H128.4281912421787c-29.2384 0-51.5332 22.9444-51.5332 51.5271l-0.1499 515.1897c0 28.5836 23.6989 51.8309 52.9373 51.8309l720.1822-0.1969c29.1834 0 51.5292-22.9484 51.5292-51.5311V506.6594848692586l-51.5292 51.5281V815.8328653173148zM946.9888 350.2096l-260.0244-200.9817c-4.778-3.6735-11.1189-4.2771-16.5015-1.7088-5.3346 2.6122-8.7604 7.9986-8.7604 13.9366v120.36739090896371c-98.6861 2.971-177.6898 40.5615-234.9593 99.5375-102.103 104.9199-92.0883 258.4508-91.8395 264.8904 0.2518 8.2544 6.9446 14.793 15.2503 14.9978h0.34777846511772c8.1518 0 14.9475-6.2418 15.6021-14.3433 0.6036-8.4043 13.2855-202.7965 295.5997-209.6898v126.25839680696487c0 5.888 3.4258 11.3243 8.7604 13.9366 5.3826 2.6192 11.7745 1.9647 16.5015-1.7088l260.0244-200.9817c3.7716-2.92 6.0362-7.4499 6.0362-12.2787C953.0249 357.7055 950.7614 353.1805 946.9888 350.2096zM692.9546 531.7185V421.46824453020855c0-8.5542-6.9925-15.5535-15.649-15.5535-166.373 0-247.6942 61.1425-293.1852 121.5276 12.6819-41.312 28.3819-86.8061 65.1185-124.5426 54.1495-55.7052 130.9436-90.2778 228.0667-90.2778 8.6565 0 15.649-6.9443 15.649-15.4985V193.25697177313782l218.9555 169.1843L692.9546 531.7185z" fill="#a9b7b7"></path></g></g></svg>