<?xml version="1.0" encoding="utf-8"?>
<!DOCTYPE svg PUBLIC "-//W3C//DTD SVG 1.1//EN" "http://www.w3.org/Graphics/SVG/1.1/DTD/svg11.dtd">
<svg version="1.1" id="图形" xmlns="http://www.w3.org/2000/svg" xmlns:xlink="http://www.w3.org/1999/xlink" x="0px" y="0px" width="1024px" height="1024px" viewBox="0 0 1024 1024" enable-background="new 0 0 1024 1024" xml:space="preserve">
  <path fill="#a9b7b7" d="M511.998465 811.684822c-282.59624 0-511.683798-229.087559-511.683798-511.684822 0-282.598286 229.087559-511.684822 511.683798-511.684822 282.598286 0 511.686868 229.086535 511.686868 511.685845C1023.685333 582.597263 794.596751 811.684822 511.998465 811.684822zM511.998465-169.043652c-259.046894 0-469.043652 209.995735-469.043652 469.044676 0 259.047918 209.996758 469.043652 469.043652 469.043652 259.049964 0 469.045699-209.995735 469.045699-469.044676C981.044164 40.951059 771.048429-169.043652 511.998465-169.043652zM523.846304 519.386616c-130.75295 0-247.722988-58.245566-327.236949-149.94915l-25.733081 25.765827c86.154195 98.282421 212.161051 160.63963 352.97003 160.63963 139.539057 0 264.504186-61.264319 350.59596-157.995407l-25.734104-25.775037C769.236154 462.222685 653.349797 519.386616 523.846304 519.386616zM523.846304 139.202781c25.133424 0 47.221488-12.847609 60.190871-32.324196l-62.605873-62.721507-59.464323 59.545164C474.58639 124.87854 497.446028 139.202781 523.846304 139.202781zM523.846304 410.921275c99.604532 0 188.634218-44.941562 248.305249-115.544573l-25.712615-25.786293c-53.029774 64.054875-133.023666 104.873536-222.592634 104.873536-90.818425 0-171.747619-42.046628-224.737484-107.673302l-25.942859 25.962302C332.879971 364.928778 422.992315 410.921275 523.846304 410.921275zM523.846304 266.010885c59.691497 0 112.452141-29.098735 145.389298-73.77833l-25.940812-25.972535c-26.004257 38.216393-69.771063 63.335491-119.449509 63.335491-50.925856 0-95.606475-26.473955-121.320113-66.366523l-26.152637 26.184359C409.12447 235.705672 462.924793 266.010885 523.846304 266.010885z" transform="translate(0, 812) scale(1, -1)"/>
</svg>
