<?xml version="1.0" encoding="utf-8"?>
<!DOCTYPE svg PUBLIC "-//W3C//DTD SVG 1.1//EN" "http://www.w3.org/Graphics/SVG/1.1/DTD/svg11.dtd">
<svg version="1.1" id="图形" xmlns="http://www.w3.org/2000/svg" xmlns:xlink="http://www.w3.org/1999/xlink" x="0px" y="0px" width="1024px" height="1024px" viewBox="0 0 1024 1024" enable-background="new 0 0 1024 1024" xml:space="preserve">
  <path fill="#a9b7b7" d="M934.368 569.568v-563.168c0-38.848-31.552-70.4-70.4-70.4h-739.168c0-38.848 31.552-70.4 70.4-70.4h739.168c38.848 0 70.4 31.552 70.4 70.4v563.168c0 38.848-31.552 70.4-70.4 70.4zM899.168 41.6v563.168c0 38.848-31.552 70.4-70.4 70.4h-739.168c-38.848 0-70.4-31.552-70.4-70.4v-563.168c0-38.848 31.552-70.4 70.4-70.4h739.168c38.848 0 70.4 31.552 70.4 70.4zM89.632 604.768h739.168v-563.168h-739.168v563.168zM498.88 241.856l-105.184 111.968-105.216-179.648-78.912 82.464-85.504-180.544h670.688l-151.232 395.808-144.672-230.048zM230.432 358.4c38.848 0 70.4 31.552 70.4 70.4s-31.552 70.4-70.4 70.4-70.4-31.552-70.4-70.4 31.552-70.4 70.4-70.4z" transform="translate(0, 812) scale(1, -1)"/>
</svg>
