<?xml version="1.0" encoding="utf-8"?>
<!DOCTYPE svg PUBLIC "-//W3C//DTD SVG 1.1//EN" "http://www.w3.org/Graphics/SVG/1.1/DTD/svg11.dtd">
<svg version="1.1" id="图形" xmlns="http://www.w3.org/2000/svg" xmlns:xlink="http://www.w3.org/1999/xlink" x="0px" y="0px" width="1024px" height="1024px" viewBox="0 0 1024 1024" enable-background="new 0 0 1024 1024" xml:space="preserve">
  <path fill="#a9b7b7" d="M676.927795 671.129622c-6.29845 12.96222-19.550265 21.919219-34.94386 21.919219-9.713222 0-18.581194-3.594875-25.399483-9.496282L292.508495 536.785891c0 0-188.17066 0.76748-190.033078 0.76748-21.449521 0-38.874379-17.384949-38.874379-38.827307 0 0 0.173962-388.390751 0.173962-389.738445 0-20.163225 15.344476-36.741809 35.013445-38.679951 1.338485-0.13917 83.127256 0.166799 83.127256 0.166799 21.450545 0 38.874379 17.407462 38.874379 38.873356 0 21.468964-17.423835 38.875402-38.874379 38.875402l-40.226167-0.184195-0.301875 311.274396 157.152203-0.288572c5.709025 0 11.117199 1.264806 16.004509 3.480264 3.625574 1.238201 288.597931 131.408889 288.597931 131.408889l0.314155-580.589145L358.939487 128.614631c-17.311271 12.679787-41.645492 8.901741-54.323233-8.42795-12.68081-17.32969-8.886391-41.643446 8.426927-54.325279l306.362526-144.429437c17.34811-12.68081 41.643446-8.902764 54.324256 8.407484 2.609431 3.567245 5.782703 11.636015 5.813403 11.736299 0.325411 1.079588 1.318018 5.962805 1.425466 6.915503 0.048095 0.434905-0.106424 699.778734-0.106424 699.778734C681.889807 655.947851 680.625 663.92043 676.927795 671.129622zM872.598266 504.682729c-3.476171 4.863774-8.029884 8.900717-13.337773 11.733229-5.447059 2.905166-11.661597 4.565992-18.272155 4.565992-21.451568 0-38.875402-17.405415-38.875402-38.874379l0.381693-3.607154c0-9.950629 3.762697-18.998703 9.91379-25.873274 0.00307-0.005117 0.008186-0.007163 0.008186-0.010233 1.946328-2.180666 4.129041-4.143367 6.52153-5.837962 37.848003-35.465746 61.529355-85.86767 61.529355-141.826146 0-54.299697-22.282492-103.370299-58.170864-138.633431-5.240351-2.88163-9.734712-6.947226-13.150508-11.821233 0-0.002047 0-0.002047-0.00307-0.005117-4.41352-6.307659-6.649444-25.859971-6.649444-25.859971 0-21.467941 17.383926-38.875402 38.871309-38.875402 7.475252 0 14.437827 2.153036 20.36891 5.816472 3.801583 2.349511 7.178493 5.313006 9.960863 8.789177 53.933353 49.928133 87.73418 121.2976 87.73418 200.589504C959.429891 383.797521 925.9995 454.796552 872.598266 504.682729z" transform="translate(0, 812) scale(1, -1)"/>
</svg>
