<?xml version="1.0" encoding="utf-8"?>
<!DOCTYPE svg PUBLIC "-//W3C//DTD SVG 1.1//EN" "http://www.w3.org/Graphics/SVG/1.1/DTD/svg11.dtd">
<svg version="1.1" id="图形" xmlns="http://www.w3.org/2000/svg" xmlns:xlink="http://www.w3.org/1999/xlink" x="0px" y="0px" width="1024px" height="1024px" viewBox="0 0 1024 1024" enable-background="new 0 0 1024 1024" xml:space="preserve">
  <path fill="#a9b7b7" d="M756.534-29.907c-39.711 0-72.021 32.311-72.021 72.018 0 13.627 3.801 26.388 10.402 37.267h-259.272c6.602-10.878 10.402-23.639 10.402-37.267 0-39.707-32.312-72.018-72.021-72.018-39.711 0-72.021 32.311-72.021 72.018 0 17.802 6.499 34.126 17.24 46.718-10.487 8.179-17.24 20.941-17.24 35.246 0 13.406 9.484 32.005 21.908 54.932 1.154 2.138 2.258 4.157 3.224 5.989l-71.309 331.517h-73.057c-24.639 0-44.699 20.058-44.699 44.698s20.059 44.697 44.699 44.697h109.29c36.689 0 44.682-33.344 48.348-54.641h498.095c24.641 0 44.7-20.058 44.7-44.697v-218.569c0-22.654-17.039-41.83-39.609-44.578l-426.548-49.823c0.966-4.751 1.678-9.757 1.678-14.882 0-3.479-0.44-6.805-1.154-9.944h366.287c24.639 0 44.699-20.058 44.699-44.698 0-14.305-6.753-27.066-17.242-35.246 10.743-12.592 17.242-28.916 17.242-46.718 0.001-39.708-32.309-72.019-72.020-72.019zM756.534 79.378c-20.551 0-37.266-16.715-37.266-37.267 0-20.55 16.715-37.265 37.266-37.265 20.551 0 37.266 16.715 37.266 37.265-0 20.552-16.716 37.267-37.266 37.267zM374.024 79.378c-20.551 0-37.266-16.715-37.266-37.267 0-20.55 16.715-37.265 37.266-37.265s37.266 16.715 37.266 37.265c-0 20.552-16.715 37.267-37.266 37.267zM756.534 114.131h27.322c5.295 0 9.944 4.648 9.944 9.943 0 5.397-4.548 9.944-9.944 9.944h-420.881l15.308 30.392c2.8 5.244 5.685 10.674 5.685 14.307 0 4.445-1.442 10.334-2.85 16.018-0.901 3.684-1.783 7.298-2.41 10.76l-3.326 18.225 464.087 54.218c5.090 0.629 8.977 4.956 8.977 10.063l-0 218.568c0 5.396-4.55 9.943-9.945 9.943h-526.861l-2.885 13.847c-0.677 3.308-1.289 6.957-1.9 10.758-4.157 25.506-7.5 30.036-14.798 30.036h-109.29c-5.396 0-9.944-4.548-9.944-9.943 0-5.295 4.648-9.944 9.944-9.944h101.127l79.777-370.886-2.596-5.38c-1.528-3.14-3.888-7.517-6.602-12.558-5.16-9.501-17.209-31.766-17.716-38.537 0-5.126 4.648-9.775 9.944-9.775l409.832-0z" transform="translate(0, 812) scale(1, -1)"/>
</svg>
