<?xml version="1.0" encoding="utf-8"?>
<!DOCTYPE svg PUBLIC "-//W3C//DTD SVG 1.1//EN" "http://www.w3.org/Graphics/SVG/1.1/DTD/svg11.dtd">
<svg version="1.1" id="图形" xmlns="http://www.w3.org/2000/svg" xmlns:xlink="http://www.w3.org/1999/xlink" x="0px" y="0px" width="1000px" height="1024px" viewBox="0 0 1000 1024" enable-background="new 0 0 1000 1024" xml:space="preserve">
  <path fill="#a9b7b7" d="M731.0715 469.3852c-105.8476 33.3744-93.6983-63.1902-185.5488-64.2894 0 317.118 372.7296 198.1986 406.8428 382.5736 0 28.6526-49.8333 26.482-62.4192 0-49.8742-132.4102-380.6635-32.9776-404.7182-382.3388-102.3348 0-83.3459 98.9249-185.28 68.9523 0 0-285.0104-109.2719-285.0104-500.5616 0-136.4745 126.1197-157.3993 126.1197-157.3993 149.8975 0 291.952 188.802 373.8199 188.802s165.8114-188.802 375.6667-188.802c0 0 124.3328 21.0737 124.3328 157.3993C1014.8757 367.859 731.0715 469.3852 731.0715 469.3852zM889.8294-120.7677c-170.4254 0-309.4619 188.4252-375.9475 188.4252-66.4856 0-246.1362-189.3746-367.8697-189.3746 0 0-68.9561 16.9925-68.9561 127.8253 0 317.7706 246.8428 410.3128 246.8428 410.3128 49.9682 5.9959 59.9618-59.7975 165.9053-59.7975l48.9658-0.1899c101.9271 0 107.9233 71.9802 155.8927 60.9877 0 0 256.8364-91.2281 256.8364-411.3121C951.5001-104.6027 889.8294-120.7677 889.8294-120.7677zM202.855 191.5425l187.4446 0 0-62.3237-187.4446 0 0 62.3237ZM265.3192 254.0142l62.4562 0 0-187.338-62.4562 0 0 187.338ZM640.3043 254.0142l62.3543 0 0-62.5676-62.3543 0 0 62.5676ZM765.2247 254.0142l62.3543 0 0-62.5676-62.3543 0 0 62.5676ZM640.3043 129.2178l62.3543 0 0-62.5676-62.3543 0 0 62.5676ZM765.2247 129.2178l62.3543 0 0-62.5676-62.3543 0 0 62.5676Z" transform="translate(0, 812) scale(1, -1)"/>
</svg>
