<?xml version="1.0" encoding="utf-8"?>
<!DOCTYPE svg PUBLIC "-//W3C//DTD SVG 1.1//EN" "http://www.w3.org/Graphics/SVG/1.1/DTD/svg11.dtd">
<svg style="width:308px;height:308px;" version="1.1" id="图形" xmlns="http://www.w3.org/2000/svg" xmlns:xlink="http://www.w3.org/1999/xlink" x="0px" y="0px" width="1024px" height="1024px" viewBox="0 0 1024 1024" enable-background="new 0 0 1024 1024" xml:space="preserve">
  <path class="svgpath" data-index="path_0" fill="#eb4f38" d="M739.884151 683.624822c36.292578-26.752294 79.877235-31.735795 96.283904-33.611515 2.323928-0.26606 4.158716-0.475837 5.636371-0.704035 9.385764-1.451048 12.922311-6.927783 14.236236-11.265578 11.214413-37.005822 16.900925-75.55786 16.900925-114.583688 0-53.252855-10.432607-104.919585-31.008224-153.565515-19.87056-46.978964-48.313356-89.167832-84.538395-125.392872-36.225039-36.225039-78.413907-64.667835-125.392872-84.538395-48.646953-20.574594-100.313683-31.007201-153.565515-31.007201-53.256948 0-104.928794 10.432607-153.577794 31.007201-46.983057 19.869536-89.172949 48.312332-125.400035 84.537372-36.226063 36.225039-64.669882 78.412884-84.541465 125.392872-20.574594 48.64593-31.008224 100.31266-31.008224 153.565515 0 53.256948 10.432607 104.927771 31.008224 153.576771 19.87056 46.983057 48.314379 89.173972 84.540442 125.400035 36.227086 36.226063 78.416977 64.670905 125.400035 84.541465 48.650023 20.574594 100.320846 31.008224 153.577794 31.008224 70.152756 0 139.04787-18.651802 199.23874-53.93847l8.628518-5.057179-1.140986-9.936303C676.371628 772.528642 694.782953 716.868971 739.884151 683.624822zM829.326229 619.900475c-20.712741 2.445702-67.13605 9.144264-107.656929 39.012526-22.070668 16.268522-39.08518 37.077453-50.713009 61.927421-10.468422-4.333702-20.985964-8.31027-31.549553-11.920494 3.939729-9.745968 7.698333-19.783579 11.19497-30.111808 15.669888-46.273906 24.563442-92.745311 26.668383-139.012054l164.599825 0C840.666508 566.987359 836.471976 593.832773 829.326229 619.900475zM493.78515 355.895663c38.794561-1.192152 77.337389-7.284917 115.493407-18.252713 24.27487 56.256258 36.984333 113.466238 38.07313 171.454954L493.78515 509.097904 493.78515 355.895663zM493.78515 325.492212 493.78515 162.871461c43.25413 48.048319 77.397764 96.999195 102.407368 146.726759C560.869011 319.40968 526.655791 324.374762 493.78515 325.492212zM463.085964 160.381757l0 165.051103c-35.791158-1.348718-69.810972-7.106862-101.740172-15.860223C399.952065 229.553163 448.739211 175.389566 463.085964 160.381757zM348.703867 337.698209c28.393677 8.000208 57.025785 13.43294 85.798085 16.234753 9.543354 0.929162 19.070334 1.561565 28.585035 1.902326L463.086987 509.097904 309.950238 509.097904c1.563612-43.279712 9.474792-86.97284 23.77345-131.007753C338.266144 364.099509 343.314113 350.625636 348.703867 337.698209zM463.085964 539.79709l0 142.67549c-39.367613 1.453095-78.44256 7.826246-117.021204 19.066241-22.249747-53.121871-34.311457-107.0849-36.148291-161.742754L463.085964 539.796066zM463.085964 713.035666l0 168.106696c-44.340881-49.569976-79.098499-100.095719-104.236016-151.442154C395.105686 719.474308 429.974845 714.343451 463.085964 713.035666zM493.78515 712.892403c37.290301 1.130753 72.028477 6.912433 103.616916 15.329127-37.009915 77.757968-84.492346 132.530432-103.616916 152.882969L493.78515 712.892403zM493.78515 682.323177 493.78515 539.79709l153.054885 0c-2.181689 42.323944-10.480702 85.041862-24.952298 128.086214-3.689019 10.972912-7.691169 21.627577-11.920494 31.952736C571.633169 689.25403 532.803815 683.394578 493.78515 682.323177zM841.959967 509.097904 677.667134 509.097904c-0.51984-26.479071-3.26844-52.861952-8.272407-79.071893-6.53688-34.232662-16.944927-68.157309-31.128975-101.674681 36.175921-12.81077 71.966055-30.046317 107.253746-51.659567C802.490024 338.306052 838.468446 419.602613 841.959967 509.097904zM723.063043 254.407224c-33.229822 19.805068-65.798589 34.908044-97.549733 46.001707-22.706141-46.369074-52.752458-91.885733-89.983407-136.270617C607.075379 175.462221 671.750377 207.711715 723.063043 254.407224zM418.2365 164.637688c-7.581676 9.114588-16.298198 20.155039-25.616424 33.006741-18.031679 24.868387-40.690748 59.990303-60.917418 102.772688-36.052101-12.389168-69.053726-28.322046-98.474802-45.488007C283.892769 208.630644 347.654978 176.438455 418.2365 164.637688zM210.778564 277.299607c35.557844 21.351284 71.807443 38.432311 108.524692 51.163263-5.136997 12.485359-9.985422 25.493627-14.398942 38.98285-15.428388 47.15702-23.88192 94.516654-25.349341 141.653207L114.89068 509.098927C118.370944 419.896302 154.12731 338.841242 210.778564 277.299607zM114.977661 539.79709l164.609035 0c0.856507 25.574469 3.777023 51.056839 8.779967 76.376505 6.29845 31.875988 15.905248 63.48694 28.776394 94.748944-37.47859 13.373589-74.435293 31.373545-110.678752 53.953819C152.724357 704.401008 118.803803 625.945145 114.977661 539.79709zM228.344638 787.465842c34.595936-21.043269 68.439742-36.908608 101.271498-48.481178 23.467481 49.14121 55.090712 97.343025 94.66094 144.276964C348.994486 871.977631 281.185101 837.546448 228.344638 787.465842zM533.204951 883.147018c8.02886-9.401114 17.394159-20.971637 27.455305-34.565237 19.631106-26.52205 44.679595-64.696488 66.460668-111.406323 11.622712 3.906983 22.722514 8.119935 33.270754 12.516058-7.483438 27.209712-9.763364 58.259892-6.756891 92.710518C616.21862 862.986863 575.402005 876.744191 533.204951 883.147018z" />
<path class="svgpath" data-index="path_1" fill="#eb4f38" d="M850.025667 711.968357 819.326481 711.968357 819.326481 784.052093 747.244792 784.052093 747.244792 814.751279 819.326481 814.751279 819.326481 888.031259 850.025667 888.031259 850.025667 814.751279 923.304623 814.751279 923.304623 784.052093 850.025667 784.052093Z" />
<path class="svgpath" data-index="path_2" fill="#eb4f38" d="M835.270615 674.556283c-68.838831 0-124.843356 56.004525-124.843356 124.845403 0 68.836785 56.004525 124.839263 124.843356 124.839263 68.837808 0 124.84131-56.003502 124.84131-124.839263C960.111924 730.560808 904.108422 674.556283 835.270615 674.556283zM835.270615 893.541763c-51.9113 0-94.14417-42.231847-94.14417-94.140077 0-51.912323 42.23287-94.146217 94.14417-94.146217 51.910277 0 94.142124 42.23287 94.142124 94.146217C929.412738 851.309916 887.180891 893.541763 835.270615 893.541763z" />

</svg>
