<?xml version="1.0" encoding="utf-8"?>
<!DOCTYPE svg PUBLIC "-//W3C//DTD SVG 1.1//EN" "http://www.w3.org/Graphics/SVG/1.1/DTD/svg11.dtd">
<svg version="1.1" id="图形" xmlns="http://www.w3.org/2000/svg" xmlns:xlink="http://www.w3.org/1999/xlink" x="0px" y="0px" width="1024px" height="1024px" viewBox="0 0 1024 1024" enable-background="new 0 0 1024 1024" xml:space="preserve">
  <path fill="#a9b7b7" d="M415.551856 108.023664c-76.019371 0-147.497309 29.897937-201.232141 84.184331-110.918205 112.01519-110.918205 294.293653 0 406.309866 53.735855 54.296627 125.21277 84.185354 201.232141 84.185354 76.009138 0 147.487076-29.888727 201.222931-84.185354 110.919229-112.016213 110.919229-294.293653 0-406.309866C563.038932 137.921601 491.560994 108.023664 415.551856 108.023664zM415.551856 634.86365c-63.324234 0-122.841769-24.90011-167.620625-70.121034-92.464925-93.399203-92.464925-245.346871 0-338.758354 44.778856-45.220924 104.296391-70.122057 167.620625-70.122057 63.301721 0 122.831536 24.901133 167.598112 70.122057 92.475158 93.411483 92.475158 245.35915 0 338.758354C538.383392 609.964564 478.853577 634.86365 415.551856 634.86365zM867.015108-82.699122c-6.083555 0-12.18246 2.336208-16.806781 7.017834L588.335061 188.797315c-9.260921 9.343809-9.237385 24.490787 0.049119 33.82334 9.272177 9.331529 24.315802 9.309016 33.576723-0.046049l261.859963-264.47758c9.262968-9.343809 9.237385-24.490787-0.045025-33.81106C879.149473-80.38645 873.075127-82.699122 867.015108-82.699122z" transform="translate(0, 812) scale(1, -1)"/>
</svg>
