<?xml version="1.0" encoding="utf-8"?>
<!DOCTYPE svg PUBLIC "-//W3C//DTD SVG 1.1//EN" "http://www.w3.org/Graphics/SVG/1.1/DTD/svg11.dtd">
<svg version="1.1" id="图形" xmlns="http://www.w3.org/2000/svg" xmlns:xlink="http://www.w3.org/1999/xlink" x="0px" y="0px" width="1024px" height="1024px" viewBox="0 0 1024 1024" enable-background="new 0 0 1024 1024" xml:space="preserve">
  <path fill="#a9b7b7" d="M842.688 684 181.312 684C116.64 684 64 631.36 64 566.688l0-533.376C64-31.36 116.64-84 181.312-84l661.376 0C907.36-84 960-31.36 960 33.312L960 566.688C960 631.36 907.36 684 842.688 684zM288 524c35.36 0 64-28.64 64-64s-28.64-64-64-64c-35.328 0-64 28.64-64 64S252.672 524 288 524zM832 76c0-17.696-14.304-31.488-32-31.488L225.92 44c-0.128 0-0.224 0-0.352 0-10.08 0-19.616 4.288-25.664 12.384-6.112 8.192-7.936 18.56-4.896 28.352 2.304 7.488 58.272 183.552 180.064 183.552 38.08-0.896 67.424-9.824 95.776-18.336 35.712-10.72 70.528-19.936 109.664-13.76 20.448 3.296 28.896 23.808 43.328 69.952 19.04 60.8 47.808 152.736 174.656 152.736 17.536 0 31.776-14.08 32-31.616L832 300.384 832 76z" transform="translate(0, 812) scale(1, -1)"/>
</svg>
