<?xml version="1.0" encoding="utf-8"?>
<!DOCTYPE svg PUBLIC "-//W3C//DTD SVG 1.1//EN" "http://www.w3.org/Graphics/SVG/1.1/DTD/svg11.dtd">
<svg version="1.1" id="图形" xmlns="http://www.w3.org/2000/svg" xmlns:xlink="http://www.w3.org/1999/xlink" x="0px" y="0px" width="1024px" height="1024px" viewBox="0 0 1024 1024" enable-background="new 0 0 1024 1024" xml:space="preserve">
  <path fill="#a9b7b7" d="M512-212C794.769792-212 1024 17.230208 1024 300 1024 582.769792 794.769792 812 512 812 229.230208 812 0 582.769792 0 300 0 17.230208 229.230208-212 512-212ZM496.484848 503.151515 496.484848 336.363636C496.484848 330.526061 494.469495 325.591919 490.452687 321.561212 486.408081 317.530505 481.473939 315.515152 475.636364 315.515152L308.848485 315.515152C303.010909 315.515152 298.076768 317.530505 294.046061 321.561212 290.015354 325.591919 288 330.526061 288 336.363636L288 503.151515C288 508.989091 290.015354 513.923232 294.046061 517.953939 298.076768 521.970748 303.010909 524 308.848485 524L475.636364 524C481.473939 524 486.408081 521.970748 490.452687 517.953939 494.469495 513.923232 496.484848 508.989091 496.484848 503.151515 496.484848 503.151515 496.484848 508.989091 496.484848 503.151515ZM496.484848 252.969697 496.484848 86.181819C496.484848 80.344242 494.469495 75.410101 490.452687 71.379394 486.408081 67.348687 481.473939 65.333333 475.636364 65.333333L308.848485 65.333333C303.010909 65.333333 298.076768 67.348687 294.046061 71.379394 290.015354 75.410101 288 80.344242 288 86.181819L288 252.969697C288 258.807273 290.015354 263.741414 294.046061 267.772122 298.076768 271.788929 303.010909 273.818181 308.848485 273.818181L475.636364 273.818181C481.473939 273.818181 486.408081 271.788929 490.452687 267.772122 494.469495 263.741414 496.484848 258.807273 496.484848 252.969697 496.484848 252.969697 496.484848 258.807273 496.484848 252.969697ZM746.666667 503.151515 746.666667 336.363636C746.666667 330.526061 744.651313 325.591919 740.634505 321.561212 736.589899 317.530505 731.655758 315.515152 725.818181 315.515152L559.030303 315.515152C553.192727 315.515152 548.258586 317.530505 544.227878 321.561212 540.197171 325.591919 538.181819 330.526061 538.181819 336.363636L538.181819 503.151515C538.181819 508.989091 540.197171 513.923232 544.227878 517.953939 548.258586 521.970748 553.192727 524 559.030303 524L725.818181 524C731.655758 524 736.589899 521.970748 740.634505 517.953939 744.651313 513.923232 746.666667 508.989091 746.666667 503.151515 746.666667 503.151515 746.666667 508.989091 746.666667 503.151515ZM746.666667 252.969697 746.666667 86.181819C746.666667 80.344242 744.651313 75.410101 740.634505 71.379394 736.589899 67.348687 731.655758 65.333333 725.818181 65.333333L559.030303 65.333333C553.192727 65.333333 548.258586 67.348687 544.227878 71.379394 540.197171 75.410101 538.181819 80.344242 538.181819 86.181819L538.181819 252.969697C538.181819 258.807273 540.197171 263.741414 544.227878 267.772122 548.258586 271.788929 553.192727 273.818181 559.030303 273.818181L725.818181 273.818181C731.655758 273.818181 736.589899 271.788929 740.634505 267.772122 744.651313 263.741414 746.666667 258.807273 746.666667 252.969697Z" transform="translate(0, 812) scale(1, -1)"/>
</svg>
