<?xml version="1.0" encoding="utf-8"?>
<!DOCTYPE svg PUBLIC "-//W3C//DTD SVG 1.1//EN" "http://www.w3.org/Graphics/SVG/1.1/DTD/svg11.dtd">
<svg version="1.1" id="图形" xmlns="http://www.w3.org/2000/svg" xmlns:xlink="http://www.w3.org/1999/xlink" x="0px" y="0px" width="1024px" height="1024px" viewBox="0 0 1024 1024" enable-background="new 0 0 1024 1024" xml:space="preserve">
  <path fill="#a9b7b7" d="M733.696 254.944c32.192 51.456 51.456 115.776 51.456 186.56 0 173.696-122.24 308.736-270.144 308.736S244.864 608.736 244.864 441.568c0-70.72 19.264-135.04 51.456-186.56-141.504-64.32-231.552-180.096-231.552-321.6l0-25.728c0-32.192 25.728-57.92 57.92-57.92l778.304 0c32.192 0 57.92 25.728 57.92 57.92l0 25.728C965.248 74.848 868.8 190.624 733.696 254.944zM515.008 666.592c96.512 0 180.096-102.912 180.096-225.152S611.52 216.352 515.008 216.352 334.912 319.264 334.912 441.568C334.912 563.68 418.56 666.592 515.008 666.592zM154.816-66.656c0 109.376 83.584 205.824 205.824 250.88 45.056-38.592 96.512-57.92 154.368-57.92s109.376 19.264 154.368 57.92c122.24-45.056 205.824-141.504 205.824-250.88L154.816-66.656z" transform="translate(0, 812) scale(1, -1)"/>
</svg>
