<?xml version="1.0" encoding="utf-8"?>
<!DOCTYPE svg PUBLIC "-//W3C//DTD SVG 1.1//EN" "http://www.w3.org/Graphics/SVG/1.1/DTD/svg11.dtd">
<svg version="1.1" id="图形" xmlns="http://www.w3.org/2000/svg" xmlns:xlink="http://www.w3.org/1999/xlink" x="0px" y="0px" width="1024px" height="1024px" viewBox="0 0 1024 1024" enable-background="new 0 0 1024 1024" xml:space="preserve">
  <path fill="#a9b7b7" d="M512 744.161C267.086 744.161 67.839 544.914 67.839 300S267.086-144.161 512-144.161 956.161 55.086 956.161 300 756.914 744.161 512 744.161zM469.719 574.828c0 23.246 19.035 42.281 42.281 42.281 23.246 0 42.281-19.035 42.281-42.281l0-232.547C554.281 319.035 535.246 300 512 300c-23.246 0-42.281 19.035-42.281 42.281L469.719 574.828zM512 25.172c-151.784 0-274.828 123.045-274.828 274.828 0 114.312 69.821 212.273 169.125 253.688l0-95.484c-50.993-34.127-84.563-92.222-84.563-158.204 0-105.105 85.161-190.266 190.266-190.266 105.105 0 190.266 85.161 190.266 190.266 0 65.982-33.569 124.077-84.563 158.204l0 95.484C717.007 512.273 786.828 414.312 786.828 300 786.828 148.217 663.783 25.172 512 25.172z" transform="translate(0, 812) scale(1, -1)"/>
</svg>
